Untitled1.sfdir
StartChar: a
Encoding: 97 97 0
Width: 914
VWidth: 0
Flags: W
HStem: 41 24<404.619 449.925> 131 26<122.54 252.927> 382 24<125.269 250.295>
VStem: 50 25<206.205 332.566> 300 25<206.198 332.566>
LayerCount: 2
Fore
SplineSet
75 269 m 0
 75 346 110 382 188 382 c 0
 265 382 300 346 300 269 c 0
 300 192 265 157 188 157 c 0
 110 157 75 192 75 269 c 0
475 239 m 1
 475 292 l 1
 450 292 l 1
 450 244 l 1
 403 255 l 1
 398 231 l 1
 451 219 l 1
 451 70 l 0
 446 66 441 65 434 65 c 0
 413 65 381 86 333 125 c 1
 399 212 l 1
 378 226 l 1
 314 140 l 1
 303 149 298 153 285 164 c 1
 311 188 325 217 325 268 c 0
 325 357 277 406 188 406 c 0
 99 406 50 357 50 268 c 0
 50 179 99 131 188 131 c 0
 226 131 246 134 269 152 c 1
 269 152 277 143 300 124 c 1
 228 26 l 1
 248 11 l 1
 322 109 l 1
 363 77 414 41 438 41 c 0
 475 41 538 85 618 156 c 1
 863 156 l 1
 863 181 l 1
 628 181 l 1
 681 418 l 1
 645 368 l 1
 602 175 l 1
 540 121 505 95 475 81 c 1
 475 214 l 1
 510 206 l 1
 516 230 l 1
 475 239 l 1
EndSplineSet
EndChar
StartChar: b
Encoding: 98 98 1
Width: 519
VWidth: 0
Flags: W
HStem: 330 41<359.885 369.468> 402 25<176.187 213.52 245.324 282.465> 627 131<135.888 323.112> 627 31<378 409>
VStem: 91 26<483.983 596.505> 214 31<376 401.996> 342 26<483.983 596.505>
CounterMasks: 1 0e
LayerCount: 2
Fore
SplineSet
115 757 m 0xee
 113 755 112 732 112 705 c 2
 112 658 l 1
 81 658 l 1
 50 658 l 1
 50 642 l 1
 50 627 l 1
 83 627 l 1
 116 627 l 1
 104 600 l 2
 95 581 91 561 91 541 c 0
 91 503 106 465 133 439 c 0
 151 422 189 402 205 402 c 0
 212 402 214 397 214 376 c 2
 214 351 l 1
 158 351 l 1
 101 351 l 1
 101 335 l 1
 101 320 l 1
 158 320 l 1
 214 320 l 1
 214 276 l 1
 214 233 l 1
 153 134 l 2
 110 65 97 44 97 35 c 0
 97 32 98 31 100 30 c 0
 104 26 110 23 111 23 c 0
 113 23 140 64 170 115 c 0
 202 166 228 207 229 207 c 0
 231 207 258 166 288 115 c 0
 319 64 346 23 348 23 c 0
 349 23 354 26 359 30 c 0
 361 31 362 32 362 35 c 0
 362 44 349 65 306 134 c 2
 245 233 l 1
 245 276 l 1
 245 320 l 1
 288 320 l 2
 304 320 318 320 326 320 c 0
 330 320 332 320 332 320 c 0
 332 318 329 309 326 303 c 0
 322 294 322 291 330 286 c 0
 335 282 338 280 341 280 c 0
 346 280 349 286 357 304 c 0
 364 319 370 330 372 330 c 0
 373 330 386 323 401 315 c 1
 429 299 l 1
 434 310 l 2
 437 316 439 319 438 320 c 0
 437 321 425 331 410 340 c 2
 383 356 l 1
 427 444 l 1
 456 503 466 522 466 531 c 0
 466 535 465 536 462 538 c 0
 457 542 452 545 450 545 c 0
 448 545 427 506 403 458 c 0
 380 410 359 371 359 371 c 0
 358 371 348 377 336 384 c 0
 315 397 314 398 308 388 c 0
 298 376 299 375 321 362 c 2
 339 351 l 1
 292 351 l 1
 245 351 l 1
 245 376 l 2
 245 397 246 402 254 402 c 0
 269 402 308 422 326 439 c 0
 353 465 368 503 368 541 c 0
 368 561 364 581 355 600 c 2
 343 627 l 1
 375 627 l 1
 409 627 l 1
 409 642 l 2
 409 658 409 658 378 658 c 2
 346 658 l 1xde
 345 708 l 1
 345 758 l 1
 231 758 l 1
 200 758 171 758 150 758 c 0
 129 758 116 758 115 757 c 0xee
315 616 m 0
 334 595 342 572 342 540 c 0
 342 473 296 427 229 427 c 0
 163 427 117 473 117 540 c 0
 117 572 125 595 144 616 c 0
 154 627 158 627 229 627 c 0xee
 301 627 305 627 315 616 c 0
EndSplineSet
EndChar
StartChar: c
Encoding: 99 99 2
Width: 515
VWidth: 0
Flags: W
HStem: 322 30<174.015 224> 347 25<86.5385 145.566> 402 25<235.968 273.695 304.498 343.21> 622 127<198.034 381.112> 622 30<434 464>
VStem: 50 30<170 341.317> 154 26<312.409 320.699 482.048 592.475> 274 30<377 401.996> 400 25<484.276 590.607>
LayerCount: 2
Fore
SplineSet
178 748 m 0x3780
 176 747 174 724 174 698 c 2
 174 652 l 1
 144 652 l 1
 114 652 l 1
 114 637 l 1
 114 622 l 1
 147 622 l 1
 179 622 l 1
 167 595 l 2
 158 577 154 557 154 537 c 0
 154 500 168 463 195 438 c 0
 212 422 250 402 266 402 c 0
 273 402 274 397 274 377 c 2
 274 352 l 1
 219 352 l 2xaf80
 171 352 161 353 150 362 c 0
 141 368 130 372 114 372 c 0x6780
 84 372 61 352 54 322 c 0xa780
 52 311 50 244 50 170 c 2
 50 37 l 1
 64 37 l 1
 80 37 l 1
 80 183 l 2
 80 319 80 330 89 338 c 0
 96 344 106 347 115 347 c 0x6780
 133 347 150 338 150 322 c 0
 150 316 154 312 162 312 c 0
 169 312 174 314 174 317 c 0
 174 319 194 322 224 322 c 2
 274 322 l 1
 274 279 l 1
 274 237 l 1
 214 140 l 2
 173 73 160 53 160 44 c 0
 160 41 161 39 163 38 c 0
 167 34 172 32 174 32 c 0
 175 32 202 72 232 122 c 0
 262 171 288 211 290 211 c 0
 291 211 317 171 347 122 c 0
 377 72 404 32 405 32 c 0
 407 32 412 34 416 38 c 0
 418 39 419 41 419 44 c 0
 419 53 406 73 364 140 c 2
 304 237 l 1
 304 279 l 1
 304 322 l 1
 360 322 l 1
 414 322 l 1
 414 337 l 1
 414 352 l 1
 360 352 l 1
 304 352 l 1
 304 377 l 2
 304 397 306 402 314 402 c 0
 329 402 367 422 384 438 c 0
 410 463 425 501 425 538 c 0
 425 558 421 577 412 595 c 2
 400 622 l 1
 432 622 l 1
 464 622 l 1
 464 637 l 2
 464 652 464 652 434 652 c 2
 404 652 l 1xaf80
 402 700 l 1
 402 749 l 1
 292 749 l 1
 262 749 234 749 213 749 c 0
 192 749 179 749 178 748 c 0x3780
373 610 m 0
 392 590 400 568 400 537 c 0
 400 472 354 427 290 427 c 0
 224 427 180 472 180 537 c 0
 180 568 187 590 206 610 c 0
 215 621 220 622 290 622 c 0x3780
 359 622 364 621 373 610 c 0
EndSplineSet
EndChar
StartChar: d
Encoding: 100 100 3
Width: 452
VWidth: 0
Flags: W
HStem: 402 24<173.052 208.254 240.192 276.948> 622 127<133.287 316.713> 622 30<370 399.999>
VStem: 90 25<482.564 590.525> 210 33<367.959 401.994> 335 25<482.564 590.525>
LayerCount: 2
Fore
SplineSet
113 748 m 0xdc
 111 746 110 724 110 698 c 2
 110 652 l 1
 80 652 l 1
 50 652 l 1
 50 636 l 1
 50 622 l 1
 83 622 l 1
 115 622 l 1
 103 596 l 2
 94 577 90 557 90 537 c 0
 90 500 104 463 131 438 c 0
 148 422 186 402 201 402 c 0
 209 402 210 394 210 319 c 2
 210 236 l 1
 150 140 l 2
 108 74 96 53 96 44 c 0
 96 41 97 39 99 38 c 0
 103 34 108 32 109 32 c 0
 111 32 137 72 167 122 c 0
 198 171 223 211 225 211 c 0
 227 211 253 171 283 122 c 0
 313 72 339 32 341 32 c 0
 342 32 347 34 351 38 c 0
 353 39 354 41 354 44 c 0
 354 53 342 74 300 140 c 2
 241 237 l 1
 243 272 l 1
 243 306 l 1
 293 266 l 2
 325 240 337 232 343 232 c 0
 346 232 347 233 349 235 c 0
 352 240 355 244 355 246 c 0
 355 248 331 268 303 290 c 0
 273 314 250 334 250 336 c 0
 250 338 273 360 303 382 c 0
 331 406 355 426 355 427 c 0
 355 428 352 434 349 438 c 0
 347 440 345 442 343 442 c 0
 337 442 325 433 295 408 c 0
 269 388 246 370 244 368 c 1
 241 367 240 374 240 384 c 0
 240 398 242 402 249 402 c 0
 264 402 302 422 319 438 c 0
 346 463 360 500 360 537 c 0
 360 557 356 577 347 596 c 2
 335 622 l 1
 367 622 l 1
 400 622 l 1
 400 636 l 2
 400 652 400 652 370 652 c 2
 339 652 l 1xbc
 337 700 l 1
 337 749 l 1
 227 749 l 1
 197 749 169 749 148 749 c 0
 127 749 114 749 113 748 c 0xdc
309 610 m 0
 327 590 335 568 335 536 c 0
 335 472 290 426 225 426 c 0
 160 426 115 472 115 536 c 0
 115 568 123 590 141 610 c 0
 151 621 155 622 225 622 c 0xdc
 295 622 299 621 309 610 c 0
EndSplineSet
EndChar
StartChar: e
Encoding: 101 101 23
Width: 848
VWidth: 0
Flags: W
HStem: 130 20<602 790> 172 26<477.185 510.976> 289 21<84 120> 350 20<140 160>
VStem: 120 20<310 350> 160 20<370 396> 442 21<71.2939 166.807> 460 19<203.212 239.446> 621 18<285.27 320>
LayerCount: 2
Fore
SplineSet
160 407 m 5xfe80
 160 444 l 5
 219 385 l 5
 278 327 l 5
 290 322 l 6
 320 310 344 285 355 252 c 5
 360 236 361 210 357 194 c 4
 353 179 342 158 333 148 c 5
 325 140 325 139 328 137 c 5
 330 136 336 132 341 127 c 6
 351 118 l 5
 376 152 l 6
 390 170 401 185 401 185 c 4
 401 185 406 183 410 180 c 4
 415 176 418 173 417 172 c 4
 405 156 367 105 367 105 c 4
 367 105 372 102 376 98 c 4
 391 86 407 75 419 69 c 4
 432 63 442 60 442 62 c 5
 442 63 445 90 448 123 c 6
 454 182 l 5
 442 185 l 5xfe80
 418 190 418 190 419 194 c 4
 419 196 421 201 421 204 c 5
 422 207 422 210 423 210 c 4
 423 210 430 208 439 206 c 4
 447 204 455 203 455 203 c 4
 455 203 457 212 458 222 c 4
 459 232 460 240 460 240 c 4
 461 241 478 239 479 238 c 4xfd80
 479 238 479 229 478 218 c 4
 477 207 477 198 477 198 c 4
 478 198 486 196 495 194 c 4
 508 191 513 190 512 188 c 4
 512 187 510 183 510 179 c 4
 509 175 508 172 507 172 c 4
 506 172 498 172 490 174 c 4
 482 176 474 177 474 177 c 4
 473 176 463 71 463 65 c 4
 463 61 468 63 482 70 c 4
 500 79 519 92 561 128 c 5
 581 146 l 5
 583 156 l 6
 584 162 594 202 603 244 c 4
 612 286 621 321 621 321 c 4
 621 321 625 321 630 320 c 4
 636 319 639 318 639 316 c 4
 639 315 631 277 621 232 c 6
 602 150 l 5
 696 150 l 5
 790 150 l 5
 790 140 l 5
 790 130 l 5
 691 130 l 5
 593 129 l 5
 566 107 l 5
 517 66 491 48 471 43 c 4
 467 42 462 40 461 40 c 4
 457 39 442 40 432 43 c 5
 415 47 397 57 371 77 c 6
 354 89 l 5
 327 53 l 6
 312 33 300 17 299 16 c 4
 299 15 295 16 290 20 c 5
 284 24 282 27 283 28 c 4
 297 46 338 101 338 102 c 4
 338 103 316 122 311 125 c 4
 310 126 305 125 298 122 c 4
 253 101 202 110 169 146 c 4
 160 156 149 175 146 185 c 4
 144 191 135 202 97 244 c 4
 50 296 50 296 50 303 c 6
 50 310 l 5
 85 310 l 5
 120 310 l 5
 120 340 l 5
 120 370 l 5
 140 370 l 5
 160 370 l 5
 160 407 l 5xfe80
233 328 m 5
 245 330 l 5
 212 363 l 5
 180 396 l 5
 180 373 l 5
 180 350 l 5
 160 350 l 5
 140 350 l 5
 140 320 l 5
 140 290 l 5
 112 289 l 5
 84 289 l 5
 111 258 l 6
 126 241 138 228 139 228 c 4
 140 228 141 232 142 237 c 4
 148 282 186 320 233 328 c 5
278 306 m 4
 266 310 246 311 235 309 c 4
 174 298 142 232 171 177 c 4
 177 166 190 152 200 145 c 4
 230 125 270 126 300 146 c 4
 343 175 353 235 321 275 c 4
 310 289 294 301 278 306 c 4
EndSplineSet
EndChar
StartChar: f
Encoding: 102 102 6
Width: 490
VWidth: 0
Flags: W
HStem: 295 45<194 297.25> 310 30<194 250> 390 25<260.752 297.695 328.498 368.228> 575 20G<96 99>
VStem: 298 30<365 389.996>
LayerCount: 2
Fore
SplineSet
258 650 m 0x78
 172 612 151 498 215 430 c 0
 231 413 274 390 290 390 c 0
 297 390 298 385 298 365 c 2
 298 340 l 1x78
 246 340 l 1
 194 340 l 1
 191 356 l 2
 189 364 179 419 169 477 c 2
 150 582 l 1
 130 601 l 2
 96 633 77 624 59 574 c 1
 50 548 l 1
 113 422 l 2
 147 352 178 295 182 295 c 0xb8
 185 295 192 298 196 302 c 0
 202 308 214 310 250 310 c 2
 298 310 l 1
 298 268 l 1
 298 225 l 1
 238 129 l 2
 184 41 179 32 187 26 c 0
 191 22 196 20 198 20 c 0
 200 20 226 60 256 110 c 0
 286 160 312 200 314 200 c 0
 316 200 341 160 371 110 c 0
 401 60 427 20 429 20 c 0
 431 20 436 22 440 26 c 0
 448 32 442 41 388 129 c 2
 328 225 l 1
 328 268 l 1
 328 310 l 1
 384 310 l 1
 438 310 l 1
 438 325 l 1
 438 340 l 1
 384 340 l 1
 328 340 l 1
 328 365 l 2
 328 385 330 390 338 390 c 0
 354 390 396 413 412 430 c 0
 462 484 460 574 408 624 c 0
 382 648 352 660 314 660 c 0
 292 660 273 657 258 650 c 0x78
362 626 m 0
 402 606 424 570 424 525 c 0
 424 460 379 415 314 415 c 0
 249 415 204 460 204 525 c 0
 204 570 225 604 266 626 c 0
 288 638 338 638 362 626 c 0
114 582 m 0
 125 570 129 555 141 492 c 0
 148 451 155 412 156 405 c 0
 158 398 141 428 119 470 c 0
 97 512 79 550 79 553 c 0
 79 562 94 595 98 595 c 0
 100 595 107 590 114 582 c 0
EndSplineSet
EndChar
StartChar: g
Encoding: 103 103 7
Width: 455
VWidth: 0
Flags: W
HStem: 392 24<173.052 209.393 240.421 276.948> 612 128<134.129 316.713> 612 30<370 399.999>
VStem: 210 30<366 391.996> 335 30<74.0542 226>
LayerCount: 2
Fore
SplineSet
113 738 m 0xd8
 111 736 110 714 110 688 c 2
 110 642 l 1
 80 642 l 1
 50 642 l 1
 50 626 l 1
 50 612 l 1
 83 612 l 1
 115 612 l 1
 103 586 l 2
 79 534 91 466 131 428 c 0
 149 412 185 392 201 392 c 0
 208 392 210 386 210 366 c 2
 210 342 l 1
 155 342 l 1
 100 342 l 1
 100 326 l 1
 100 312 l 1
 155 312 l 1
 210 312 l 1
 210 269 l 1
 210 226 l 1
 150 130 l 2
 96 42 91 34 99 28 c 0
 103 24 107 22 109 22 c 0
 111 22 137 62 167 112 c 0
 197 162 223 201 225 201 c 0
 227 201 253 162 283 112 c 0
 319 54 340 22 344 24 c 0
 348 26 354 26 358 26 c 0
 364 26 365 56 365 226 c 2
 365 426 l 1
 350 426 l 1
 335 426 l 1
 335 384 l 1
 335 342 l 1
 287 342 l 1
 240 342 l 1
 240 366 l 2
 240 386 241 392 249 392 c 0
 264 392 301 412 319 428 c 0
 359 466 371 534 347 586 c 2
 335 612 l 1
 367 612 l 1
 400 612 l 1
 400 626 l 2
 400 641 400 642 370 642 c 2
 341 642 l 1xb8
 339 690 l 1
 337 739 l 1
 227 740 l 2
 167 740 115 740 113 738 c 0xd8
309 600 m 0
 327 580 335 558 335 526 c 0
 335 461 290 416 225 416 c 0
 160 416 115 461 115 526 c 0
 115 558 123 580 141 600 c 0
 151 610 155 612 225 612 c 0xd8
 295 612 299 610 309 600 c 0
335 193 m 1
 335 74 l 1
 287 150 l 1
 240 226 l 1
 240 269 l 1
 240 312 l 1
 287 312 l 1
 335 312 l 1
 335 193 l 1
EndSplineSet
EndChar
StartChar: h
Encoding: 104 104 8
Width: 524
VWidth: 0
Flags: W
VStem: 157 29<566 612> 294 36<251 254.953 297.5 313 409 437.991>
LayerCount: 2
Fore
SplineSet
249 736 m 0
 205 715 175 681 161 632 c 0
 156 616 147 606 126 592 c 0
 94 570 66 522 50 460 c 0
 36 402 41 280 61 228 c 0
 79 180 101 148 126 133 c 0
 156 115 174 118 214 150 c 0
 234 166 249 178 249 176 c 0
 249 175 228 140 203 99 c 0
 162 32 159 26 168 19 c 0
 173 14 177 12 179 12 c 0
 181 12 212 58 246 116 c 0
 280 174 311 219 313 219 c 0
 315 219 345 174 379 116 c 0
 413 58 444 12 446 12 c 0
 448 12 453 14 458 19 c 0
 467 26 462 36 402 133 c 0
 365 191 336 241 336 243 c 0
 336 245 367 273 405 303 c 0
 443 333 474 361 474 363 c 0
 474 365 452 386 424 408 c 0
 381 441 376 446 385 451 c 0
 459 492 488 584 454 658 c 0
 426 716 377 748 313 748 c 0
 288 748 266 744 249 736 c 0
369 709 m 0
 394 696 416 672 430 647 c 0
 444 622 442 564 428 536 c 0
 407 497 361 465 340 477 c 0
 335 479 299 507 260 539 c 0
 199 587 186 598 186 612 c 1
 186 644 218 688 257 709 c 0
 282 723 341 723 369 709 c 0
157 566 m 0
 157 548 182 505 200 484 c 0
 218 464 267 438 285 438 c 0
 293 438 295 432 295 409 c 2
 295 380 l 1
 184 380 l 1
 71 380 l 1
 71 402 l 1
 71 457 99 530 130 559 c 0
 151 577 157 580 157 566 c 0
254 506 m 0
 291 478 299 468 290 467 c 0
 267 462 216 499 200 531 c 0
 184 561 187 559 254 506 c 0
376 409 m 2
 412 380 l 1
 370 380 l 1
 330 380 l 1
 330 409 l 2
 330 425 334 438 336 438 c 0
 338 438 356 425 376 409 c 2
294 298 m 1
 294 251 l 1
 234 203 l 2
 201 177 169 153 163 152 c 0
 126 143 71 245 71 325 c 1
 71 346 l 1
 184 346 l 1
 295 346 l 1
 294 298 l 1
377 318 m 2
 359 304 341 288 338 286 c 0
 332 281 330 288 330 313 c 2
 330 346 l 1
 370 346 l 1
 412 346 l 1
 377 318 l 2
EndSplineSet
EndChar
StartChar: i
Encoding: 105 105 24
Width: 803
VWidth: 0
Flags: W
HStem: 141 22<565 753> 184 27<439 473.228>
VStem: 405 20<82.8589 173.772> 583 18<297.564 333.176>
LayerCount: 2
Fore
SplineSet
111 330 m 0
 144 360 172 385 172 385 c 0
 172 385 183 376 195 364 c 0
 223 336 221 336 246 361 c 2
 265 380 l 1
 273 372 l 1
 280 365 l 1
 265 351 l 1
 250 336 l 1
 258 332 l 2
 285 321 308 295 318 264 c 1
 323 248 323 222 319 206 c 0
 315 191 305 171 296 161 c 1
 288 153 288 152 291 150 c 1
 293 149 299 144 304 139 c 2
 314 131 l 1
 338 164 l 2
 352 182 364 198 364 198 c 0
 364 198 369 195 373 192 c 0
 378 188 380 186 379 185 c 0
 367 169 330 117 330 117 c 0
 330 117 334 115 338 111 c 0
 353 99 370 87 382 81 c 0
 395 75 405 72 405 74 c 1
 405 75 408 102 411 135 c 2
 417 195 l 1
 405 197 l 1
 381 202 380 203 381 207 c 0
 381 209 383 213 383 216 c 1
 384 219 384 222 385 222 c 0
 385 222 393 221 402 219 c 0
 410 217 418 216 418 216 c 0
 418 216 420 224 421 234 c 0
 422 244 423 253 423 253 c 0
 424 254 441 252 442 251 c 0
 442 251 441 242 440 231 c 0
 439 220 439 211 439 211 c 0
 440 211 449 208 458 206 c 0
 471 203 475 202 474 200 c 0
 474 199 472 195 472 191 c 0
 471 187 470 184 469 184 c 0
 468 184 460 185 452 187 c 0
 444 189 437 189 437 189 c 0
 436 188 425 83 425 77 c 0
 425 73 431 75 445 82 c 0
 463 91 481 105 523 141 c 1
 543 158 l 1
 546 169 l 2
 547 175 556 214 565 256 c 0
 574 298 583 334 583 334 c 0
 583 334 588 334 593 333 c 0
 599 332 601 330 601 328 c 0
 601 327 593 289 583 244 c 2
 565 163 l 1
 659 163 l 1
 753 162 l 1
 753 152 l 1
 753 143 l 1
 654 142 l 1
 555 141 l 1
 529 119 l 1
 480 78 453 61 433 56 c 0
 429 55 425 53 424 53 c 0
 420 52 404 52 394 55 c 1
 377 59 359 69 333 89 c 2
 317 102 l 1
 290 66 l 2
 275 46 263 29 262 28 c 0
 262 27 258 28 253 32 c 1
 247 36 245 39 246 40 c 0
 260 58 301 113 301 114 c 0
 301 115 279 135 274 138 c 0
 273 139 268 137 261 134 c 0
 206 108 142 129 115 182 c 2
 109 194 l 1
 94 180 l 1
 80 165 l 1
 73 172 l 1
 65 180 l 1
 82 196 l 1
 99 213 l 1
 74 243 l 2
 60 259 50 273 50 274 c 0
 50 275 78 300 111 330 c 0
252 313 m 0
 234 322 240 326 180 266 c 0
 143 229 126 210 126 208 c 0
 126 206 129 199 132 192 c 0
 156 144 219 128 263 158 c 0
 320 197 314 283 252 313 c 0
EndSplineSet
EndChar
StartChar: j
Encoding: 106 106 9
Width: 484
VWidth: 0
Flags: W
HStem: 188 20<108.11 147.09> 480 31<326.947 349.727> 489 21<169.047 257.605> 534 21G<65 88>
VStem: 98 24<589 594.646> 247 20<327.27 361.995> 289 22<27 227>
LayerCount: 2
Fore
SplineSet
113 719 m 0xbe
 144 753 170 781 170 781 c 0
 170 781 185 768 203 754 c 2
 235 727 l 1
 253 745 l 1
 271 764 l 1
 279 756 l 1
 286 748 l 1
 270 733 l 2
 261 724 255 716 255 716 c 0
 255 716 260 714 263 713 c 0
 279 706 300 690 311 675 c 0
 318 666 326 648 329 637 c 0
 337 609 333 578 320 552 c 0
 316 543 316 541 317 539 c 0
 321 533 340 511 341 511 c 0xde
 342 511 359 524 381 540 c 0
 402 556 421 570 422 570 c 0
 423 571 434 557 434 555 c 0
 434 555 417 540 395 524 c 2
 355 493 l 1
 358 489 l 1xbe
 382 460 396 436 403 416 c 0
 406 406 410 383 408 380 c 0
 407 379 406 375 405 369 c 0
 397 343 376 313 319 247 c 2
 311 237 l 1
 311 132 l 1
 311 27 l 1
 300 27 l 1
 289 27 l 1
 289 127 l 2
 289 182 289 227 289 227 c 0
 288 227 248 219 200 208 c 0
 152 197 112 188 111 188 c 0
 110 188 104 207 105 208 c 0
 105 208 148 218 200 230 c 2
 295 251 l 1
 311 271 l 2
 348 315 366 338 376 357 c 0
 380 366 386 377 385 378 c 0
 260 366 l 0
 260 366 262 358 264 348 c 0
 266 338 267 329 267 329 c 0
 266 328 248 325 247 326 c 1
 247 327 245 335 243 345 c 0
 241 355 238 362 238 362 c 0
 238 363 228 362 216 361 c 0
 203 360 194 359 194 360 c 0
 193 361 191 379 192 380 c 0
 192 380 202 381 213 382 c 0
 224 383 233 384 233 384 c 1
 233 384 232 393 230 402 c 0
 228 411 226 418 226 419 c 0
 226 420 228 422 234 423 c 0
 247 426 246 427 248 416 c 0
 249 410 252 402 253 396 c 2
 255 386 l 1
 320 393 l 2
 355 396 385 401 385 401 c 0
 386 402 382 417 376 427 c 0
 368 443 338 481 336 480 c 0xde
 335 480 320 468 301 454 c 0
 282 440 266 427 265 427 c 0
 264 427 260 430 257 434 c 0
 254 438 252 442 252 442 c 0
 252 442 268 455 288 470 c 2
 324 498 l 1
 318 504 l 2
 315 508 310 515 307 518 c 2
 301 525 l 1
 293 518 l 2
 280 506 262 496 244 492 c 0
 232 489 208 487 196 489 c 0
 159 496 125 521 109 555 c 1
 107 561 103 565 103 565 c 0
 103 565 97 558 88 549 c 2
 71 534 l 1
 65 542 l 1
 57 549 l 1
 77 569 l 1
 98 589 l 1
 98 595 l 1
 98 601 l 1
 73 624 l 1
 50 648 l 1
 54 653 l 2
 56 655 82 685 113 719 c 0xbe
265 688 m 0
 261 691 253 695 247 697 c 2
 237 700 l 1
 179 642 l 1
 146 609 122 582 122 581 c 0
 122 577 128 560 134 552 c 0
 153 524 181 510 214 510 c 0xbe
 247 510 277 526 296 554 c 0
 326 599 311 659 265 688 c 0
EndSplineSet
EndChar
StartChar: k
Encoding: 107 107 10
Width: 450
VWidth: 0
Flags: W
HStem: 382 24<173.052 209.393 240.421 276.948> 602 128<134.129 316.713> 602 30<370 399.999>
VStem: 85 30<64.0542 216> 210 30<356 381.996>
LayerCount: 2
Fore
SplineSet
113 728 m 0xd8
 111 726 110 704 110 678 c 2
 110 632 l 1
 80 632 l 1
 50 632 l 1
 50 616 l 1
 50 602 l 1
 83 602 l 1
 115 602 l 1
 103 576 l 2
 79 524 91 456 131 418 c 0
 149 402 185 382 201 382 c 0
 208 382 210 376 210 356 c 2
 210 332 l 1
 163 332 l 1
 115 332 l 1
 115 374 l 1
 115 416 l 1
 100 416 l 1
 85 416 l 1
 85 216 l 2
 85 46 86 16 92 16 c 0
 96 16 102 16 106 14 c 0
 110 12 131 44 167 102 c 0
 197 152 223 191 225 191 c 0
 227 191 253 152 283 102 c 0
 313 52 339 12 341 12 c 0
 343 12 347 14 351 18 c 0
 359 24 354 32 300 120 c 2
 240 216 l 1
 240 259 l 1
 240 302 l 1
 295 302 l 1
 350 302 l 1
 350 316 l 1
 350 332 l 1
 295 332 l 1
 240 332 l 1
 240 356 l 2
 240 376 241 382 249 382 c 0
 264 382 301 402 319 418 c 0
 359 456 371 524 347 576 c 2
 335 602 l 1
 367 602 l 1
 400 602 l 1
 400 616 l 2
 400 631 400 632 370 632 c 2
 341 632 l 1xb8
 339 680 l 1
 337 729 l 1
 227 730 l 2
 167 730 115 730 113 728 c 0xd8
309 590 m 0
 327 570 335 548 335 516 c 0
 335 451 290 406 225 406 c 0
 160 406 115 451 115 516 c 0
 115 548 123 570 141 590 c 0
 151 600 155 602 225 602 c 0xd8
 295 602 299 600 309 590 c 0
210 259 m 1
 210 216 l 1
 163 140 l 1
 115 64 l 1
 115 183 l 1
 115 302 l 1
 163 302 l 1
 210 302 l 1
 210 259 l 1
EndSplineSet
EndChar
StartChar: l
Encoding: 108 108 11
Width: 475
VWidth: 0
Flags: W
HStem: 308 38<298 310> 320 26<60 123 247 298> 344 26<330.87 389.446> 644 25<133.588 235.043>
VStem: 92 24<695.423 756.59> 172 26<235 247> 397 25<33 316>
LayerCount: 2
Fore
SplineSet
98 761 m 0x5e
 98 762 120 755 121 754 c 0
 121 754 119 745 116 736 c 0
 109 714 106 704 106 695 c 0
 106 685 110 678 120 666 c 2
 127 658 l 1
 131 659 l 2
 138 662 144 665 154 667 c 0
 162 669 166 669 185 669 c 0
 204 669 207 669 215 667 c 0
 225 665 232 662 239 659 c 2
 242 658 l 1
 250 666 l 2
 260 678 263 685 263 695 c 0
 263 704 261 714 254 736 c 0
 251 745 249 754 249 754 c 0
 250 755 272 762 272 761 c 0
 273 759 284 724 286 715 c 0
 292 689 288 672 271 652 c 2
 264 645 l 1
 270 641 l 2
 278 635 292 619 298 611 c 0
 309 595 316 576 320 558 c 0
 322 546 322 519 320 507 c 0
 315 480 302 456 284 437 c 0
 267 420 251 411 227 402 c 1
 224 401 l 1
 228 396 l 1
 236 386 244 365 246 351 c 2
 247 346 l 1
 278 346 l 1x5e
 310 346 l 1x9e
 317 353 l 2
 329 365 343 370 360 370 c 0
 365 370 371 369 375 368 c 0
 395 363 412 347 419 327 c 1
 422 319 l 1
 422 176 l 1
 422 33 l 1
 410 33 l 1
 397 33 l 1
 397 175 l 1
 397 316 l 1
 395 322 l 2
 392 330 385 337 377 341 c 0
 371 344 371 344 360 344 c 0x3e
 349 344 349 344 343 341 c 0
 332 335 324 325 323 313 c 2
 322 308 l 1
 310 308 l 1
 297 308 l 1x9e
 298 314 l 1
 298 320 l 1
 272 320 l 1
 247 320 l 1
 246 314 l 2
 242 285 224 258 203 249 c 1
 198 247 l 1
 198 241 l 1
 198 235 l 1
 259 137 l 2
 293 83 320 39 320 39 c 0
 318 38 301 27 300 27 c 0
 300 27 273 68 242 118 c 0
 211 168 185 209 185 209 c 0
 185 209 159 168 128 118 c 0
 97 68 70 27 70 27 c 0
 69 27 52 38 50 39 c 0
 50 39 77 83 111 137 c 2
 172 235 l 1
 172 241 l 1
 172 247 l 1
 168 249 l 1
 160 252 150 259 144 266 c 0
 134 278 126 298 124 314 c 2
 123 320 l 1
 91 320 l 1
 60 320 l 1
 60 333 l 1
 60 345 l 1
 91 346 l 1
 123 346 l 1
 124 352 l 2
 126 366 134 385 141 395 c 0
 143 398 144 399 144 400 c 0
 144 400 140 403 135 405 c 0
 93 421 60 459 50 505 c 0
 47 520 47 545 50 560 c 0
 54 578 62 596 72 611 c 0
 78 620 92 635 100 641 c 2
 105 645 l 1
 99 652 l 2
 77 677 76 695 92 743 c 0
 95 753 98 761 98 761 c 0x5e
213 642 m 0
 207 644 202 644 188 644 c 0
 170 644 164 644 153 641 c 0
 142 638 136 635 131 629 c 1
 127 624 126 624 124 625 c 0
 123 626 122 626 115 621 c 0
 62 579 58 501 106 453 c 0
 121 439 136 429 156 424 c 0
 165 421 167 421 185 421 c 0
 203 421 205 421 214 424 c 0
 233 429 249 439 263 453 c 0
 273 463 279 471 285 482 c 0
 309 530 296 587 254 621 c 0
 247 626 246 626 245 625 c 0
 243 624 243 624 238 629 c 0
 232 635 227 638 213 642 c 0
195 393 m 0
 189 396 181 396 175 393 c 0
 165 388 154 372 150 356 c 0
 147 345 147 321 150 309 c 1
 153 298 159 288 165 281 c 0
 172 273 177 271 185 271 c 0
 193 271 198 273 205 281 c 1
 211 288 217 297 220 309 c 1
 223 320 223 344 220 356 c 1
 216 372 205 388 195 393 c 0
EndSplineSet
EndChar
StartChar: m
Encoding: 109 109 12
Width: 501
VWidth: 0
Flags: W
HStem: 307 30<283 324.987> 607 128<134.129 316.713> 607 30<370 399.999>
LayerCount: 2
Fore
SplineSet
113 733 m 0xc0
 111 731 110 709 110 683 c 2
 110 637 l 1
 80 637 l 1
 50 637 l 1
 50 621 l 1
 50 607 l 1
 83 607 l 1
 115 607 l 1
 103 581 l 2
 75 520 91 457 157 381 c 1
 195 337 l 1
 148 337 l 1
 100 337 l 1
 100 321 l 1
 100 307 l 1
 155 307 l 1
 210 307 l 1
 210 264 l 1
 210 221 l 1
 150 125 l 2
 96 37 91 29 99 23 c 0
 103 19 107 17 109 17 c 0
 111 17 137 57 167 107 c 0
 197 157 223 196 225 196 c 0
 227 196 253 157 283 107 c 0
 313 57 339 17 341 17 c 0
 343 17 347 19 351 23 c 0
 359 29 354 37 300 125 c 2
 240 221 l 1
 240 264 l 1
 240 307 l 1
 283 307 l 2
 307 307 325 305 325 303 c 0
 325 301 322 297 319 291 c 0
 315 282 315 279 323 273 c 0
 336 263 337 263 350 291 c 0
 356 305 362 317 364 317 c 0
 366 317 378 309 393 301 c 1
 419 286 l 1
 425 297 l 2
 428 303 430 308 429 309 c 0
 428 309 415 318 401 326 c 2
 375 342 l 1
 418 428 l 1
 458 508 460 514 452 520 c 0
 447 524 442 527 440 527 c 0
 438 527 418 488 395 441 c 0
 372 395 351 357 351 357 c 0
 350 357 341 362 329 369 c 0
 309 381 307 382 301 373 c 0
 292 361 293 360 314 348 c 2
 333 337 l 1
 293 337 l 1
 255 337 l 1
 293 381 l 1
 359 457 375 520 347 581 c 2
 335 607 l 1
 367 607 l 1
 400 607 l 1
 400 621 l 2
 400 636 400 637 370 637 c 2
 341 637 l 1xa0
 339 685 l 1
 337 734 l 1
 227 735 l 2
 167 735 115 735 113 733 c 0xc0
309 595 m 0
 327 575 335 553 335 521 c 0
 335 489 327 468 309 448 c 0
 299 437 295 437 225 437 c 0
 144 437 142 437 123 475 c 0
 106 509 114 565 141 595 c 0
 151 605 155 607 225 607 c 0xc0
 295 607 299 605 309 595 c 0
EndSplineSet
EndChar
StartChar: n
Encoding: 110 110 13
Width: 450
VWidth: 0
Flags: W
HStem: 616 129<135.129 316.778> 616 30<370 400>
VStem: 210 40<312.615 330>
LayerCount: 2
Fore
SplineSet
114 743 m 0xa0
 112 741 110 719 110 693 c 2
 110 646 l 1
 80 646 l 1
 50 646 l 1
 50 631 l 1
 50 616 l 1
 83 616 l 1
 115 616 l 1
 103 590 l 2
 94 570 90 555 90 532 c 0
 90 484 108 447 164 383 c 2
 210 330 l 1
 210 280 l 1
 210 231 l 1
 150 135 l 2
 96 47 91 39 99 33 c 0
 103 29 108 26 110 26 c 0
 112 26 138 66 168 116 c 0
 198 166 224 206 226 206 c 0
 228 206 253 166 283 116 c 0
 313 66 339 26 341 26 c 0
 343 26 348 29 352 33 c 0
 360 39 354 47 300 135 c 2
 240 232 l 1
 242 267 l 1
 243 301 l 1
 293 261 l 2
 338 225 344 222 350 230 c 0
 353 234 356 239 356 241 c 0
 356 243 332 262 303 285 c 0
 274 308 250 329 250 331 c 0
 250 333 273 353 300 374 c 1
 326 396 350 414 352 416 c 0
 358 421 346 443 340 439 c 1
 332 434 335 444 348 472 c 0
 365 508 365 554 348 590 c 2
 336 616 l 1
 368 616 l 1
 400 616 l 1
 400 631 l 2
 400 646 400 646 370 646 c 2
 341 646 l 1x60
 340 695 l 1
 338 744 l 1
 228 745 l 2
 168 745 116 745 114 743 c 0xa0
309 605 m 0
 345 565 345 498 309 458 c 0
 299 447 296 446 226 446 c 0
 145 446 143 447 124 485 c 0
 107 519 115 575 142 605 c 0
 152 615 156 616 226 616 c 0xa0
 296 616 299 615 309 605 c 0
EndSplineSet
EndChar
StartChar: o
Encoding: 111 111 25
Width: 852
VWidth: 0
Flags: W
HStem: 121 20<546.725 632.91> 140 20<50 237> 300 20<720 757> 319 21<594 633.302> 360 20<680 700> 434 20G<660 680>
VStem: 261 23<283.094 287.237> 660 20<380 405> 700 20<320 360>
LayerCount: 2
Fore
SplineSet
621 395 m 1x5f80
 680 454 l 1
 680 417 l 1
 680 380 l 1
 700 380 l 1
 720 380 l 1
 720 350 l 1
 720 320 l 1
 761 320 l 2
 783 320 802 320 802 320 c 0
 802 319 711 218 701 207 c 0
 698 204 696 202 694 196 c 0
 689 180 681 165 669 153 c 0
 654 138 636 128 615 123 c 0
 607 121 606 121 590 121 c 0xaf80
 575 121 573 121 566 123 c 0
 556 125 543 130 536 134 c 0
 533 136 530 137 530 137 c 1
 530 137 523 131 515 124 c 0
 503 113 501 112 502 111 c 0
 504 108 558 36 558 36 c 0
 558 36 554 33 550 30 c 0
 544 25 542 24 541 25 c 0
 540 26 528 42 513 62 c 0
 498 82 486 99 486 99 c 0
 486 99 482 97 479 94 c 0
 455 74 434 61 418 55 c 0
 386 43 357 51 315 83 c 0
 307 89 307 89 304 89 c 2
 300 89 l 1
 300 92 l 2
 300 95 299 96 281 111 c 0
 271 119 259 129 254 133 c 2
 246 140 l 1
 148 140 l 1
 50 140 l 1
 50 150 l 1
 50 160 l 1
 144 160 l 1
 237 161 l 1
 219 244 l 2
 209 290 201 328 201 328 c 0
 202 329 220 332 220 332 c 0
 220 332 223 319 226 304 c 1
 229 289 232 277 232 276 c 1
 232 275 233 275 234 276 c 2
 236 278 l 1
 239 276 l 1
 242 274 l 1
 250 280 l 1
 258 286 l 1
 260 284 l 1
 262 281 l 1
 262 283 l 2
 261 285 261 287 261 287 c 0
 261 287 266 288 271 290 c 0
 281 293 280 294 284 281 c 0
 286 276 287 272 287 272 c 0
 287 272 287 276 288 281 c 0
 289 286 290 291 290 291 c 0
 290 291 294 291 298 290 c 1
 310 288 310 289 309 285 c 0
 307 274 307 274 315 285 c 2
 322 296 l 1
 330 290 l 1
 338 284 l 1
 319 256 l 1
 300 227 l 1
 309 167 l 2
 317 107 318 107 320 105 c 0
 321 104 326 100 332 96 c 0
 350 83 364 75 376 72 c 0
 384 70 397 70 405 72 c 0
 420 76 438 88 465 109 c 2
 474 115 l 1
 448 149 l 2
 434 168 422 184 422 184 c 0
 422 184 437 196 438 196 c 0
 438 196 449 181 462 163 c 0
 475 145 487 131 488 130 c 0
 489 129 490 129 499 137 c 0
 505 142 511 147 512 148 c 2
 515 150 l 1
 509 156 l 2
 496 170 486 188 482 208 c 0
 480 220 480 240 482 252 c 0
 488 279 503 302 525 319 c 0
 533 325 547 332 556 335 c 2
 562 336 l 1
 621 395 l 1x5f80
680 360 m 1
 660 360 l 1
 660 383 l 1
 660 405 l 1
 627 372 l 1
 594 340 l 1
 598 340 l 2
 614 340 640 331 655 319 c 0x1f80
 664 312 676 300 681 292 c 0
 690 279 696 261 698 247 c 0
 698 243 700 239 700 238 c 0
 700 237 704 241 728 268 c 0
 743 285 757 300 757 300 c 0
 757 300 746 300 728 300 c 2
 700 300 l 1
 700 330 l 1
 700 360 l 1
 680 360 l 1
605 319 m 1
 598 320 580 319 573 318 c 0
 560 316 547 310 536 302 c 0
 492 269 488 204 527 166 c 0
 539 154 551 147 567 143 c 0
 574 141 576 141 590 141 c 0x9f80
 604 141 606 141 613 143 c 0
 629 147 642 155 653 166 c 0
 661 174 665 181 670 190 c 0
 690 229 679 276 644 302 c 0
 633 310 618 317 605 319 c 1
259 239 m 0
 248 247 238 252 238 252 c 0
 238 252 238 252 238 251 c 0
 238 250 242 228 248 203 c 0
 254 178 259 157 259 156 c 0
 259 155 268 148 277 140 c 0x4f80
 291 128 294 126 294 127 c 0
 294 129 281 223 280 224 c 1
 280 224 270 231 259 239 c 0
EndSplineSet
EndChar
StartChar: p
Encoding: 112 112 14
Width: 502
VWidth: 0
Flags: W
HStem: 312 30<177.013 219> 392 24<225.052 261.393 292.421 328.948> 612 128<186.129 368.713> 612 30<422 451.999>
VStem: 262 30<366 392.686>
LayerCount: 2
Fore
SplineSet
165 738 m 0xe8
 163 736 162 714 162 688 c 2
 162 642 l 1
 132 642 l 1
 102 642 l 1
 102 626 l 1
 102 612 l 1
 135 612 l 1
 167 612 l 1
 155 586 l 2
 131 534 143 466 183 428 c 0
 201 412 237 392 253 392 c 0
 260 392 262 386 262 366 c 2
 262 342 l 1
 216 342 l 1
 169 342 l 1
 188 353 l 2
 209 365 210 366 201 378 c 0
 195 387 193 386 173 374 c 0
 161 367 152 362 151 362 c 0
 151 362 130 400 107 446 c 0
 84 493 64 532 62 532 c 0
 60 532 55 529 50 525 c 0
 42 519 44 513 84 433 c 1
 127 347 l 1
 101 331 l 2
 87 323 74 314 73 314 c 0
 72 313 74 308 77 302 c 2
 83 291 l 1
 109 306 l 1
 124 314 136 322 138 322 c 0
 140 322 146 310 152 296 c 0
 165 268 166 268 179 278 c 0
 187 284 187 287 183 296 c 0
 180 302 177 306 177 308 c 0
 177 310 195 312 219 312 c 2
 262 312 l 1
 262 269 l 1
 262 226 l 1
 202 130 l 2
 148 42 143 34 151 28 c 0
 155 24 159 22 161 22 c 0
 163 22 189 62 219 112 c 0
 249 162 275 201 277 201 c 0
 279 201 305 162 335 112 c 0
 365 62 391 22 393 22 c 0
 395 22 399 24 403 28 c 0
 411 34 406 42 352 130 c 2
 292 226 l 1
 292 269 l 1
 292 312 l 1
 347 312 l 1
 402 312 l 1
 402 326 l 1
 402 342 l 1
 347 342 l 1
 292 342 l 1
 292 366 l 2
 292 386 293 392 301 392 c 0
 316 392 353 412 371 428 c 0
 411 466 423 534 399 586 c 2
 387 612 l 1
 419 612 l 1
 452 612 l 1
 452 626 l 2
 452 641 452 642 422 642 c 2
 393 642 l 1xd8
 391 690 l 1
 389 739 l 1
 279 740 l 2
 219 740 167 740 165 738 c 0xe8
361 600 m 0
 379 580 387 558 387 526 c 0
 387 461 342 416 277 416 c 0
 212 416 167 461 167 526 c 0
 167 558 175 580 193 600 c 0
 203 610 207 612 277 612 c 0xe8
 347 612 351 610 361 600 c 0
EndSplineSet
EndChar
StartChar: q
Encoding: 113 113 15
Width: 492
VWidth: 0
Flags: W
HStem: 312 30<159.646 202> 392 24<216.052 252.436 283.421 319.948> 612 128<177.129 358.778> 612 30<413 442.999>
VStem: 253 30<366 391.996>
LayerCount: 2
Fore
SplineSet
156 738 m 0xe8
 154 736 153 714 153 688 c 2
 153 642 l 1
 123 642 l 1
 93 642 l 1
 93 626 l 1
 93 612 l 1
 125 612 l 1
 157 612 l 1
 145 586 l 2
 123 540 132 475 162 440 c 0
 166 434 168 431 165 433 c 0
 162 435 135 412 105 382 c 2
 50 326 l 1
 85 292 l 2
 104 273 120 258 122 260 c 0
 124 262 129 273 133 286 c 2
 141 309 l 1
 197 310 l 1
 253 312 l 1
 253 269 l 1
 253 226 l 1
 193 130 l 2
 139 42 133 34 141 28 c 0
 145 24 150 22 152 22 c 0
 154 22 180 62 210 112 c 0
 240 162 266 201 268 201 c 0
 270 201 295 162 325 112 c 0
 355 62 381 22 383 22 c 0
 385 22 390 24 394 28 c 0
 402 34 397 42 343 130 c 2
 283 226 l 1
 283 269 l 1
 283 312 l 1
 338 312 l 1
 393 312 l 1
 393 326 l 1
 393 342 l 1
 338 342 l 1
 283 342 l 1
 283 366 l 2
 283 386 284 392 292 392 c 0
 307 392 344 412 362 428 c 0
 402 466 414 534 390 586 c 2
 378 612 l 1
 410 612 l 1
 443 612 l 1
 443 626 l 2
 443 641 443 642 413 642 c 2
 383 642 l 1xd8
 382 690 l 1
 380 739 l 1
 270 740 l 2
 210 740 158 740 156 738 c 0xe8
351 600 m 0
 369 580 378 558 378 526 c 0
 378 461 333 416 268 416 c 0
 203 416 158 461 158 526 c 0
 158 558 166 580 184 600 c 0
 194 610 198 612 268 612 c 0xe8
 338 612 341 610 351 600 c 0
243 392 m 0
 251 392 253 387 253 366 c 2
 253 342 l 1
 202 342 l 2
 164 342 152 343 154 348 c 1
 156 351 161 369 167 387 c 2
 178 420 l 1
 206 406 l 2
 222 398 238 392 243 392 c 0
127 341 m 1
 121 323 115 307 113 305 c 1
 111 303 104 307 98 314 c 2
 86 326 l 1
 110 352 l 2
 124 366 135 375 136 375 c 1
 136 374 133 359 127 341 c 1
EndSplineSet
EndChar
StartChar: r
Encoding: 114 114 16
Width: 370
VWidth: 0
Flags: W
HStem: 21 21G<69 82.7473 287.253 301> 390 25<132.992 173 197 236.275> 638 27<129 239.446>
VStem: 173 24<230 301 353 390>
LayerCount: 2
Fore
SplineSet
163 763 m 0
 164 763 174 764 184 764 c 0
 212 764 232 760 253 752 c 0
 266 747 273 743 282 734 c 0
 299 718 302 701 292 682 c 0
 286 672 270 658 254 652 c 2
 248 650 l 1
 255 645 l 2
 288 625 312 591 320 552 c 0
 322 540 322 514 320 502 c 0
 308 443 261 398 202 390 c 1
 197 390 l 1
 197 371 l 1
 197 353 l 1
 250 395 l 1
 302 437 l 1
 309 428 l 2
 313 423 317 419 317 418 c 0
 317 417 301 404 262 372 c 0
 231 347 206 327 206 327 c 0
 206 327 231 306 262 281 c 0
 312 241 317 237 316 235 c 0
 315 234 313 229 309 225 c 2
 302 217 l 1
 250 259 l 1
 197 301 l 1
 197 266 l 1
 197 230 l 1
 259 133 l 1
 293 79 320 34 320 34 c 0
 320 33 302 22 300 21 c 0
 300 21 273 62 242 112 c 0
 211 162 185 203 185 203 c 0
 185 203 159 162 128 112 c 0
 97 62 70 21 70 21 c 0
 68 22 50 33 50 34 c 0
 50 34 77 79 111 133 c 1
 173 230 l 1
 173 310 l 1
 173 390 l 1
 168 390 l 1
 158 391 145 395 135 399 c 0
 92 416 60 453 50 499 c 0
 47 514 47 540 50 555 c 0
 58 593 82 625 115 645 c 1
 122 650 l 1
 116 652 l 2
 106 656 94 664 87 671 c 0
 61 697 71 731 112 750 c 0
 126 756 138 759 163 763 c 0
220 736 m 0
 208 739 171 739 158 737 c 0
 123 731 97 717 97 702 c 0
 97 692 113 679 134 672 c 0
 150 667 160 665 185 665 c 0
 210 665 220 667 236 672 c 1
 257 679 273 692 273 702 c 0
 273 716 251 729 220 736 c 0
203 638 m 1
 194 639 173 639 164 637 c 0
 148 634 130 627 117 617 c 0
 62 576 57 495 106 447 c 0
 121 433 136 423 156 418 c 0
 165 415 167 415 185 415 c 0
 203 415 205 415 214 418 c 0
 233 423 250 433 264 447 c 0
 282 465 292 486 296 510 c 1
 305 571 263 628 203 638 c 1
EndSplineSet
EndChar
StartChar: s
Encoding: 115 115 17
Width: 414
VWidth: 0
Flags: W
HStem: 448 29<146.666 193 221 266.981> 482 20G<63 95.898>
VStem: 193 28<263 344 405 448>
LayerCount: 2
Fore
SplineSet
180 764 m 0
 192 766 221 766 233 764 c 0
 268 758 297 743 322 717 c 0
 343 695 358 667 364 636 c 0
 367 622 367 591 364 577 c 0
 350 509 296 458 227 448 c 1
 221 448 l 1
 221 355 l 1
 221 263 l 1
 293 149 l 1
 332 86 364 35 364 35 c 0
 364 34 342 21 340 20 c 0
 339 20 309 67 273 125 c 0
 237 183 207 231 207 231 c 0
 207 231 177 183 141 125 c 0
 105 67 75 20 74 20 c 0
 72 21 50 34 50 35 c 0
 50 35 82 86 121 149 c 1
 193 263 l 1
 193 304 l 1
 193 344 l 1
 132 296 l 1
 71 247 l 1
 64 257 l 2
 60 262 56 267 55 268 c 0
 54 270 60 275 118 322 c 0
 154 350 183 375 183 375 c 0
 183 375 154 399 118 427 c 0
 72 464 53 480 54 481 c 0
 54 482 59 486 63 492 c 2
 71 502 l 1
 132 453 l 1
 193 405 l 1
 193 426 l 1
 193 448 l 1
 187 448 l 1
 176 450 160 454 149 458 c 0
 99 477 62 521 51 574 c 0
 47 591 47 622 51 639 c 0
 61 687 92 728 136 749 c 0
 150 756 165 761 180 764 c 0
228 735 m 1
 218 737 193 737 183 735 c 0
 165 732 145 723 129 711 c 0
 66 663 59 570 115 514 c 0
 132 497 150 487 173 481 c 0
 184 478 186 477 207 477 c 0
 228 477 230 478 241 481 c 0
 264 487 282 498 298 514 c 0
 319 535 332 559 336 587 c 1
 347 657 297 724 228 735 c 1
EndSplineSet
EndChar
StartChar: t
Encoding: 116 116 18
Width: 450
VWidth: 0
Flags: W
HStem: 387 24<173.052 209.734 241.746 276.948> 607 128<134.129 316.713> 607 30<370 399.999>
VStem: 200 40<302.615 339.385>
LayerCount: 2
Fore
SplineSet
113 733 m 0xd0
 111 731 110 709 110 683 c 2
 110 637 l 1
 80 637 l 1
 50 637 l 1
 50 621 l 1
 50 607 l 1
 83 607 l 1
 115 607 l 1
 103 581 l 2
 79 529 91 461 131 423 c 0
 149 407 185 387 201 387 c 0
 207 387 210 383 210 369 c 0
 210 359 208 352 206 353 c 1
 204 355 181 372 155 393 c 0
 113 427 107 431 101 423 c 0
 97 419 95 414 95 412 c 0
 95 410 118 390 147 367 c 0
 176 344 200 323 200 321 c 0
 200 319 176 298 147 275 c 0
 118 252 95 233 95 231 c 0
 95 229 97 224 101 220 c 0
 107 212 112 215 157 251 c 2
 207 291 l 1
 209 257 l 1
 211 222 l 1
 150 125 l 2
 96 37 91 29 99 23 c 0
 103 19 107 17 109 17 c 0
 111 17 137 57 167 107 c 0
 197 157 223 196 225 196 c 0
 227 196 253 157 283 107 c 0
 313 57 339 17 341 17 c 0
 343 17 347 19 351 23 c 0
 359 29 354 37 300 125 c 2
 240 221 l 1
 240 304 l 2
 240 379 241 387 249 387 c 0
 264 387 301 407 319 423 c 0
 359 461 371 529 347 581 c 2
 335 607 l 1
 367 607 l 1
 400 607 l 1
 400 621 l 2
 400 636 400 637 370 637 c 2
 341 637 l 1xb0
 339 685 l 1
 337 734 l 1
 227 735 l 2
 167 735 115 735 113 733 c 0xd0
309 595 m 0
 327 575 335 553 335 521 c 0
 335 456 290 411 225 411 c 0
 160 411 115 456 115 521 c 0
 115 553 123 575 141 595 c 0
 151 605 155 607 225 607 c 0xd0
 295 607 299 605 309 595 c 0
EndSplineSet
EndChar
StartChar: u
Encoding: 117 117 26
Width: 803
VWidth: 0
Flags: W
HStem: 106 20<546.725 632.42> 125 20<50 237> 349 20G<609.091 651.964>
VStem: 261 23<268.094 272.237>
LayerCount: 2
Fore
SplineSet
607 347 m 2x70
 619 359 630 369 630 369 c 0
 630 369 748 261 753 257 c 0
 754 256 750 251 730 227 c 0
 717 211 706 198 705 197 c 0
 704 196 704 195 720 179 c 2
 737 162 l 1
 730 155 l 1
 723 148 l 1
 708 162 l 2
 699 171 693 177 693 176 c 0
 693 175 690 171 688 166 c 0
 674 137 647 116 615 108 c 0
 607 106 606 106 590 106 c 0xb0
 575 106 573 106 566 108 c 0
 556 110 543 115 536 119 c 0
 533 121 530 122 530 122 c 1
 530 122 523 116 515 109 c 0
 503 98 501 97 502 96 c 0
 504 93 558 21 558 21 c 0
 558 21 554 18 550 15 c 0
 544 10 542 9 541 10 c 0
 540 11 528 27 513 47 c 0
 498 67 486 84 486 84 c 0
 486 84 482 82 479 79 c 0
 455 59 434 46 418 40 c 0
 386 28 357 36 315 68 c 0
 307 74 307 74 304 74 c 2
 300 74 l 1
 300 77 l 2
 300 80 299 81 281 96 c 0
 271 104 259 114 254 118 c 2
 246 125 l 1
 148 125 l 1
 50 125 l 1
 50 135 l 1
 50 145 l 1
 144 145 l 1
 237 146 l 1
 219 229 l 2
 209 275 201 313 201 313 c 0
 202 314 220 317 220 317 c 0
 220 317 223 304 226 289 c 1
 229 274 232 262 232 261 c 1
 232 260 233 260 234 261 c 2
 236 263 l 1
 239 261 l 1
 242 259 l 1
 250 265 l 1
 258 271 l 1
 260 269 l 1
 262 266 l 1
 262 268 l 2
 261 270 261 272 261 272 c 0
 261 272 266 273 271 275 c 0
 281 278 280 279 284 266 c 0
 286 261 287 257 287 257 c 0
 287 257 287 261 288 266 c 0
 289 271 290 276 290 276 c 0
 290 276 294 276 298 275 c 1
 310 273 310 274 309 270 c 0
 307 259 308 259 315 270 c 2
 322 281 l 1
 330 275 l 1
 338 269 l 1
 319 241 l 1
 300 212 l 1
 309 152 l 2
 317 92 318 92 320 90 c 0
 321 89 326 85 332 81 c 0
 350 68 364 60 376 57 c 0
 384 55 397 55 405 57 c 0
 420 61 438 73 465 94 c 2
 474 100 l 1
 448 134 l 2
 434 153 422 169 422 169 c 0
 422 169 437 181 438 181 c 0
 438 181 449 166 462 148 c 0
 475 130 487 116 488 115 c 0
 489 114 490 114 499 122 c 0
 505 127 511 132 512 133 c 2
 515 135 l 1
 509 141 l 2
 496 155 486 173 482 193 c 0
 480 205 480 225 482 237 c 0
 487 259 497 277 513 293 c 0
 523 303 532 310 544 315 c 1
 552 319 l 1
 537 333 l 1
 523 348 l 1
 530 355 l 1
 537 362 l 1
 556 343 l 1
 576 324 l 1
 580 324 l 1
 585 325 l 1
 607 347 l 2x70
623 248 m 2
 593 278 568 302 568 302 c 0
 568 302 564 301 560 300 c 0
 536 292 517 273 507 249 c 0
 493 215 501 177 527 151 c 0
 539 139 551 132 567 128 c 0
 574 126 576 126 590 126 c 0
 604 126 606 126 613 128 c 0
 629 132 642 140 653 151 c 0
 664 162 670 173 675 187 c 1
 678 193 l 1
 623 248 l 2
259 224 m 0
 248 232 238 237 238 237 c 0
 238 237 238 237 238 236 c 0
 238 235 242 213 248 188 c 0
 254 163 259 142 259 141 c 0
 259 140 268 133 277 125 c 0x70
 291 113 294 111 294 112 c 0
 294 114 281 208 280 209 c 1
 280 209 270 216 259 224 c 0
EndSplineSet
EndChar
StartChar: v
Encoding: 118 118 19
Width: 562
VWidth: 0
Flags: W
HStem: 360 29<62 193 222 340> 448 29<146.666 193 222 266.981> 690 29<443.033 466.604>
VStem: 193 29<263 360 390 448>
LayerCount: 2
Fore
SplineSet
180 764 m 0
 192 766 221 766 233 764 c 0
 268 758 297 743 322 717 c 0
 343 695 358 667 364 636 c 0
 367 622 367 591 364 577 c 0
 350 509 296 458 227 448 c 1
 222 448 l 1
 222 419 l 1
 222 390 l 1
 284 390 l 2
 318 390 346 390 346 391 c 0
 346 391 357 455 371 532 c 2
 397 672 l 1
 411 687 l 2
 438 713 449 719 461 719 c 0
 479 719 488 706 504 658 c 2
 513 634 l 1
 439 487 l 2
 399 406 365 340 364 340 c 0
 364 340 358 342 351 344 c 0
 341 347 338 349 338 350 c 0
 338 351 339 354 339 356 c 2
 340 360 l 1
 281 360 l 1
 222 360 l 1
 222 311 l 1
 222 263 l 1
 293 149 l 1
 332 86 364 35 364 35 c 0
 364 34 342 21 340 20 c 0
 339 20 309 67 273 125 c 0
 237 183 207 231 207 231 c 0
 207 231 177 183 141 125 c 0
 105 67 75 20 74 20 c 0
 72 21 50 34 50 35 c 0
 50 35 82 86 121 149 c 1
 193 263 l 1
 193 311 l 1
 193 360 l 1
 127 360 l 1
 62 360 l 1
 62 375 l 1
 62 389 l 1
 127 389 l 1
 193 390 l 1
 193 419 l 1
 193 448 l 1
 187 448 l 1
 176 450 160 454 149 458 c 0
 99 477 62 521 51 574 c 0
 47 591 47 622 51 639 c 0
 61 687 92 728 136 749 c 0
 150 756 165 761 180 764 c 0
229 735 m 1
 219 737 193 737 183 735 c 0
 165 732 145 723 129 711 c 0
 66 663 59 570 115 514 c 0
 132 497 151 487 174 481 c 0
 185 478 186 477 207 477 c 0
 228 477 230 478 241 481 c 0
 264 487 282 498 298 514 c 0
 319 535 332 559 336 587 c 1
 347 657 298 724 229 735 c 1
465 681 m 0
 463 686 460 690 460 690 c 0
 458 690 445 678 435 668 c 2
 423 657 l 1
 404 552 l 2
 393 494 385 446 385 446 c 1
 385 445 407 488 433 541 c 2
 481 637 l 1
 475 654 l 2
 472 663 467 676 465 681 c 0
EndSplineSet
EndChar
StartChar: w
Encoding: 119 119 20
Width: 458
VWidth: 0
Flags: W
HStem: 229 19<310.953 315.141> 257 20<300.046 314.333> 449 64G<181.846 208.5 241 261.5 373 395> 701 4G<194 219 270.167 314.361>
VStem: 123 31<447.001 465.35> 164 20<18 201.201>
LayerCount: 2
Fore
SplineSet
265 697 m 2
 281 711 296 721 296 721 c 0
 296 721 321 694 352 660 c 2
 408 598 l 1
 386 576 l 1
 365 554 l 1
 364 549 l 1
 364 544 l 1
 383 525 l 1
 402 506 l 1
 395 499 l 1
 388 492 l 1
 373 506 l 1
 358 521 l 1
 355 513 l 2
 342 485 319 464 289 454 c 0
 277 450 268 449 255 449 c 0
 227 449 201 459 181 477 c 0
 178 480 175 482 175 482 c 0
 174 482 154 458 154 457 c 1
 154 457 169 446 187 432 c 0
 205 418 220 406 220 406 c 1
 220 405 209 391 208 391 c 0
 208 391 193 403 174 417 c 2
 140 442 l 1
 138 440 l 2
 126 426 113 406 106 394 c 0
 92 369 92 349 106 323 c 0
 111 314 120 299 127 291 c 2
 131 286 l 1
 192 277 l 1
 252 269 l 1
 280 287 l 2
 295 297 307 306 308 306 c 0
 309 306 311 303 315 298 c 2
 320 290 l 1
 310 283 l 2
 304 279 300 276 300 276 c 0
 300 276 303 276 307 277 c 2
 313 278 l 1
 315 268 l 2
 316 263 316 259 316 259 c 0
 316 259 312 258 307 257 c 0
 302 256 298 255 298 255 c 0
 298 255 302 253 308 251 c 2
 318 248 l 1
 315 238 l 2
 312 230 311 229 310 229 c 0
 306 231 305 230 308 228 c 2
 311 226 l 1
 305 218 l 2
 302 214 299 210 299 210 c 0
 299 210 300 209 301 207 c 0
 302 205 303 204 303 204 c 0
 303 204 302 203 301 202 c 0
 299 201 301 201 327 195 c 0
 342 192 356 188 356 188 c 0
 357 187 353 170 352 169 c 0
 352 169 315 177 269 187 c 0
 223 197 185 206 185 206 c 0
 184 206 184 174 184 112 c 2
 184 18 l 1
 174 18 l 1
 164 18 l 1
 164 117 l 1
 164 215 l 1
 145 237 l 2
 135 249 126 262 124 264 c 0
 121 268 119 268 115 268 c 0
 113 268 114 268 114 271 c 0
 115 274 114 275 107 285 c 0
 85 315 75 337 75 358 c 0
 75 382 86 407 118 447 c 0
 121 451 123 454 123 454 c 0
 123 454 106 467 86 482 c 0
 66 497 50 510 50 511 c 0
 50 513 61 527 62 526 c 0
 68 522 137 470 137 470 c 0
 137 470 142 476 148 483 c 1
 154 490 160 496 161 497 c 0
 163 499 162 499 159 504 c 0
 148 522 143 547 145 568 c 0
 149 608 171 639 207 657 c 2
 217 662 l 1
 202 677 l 1
 188 692 l 1
 194 698 l 2
 198 702 202 705 202 705 c 0
 202 705 210 697 219 688 c 2
 235 672 l 1
 265 697 l 2
288 591 m 2
 258 621 233 646 232 646 c 0
 231 646 229 645 226 644 c 0
 181 628 156 581 168 535 c 0
 176 504 201 480 231 472 c 0
 252 466 274 468 293 477 c 0
 315 487 334 509 341 532 c 1
 342 537 l 1
 288 591 l 2
200 256 m 0
 175 260 154 263 152 263 c 2
 150 263 l 1
 151 261 l 2
 152 260 159 252 166 243 c 2
 180 227 l 1
 228 217 l 2
 255 211 277 206 277 206 c 0
 277 206 271 216 263 228 c 0
 254 242 248 249 247 249 c 0
 246 249 225 252 200 256 c 0
EndSplineSet
EndChar
StartChar: x
Encoding: 120 120 21
Width: 510
VWidth: 0
Flags: W
HStem: 355 30<169 288 317 448> 443 29<242.406 288 317 362.981> 476 20G<156 180>
VStem: 288 29<258 355 385 443>
LayerCount: 2
Fore
SplineSet
276 759 m 0
 288 761 317 761 329 759 c 0
 364 753 393 738 418 712 c 0
 439 690 454 662 460 631 c 0
 463 617 463 586 460 572 c 0
 446 504 392 453 323 443 c 1
 317 443 l 1
 317 414 l 1
 317 385 l 1
 383 384 l 1
 448 384 l 1
 448 370 l 1
 448 355 l 1
 383 355 l 1
 317 355 l 1
 317 306 l 1
 317 258 l 1
 388 144 l 1
 427 81 460 30 460 30 c 0
 460 29 438 16 436 15 c 0
 435 15 405 62 369 120 c 0
 333 178 303 226 303 226 c 0
 303 226 273 178 237 120 c 0
 201 62 170 15 169 15 c 0
 167 16 146 29 146 30 c 0
 146 30 178 81 217 144 c 1
 288 258 l 1
 288 306 l 1
 288 355 l 1
 224 355 l 1
 159 355 l 1
 147 321 l 2
 141 302 135 286 135 286 c 0
 135 286 115 304 92 327 c 2
 50 370 l 1
 113 433 l 1
 176 496 l 1
 180 494 l 1
 193 486 193 486 186 493 c 0
 167 513 153 540 147 569 c 0
 143 586 143 617 147 634 c 0
 157 682 188 723 232 744 c 0
 246 751 261 756 276 759 c 0
324 730 m 1
 314 732 288 732 278 730 c 0
 260 727 240 718 224 706 c 0
 161 658 155 565 211 509 c 0
 228 492 246 482 269 476 c 0
 280 473 282 472 303 472 c 0
 324 472 325 473 336 476 c 0
 359 482 378 493 394 509 c 0
 415 530 428 554 432 582 c 1
 443 652 393 719 324 730 c 1
206 475 m 0
 201 479 201 479 200 477 c 0
 199 474 169 385 169 385 c 0
 169 385 196 385 229 385 c 2
 288 385 l 1
 288 414 l 1
 288 443 l 1
 283 443 l 1
 256 447 224 460 206 475 c 0
138 385 m 1
 146 409 152 429 152 429 c 0
 152 429 138 416 122 400 c 2
 92 370 l 1
 107 355 l 2
 115 347 123 340 123 340 c 0
 123 340 130 361 138 385 c 1
EndSplineSet
EndChar
StartChar: y
Encoding: 121 121 27
Width: 803
VWidth: 0
Flags: W
HStem: 111 20<546.725 632.42> 130 20<50 237> 354 20G<609.091 651.964>
VStem: 366 20<80.5618 177>
LayerCount: 2
Fore
SplineSet
607 352 m 2x70
 619 364 630 374 630 374 c 0
 630 374 748 266 753 262 c 0
 754 261 750 256 730 232 c 0
 717 216 706 203 705 202 c 0
 704 201 704 200 720 184 c 2
 737 167 l 1
 730 160 l 1
 723 153 l 1
 708 167 l 2
 699 176 693 182 693 181 c 0
 693 180 690 176 688 171 c 0
 674 142 647 121 615 113 c 0
 607 111 606 111 590 111 c 0xb0
 575 111 573 111 566 113 c 0
 556 115 543 120 536 124 c 0
 533 126 530 127 530 127 c 1
 530 127 523 121 515 114 c 0
 503 103 501 102 502 101 c 0
 504 98 558 26 558 26 c 0
 558 26 554 23 550 20 c 0
 544 15 542 14 541 15 c 0
 540 16 528 32 513 52 c 0
 498 72 486 89 486 89 c 0
 486 89 482 87 479 84 c 0
 450 60 426 46 407 42 c 0
 400 40 381 39 380 40 c 0
 380 40 378 41 375 42 c 0
 368 43 355 47 347 52 c 0
 328 62 306 79 265 114 c 2
 246 130 l 1
 148 130 l 1
 50 130 l 1
 50 140 l 1
 50 150 l 1
 144 150 l 1
 237 151 l 1
 219 234 l 2
 209 280 201 318 201 318 c 0
 202 319 220 322 220 322 c 0
 220 322 229 281 240 233 c 1
 256 162 260 145 261 144 c 0
 262 143 272 134 284 124 c 0
 329 86 352 71 371 64 c 0
 374 63 377 62 377 62 c 0
 377 62 366 176 366 177 c 0
 366 177 358 176 349 174 c 1
 340 172 332 171 332 171 c 0
 331 172 329 190 329 190 c 1
 329 190 337 192 347 194 c 0
 357 196 364 199 364 199 c 0
 364 199 363 208 362 219 c 0
 361 230 360 239 360 239 c 0
 380 241 l 1
 380 241 381 232 382 222 c 0
 383 212 384 203 384 203 c 0
 384 203 392 204 401 206 c 0
 410 208 418 209 418 209 c 0
 419 208 422 190 421 190 c 0
 421 190 413 188 403 186 c 0
 387 182 386 182 386 180 c 0
 386 179 389 152 392 120 c 0
 395 88 398 61 398 61 c 0
 399 60 412 64 418 67 c 0
 430 73 445 83 465 99 c 2
 474 105 l 1
 448 139 l 2
 434 158 422 174 422 174 c 0
 422 174 437 186 438 186 c 0
 438 186 449 171 462 153 c 0
 475 135 487 121 488 120 c 0
 489 119 490 119 499 127 c 0
 505 132 511 137 512 138 c 2
 515 140 l 1
 509 146 l 2
 496 160 486 178 482 198 c 0
 480 210 480 230 482 242 c 0
 487 264 497 282 513 298 c 0
 523 308 532 315 544 320 c 1
 552 324 l 1
 537 338 l 1
 523 353 l 1
 530 360 l 1
 537 367 l 1
 556 348 l 1
 576 329 l 1
 580 329 l 1
 585 330 l 1
 607 352 l 2x70
623 253 m 2
 593 283 568 307 568 307 c 0
 568 307 564 306 560 305 c 0
 536 297 517 278 507 254 c 0
 493 220 501 182 527 156 c 0
 539 144 551 137 567 133 c 0
 574 131 576 131 590 131 c 0
 604 131 606 131 613 133 c 0
 629 137 642 145 653 156 c 0
 664 167 670 178 675 192 c 1
 678 198 l 1
 623 253 l 2
EndSplineSet
EndChar
StartChar: z
Encoding: 122 122 22
Width: 413
VWidth: 0
Flags: W
HStem: 480 20G<317 350>
VStem: 192 29<261 343 403 446>
LayerCount: 2
Fore
SplineSet
179 762 m 0
 191 764 221 764 233 762 c 0
 268 756 296 741 321 715 c 0
 342 693 357 665 363 634 c 0
 366 620 366 590 363 576 c 0
 349 508 295 457 226 447 c 1
 221 446 l 1
 221 424 l 1
 221 403 l 1
 282 452 l 1
 342 500 l 1
 350 490 l 2
 354 484 359 480 359 479 c 0
 360 478 341 463 295 426 c 0
 259 398 231 373 231 373 c 0
 231 373 259 348 295 320 c 0
 353 273 360 268 359 266 c 0
 358 265 354 260 350 255 c 2
 342 245 l 1
 282 294 l 1
 221 343 l 1
 221 302 l 1
 221 261 l 1
 292 147 l 1
 331 84 363 33 363 33 c 0
 363 32 342 19 340 18 c 0
 339 18 309 65 273 123 c 0
 237 181 206 229 206 229 c 0
 206 229 176 181 140 123 c 0
 104 65 74 18 73 18 c 0
 71 19 50 32 50 33 c 0
 50 33 82 84 121 147 c 1
 192 261 l 1
 192 353 l 1
 192 446 l 1
 186 447 l 1
 175 449 159 452 148 456 c 0
 98 475 61 520 50 573 c 0
 46 590 46 620 50 637 c 0
 60 685 92 727 136 748 c 0
 150 755 164 759 179 762 c 0
228 734 m 1
 218 736 192 735 182 733 c 0
 164 730 144 721 128 709 c 0
 65 661 59 569 115 513 c 0
 132 496 150 485 173 479 c 0
 184 476 185 476 206 476 c 0
 227 476 229 476 240 479 c 0
 263 485 282 496 298 512 c 0
 319 533 331 557 335 585 c 1
 346 655 297 723 228 734 c 1
EndSplineSet
EndChar
StartChar: ae
Encoding: 230 230 97
Width: 748
VWidth: 0
Flags: W
HStem: 116 20<114.725 200.995> 135 20<511 698>
LayerCount: 2
Fore
SplineSet
139 333 m 0x80
 147 334 168 335 176 333 c 0
 200 329 220 319 237 301 c 0
 252 286 262 266 266 245 c 0
 268 235 268 215 266 205 c 0
 262 184 251 164 238 150 c 0
 235 147 234 145 234 145 c 0
 234 145 245 135 258 124 c 0
 259 123 261 127 284 157 c 0
 298 176 310 191 310 191 c 0
 311 191 326 179 326 179 c 0
 326 179 314 163 300 144 c 2
 274 110 l 1
 283 103 l 1
 304 87 322 76 333 71 c 0
 339 69 350 65 350 66 c 0
 350 66 353 93 356 125 c 0
 359 157 362 184 362 185 c 0
 362 187 361 187 345 191 c 0
 335 193 327 195 327 195 c 0
 326 195 329 213 330 214 c 0
 330 214 338 213 347 211 c 0
 356 209 364 208 364 208 c 0
 364 208 365 217 366 227 c 0
 367 237 368 246 368 246 c 1
 388 244 l 0
 388 244 387 235 386 224 c 0
 385 213 384 204 384 204 c 0
 384 204 391 201 401 199 c 0
 411 197 419 195 419 195 c 1
 419 195 417 177 416 176 c 0
 416 176 408 177 399 179 c 1
 390 181 382 182 382 182 c 0
 371 67 l 1
 371 67 374 68 377 69 c 0
 395 75 419 91 464 129 c 0
 476 139 486 148 487 149 c 0
 488 150 492 167 508 238 c 1
 519 286 528 327 528 327 c 0
 528 327 546 324 547 323 c 0
 547 323 539 285 529 239 c 2
 511 156 l 1
 604 155 l 1
 698 155 l 1
 698 145 l 1
 698 135 l 1
 600 135 l 1
 502 135 l 1x40
 483 119 l 2
 443 85 420 67 401 57 c 0
 393 53 380 48 373 47 c 0
 370 46 368 45 368 45 c 0
 367 44 348 45 341 47 c 0
 322 51 298 65 269 89 c 0
 266 92 262 94 262 94 c 0
 262 94 249 77 234 57 c 0
 219 37 206 20 206 20 c 1
 205 19 190 30 190 31 c 0
 190 31 203 48 219 69 c 2
 247 107 l 1
 233 119 l 2
 225 126 218 132 218 132 c 1
 218 132 215 131 212 129 c 0
 205 125 192 120 182 118 c 0
 175 116 173 116 158 116 c 0
 143 116 141 116 134 118 c 0
 91 128 59 161 50 203 c 0
 48 215 48 235 50 247 c 0
 57 280 79 308 109 323 c 0
 119 328 128 331 139 333 c 0x80
173 314 m 1
 166 315 148 314 141 313 c 0
 128 311 115 305 104 297 c 0
 60 264 56 199 95 161 c 0
 107 149 119 142 135 138 c 0
 142 136 144 136 158 136 c 0x80
 172 136 174 136 181 138 c 0
 197 142 210 150 221 161 c 0
 235 175 244 192 247 211 c 1
 254 259 221 306 173 314 c 1
EndSplineSet
EndChar
StartChar: ccedilla
Encoding: 231 231 75
Width: 417
VWidth: 0
Flags: W
HStem: 23 21G<70 89.7619 342.5 344> 363 30<79 195 224 355> 452 32<140.525 195 224 278.547> 474 20G<50 79>
VStem: 50 29<80 363 393 494> 195 29<266 363 393 451>
LayerCount: 2
Fore
SplineSet
183 767 m 0xec
 195 769 224 769 236 767 c 0
 271 761 300 746 325 720 c 0
 346 698 361 670 367 639 c 0
 370 625 370 595 367 581 c 0
 353 513 299 462 230 452 c 1xec
 224 451 l 1
 224 422 l 1
 224 393 l 1
 290 393 l 1
 355 392 l 1
 355 378 l 1
 355 363 l 1
 290 363 l 1
 224 363 l 1
 224 314 l 1
 224 266 l 1
 296 152 l 1
 335 89 367 38 367 38 c 0
 367 37 345 24 343 23 c 0
 342 23 312 70 276 128 c 0
 240 186 210 234 210 234 c 0
 210 234 180 186 144 128 c 0
 108 70 77 23 77 23 c 0
 77 23 73 24 70 26 c 0
 65 29 64 30 58 30 c 2
 50 30 l 1
 50 262 l 1
 50 494 l 1
 65 494 l 1
 79 494 l 1xdc
 79 443 l 1
 79 393 l 1
 137 393 l 1
 195 393 l 1
 195 422 l 1
 195 451 l 1
 190 452 l 1
 179 454 163 457 152 461 c 0
 102 480 65 525 54 578 c 0
 50 595 50 625 54 642 c 0
 64 690 95 732 139 753 c 0
 153 760 168 764 183 767 c 0xec
231 739 m 1
 221 741 196 740 186 738 c 0
 168 735 147 726 131 714 c 0
 68 666 62 574 118 518 c 0
 135 501 153 490 176 484 c 0
 187 481 189 481 210 481 c 0
 231 481 232 481 243 484 c 0
 266 490 285 501 301 517 c 0
 322 538 335 562 339 590 c 1
 350 660 300 728 231 739 c 1
195 314 m 1
 195 363 l 1
 137 363 l 1
 79 363 l 1
 79 222 l 1
 79 80 l 1
 137 173 l 1
 195 266 l 1
 195 314 l 1
EndSplineSet
EndChar
StartChar: eth
Encoding: 240 240 79
Width: 528
VWidth: 0
Flags: W
HStem: 353 30<62 192 221 341> 441 29<146.666 192 221 266.981> 501 20G<423 435 450 468>
VStem: 192 29<256 353 383 441>
LayerCount: 2
Fore
SplineSet
180 757 m 0
 192 759 221 759 233 757 c 0
 268 751 297 736 322 710 c 0
 343 688 358 660 364 629 c 0
 367 615 367 584 364 570 c 0
 350 502 296 451 227 441 c 1
 221 441 l 1
 221 412 l 1
 221 383 l 1
 286 383 l 1
 351 383 l 1
 358 404 l 1
 365 426 l 1
 352 466 l 2
 344 488 339 507 339 508 c 1
 340 508 346 511 353 513 c 0
 365 517 365 517 366 515 c 0
 367 513 369 513 381 513 c 0
 393 513 394 513 395 515 c 0
 396 517 397 517 408 513 c 2
 419 510 l 1
 423 515 l 1
 427 521 l 1
 435 515 l 1
 444 510 l 1
 450 516 l 1
 457 523 l 1
 468 513 l 1
 478 502 l 1
 436 460 l 1
 393 417 l 1
 380 378 l 2
 373 356 366 337 366 336 c 0
 365 334 364 335 352 339 c 0
 338 344 338 344 340 350 c 2
 341 353 l 1
 281 353 l 1
 221 353 l 1
 221 304 l 1
 221 256 l 1
 292 142 l 1
 331 79 364 28 364 28 c 0
 364 27 342 14 340 13 c 0
 339 13 309 60 273 118 c 0
 237 176 207 224 207 224 c 0
 207 224 177 176 141 118 c 0
 105 60 74 13 73 13 c 0
 71 14 50 27 50 28 c 0
 50 28 82 79 121 142 c 1
 192 256 l 1
 192 304 l 1
 192 353 l 1
 127 353 l 1
 62 353 l 1
 62 368 l 1
 62 382 l 1
 127 383 l 1
 192 383 l 1
 192 412 l 1
 192 441 l 1
 187 441 l 1
 176 443 160 447 149 451 c 0
 99 470 62 515 51 568 c 0
 47 585 47 615 51 632 c 0
 61 680 92 721 136 742 c 0
 150 749 165 754 180 757 c 0
228 729 m 1
 218 731 192 730 182 728 c 0
 164 725 144 716 128 704 c 0
 65 656 59 564 115 508 c 0
 132 491 150 480 173 474 c 0
 184 471 186 470 207 470 c 0
 228 470 229 471 240 474 c 0
 263 480 282 491 298 507 c 0
 319 528 332 552 336 580 c 1
 347 650 297 718 228 729 c 1
EndSplineSet
EndChar
StartChar: oslash
Encoding: 248 248 94
Width: 852
VWidth: 0
Flags: W
HStem: 121 20<546.725 632.91> 140 20<50 237> 300 20<720 757> 319 21<594 633.302> 360 20<680 700> 434 20G<660 680>
VStem: 366 20<90.5618 187> 660 20<380 405> 700 20<320 360>
LayerCount: 2
Fore
SplineSet
621 395 m 1x5f80
 680 454 l 1
 680 417 l 1
 680 380 l 1
 700 380 l 1
 720 380 l 1
 720 350 l 1
 720 320 l 1
 761 320 l 2
 783 320 802 320 802 320 c 0
 802 319 711 218 701 207 c 0
 698 204 696 202 694 196 c 0
 689 180 681 165 669 153 c 0
 654 138 636 128 615 123 c 0
 607 121 606 121 590 121 c 0xaf80
 575 121 573 121 566 123 c 0
 556 125 543 130 536 134 c 0
 533 136 530 137 530 137 c 1
 530 137 523 131 515 124 c 0
 503 113 501 112 502 111 c 0
 504 108 558 36 558 36 c 0
 558 36 554 33 550 30 c 0
 544 25 542 24 541 25 c 0
 540 26 528 42 513 62 c 0
 498 82 486 99 486 99 c 0
 486 99 482 97 479 94 c 0
 450 70 426 56 407 52 c 0
 400 50 381 49 380 50 c 0
 380 50 378 51 375 52 c 0
 368 53 355 57 347 62 c 0
 328 72 306 89 265 124 c 2
 246 140 l 1
 148 140 l 1
 50 140 l 1
 50 150 l 1
 50 160 l 1
 144 160 l 1
 237 161 l 1
 219 244 l 2
 209 290 201 328 201 328 c 0
 202 329 220 332 220 332 c 0
 220 332 229 291 240 243 c 1
 256 172 260 155 261 154 c 0
 262 153 272 144 284 134 c 0
 329 96 352 81 371 74 c 0
 374 73 377 72 377 72 c 0
 377 72 366 186 366 187 c 0
 366 187 358 186 349 184 c 1
 340 182 332 181 332 181 c 0
 331 182 329 200 329 200 c 1
 329 200 337 202 347 204 c 0
 357 206 364 209 364 209 c 0
 364 209 363 218 362 229 c 0
 361 240 360 249 360 249 c 0
 380 251 l 1
 380 251 381 242 382 232 c 0
 383 222 384 213 384 213 c 0
 384 213 392 214 401 216 c 0
 410 218 418 219 418 219 c 0
 419 218 422 200 421 200 c 0
 421 200 413 198 403 196 c 0
 387 192 386 192 386 190 c 0
 386 189 389 162 392 130 c 0
 395 98 398 71 398 71 c 0
 399 70 412 74 418 77 c 0
 430 83 445 93 465 109 c 2
 474 115 l 1
 448 149 l 2
 434 168 422 184 422 184 c 0
 422 184 437 196 438 196 c 0
 438 196 449 181 462 163 c 0
 475 145 487 131 488 130 c 0
 489 129 490 129 499 137 c 0
 505 142 511 147 512 148 c 2
 515 150 l 1
 509 156 l 2
 496 170 486 188 482 208 c 0
 480 220 480 240 482 252 c 0
 488 279 503 302 525 319 c 0
 533 325 547 332 556 335 c 2
 562 336 l 1
 621 395 l 1x5f80
680 360 m 1
 660 360 l 1
 660 383 l 1
 660 405 l 1
 627 372 l 1
 594 340 l 1
 598 340 l 2
 614 340 640 331 655 319 c 0x1f80
 664 312 676 300 681 292 c 0
 690 279 696 261 698 247 c 0
 698 243 700 239 700 238 c 0
 700 237 704 241 728 268 c 0
 743 285 757 300 757 300 c 0
 757 300 746 300 728 300 c 2
 700 300 l 1
 700 330 l 1
 700 360 l 1
 680 360 l 1
605 319 m 1
 598 320 580 319 573 318 c 0
 560 316 547 310 536 302 c 0
 492 269 488 204 527 166 c 0
 539 154 551 147 567 143 c 0
 574 141 576 141 590 141 c 0x9f80
 604 141 606 141 613 143 c 0
 629 147 642 155 653 166 c 0
 661 174 665 181 670 190 c 0
 690 229 679 276 644 302 c 0
 633 310 618 317 605 319 c 1
EndSplineSet
EndChar
StartChar: hbar
Encoding: 295 295 77
Width: 662
VWidth: 0
Flags: W
HStem: 248 30<79 168.227 240 288> 486 30<79 173.078 195.873 288> 754 29<393.559 509.02>
VStem: 50 30<278 372.031 394.874 486> 288 29<295 372 439 470> 436 30<267 351 413 457>
LayerCount: 2
Fore
SplineSet
436 783 m 0
 445 784 466 783 475 782 c 0
 529 774 574 741 598 692 c 0
 605 677 610 663 613 646 c 0
 615 636 615 606 613 595 c 0
 608 567 598 543 582 521 c 0
 575 512 560 498 551 491 c 0
 528 473 498 461 471 458 c 2
 466 457 l 1
 466 362 l 1
 466 267 l 1
 539 150 l 2
 595 60 612 33 611 32 c 0
 610 32 605 29 599 25 c 0
 593 21 587 18 587 18 c 0
 587 18 557 66 520 125 c 0
 483 184 453 233 452 234 c 0
 451 235 443 222 383 126 c 0
 346 66 315 18 315 18 c 0
 315 18 291 32 291 33 c 0
 291 33 323 86 363 150 c 2
 436 267 l 1
 436 309 l 2
 436 332 436 351 436 351 c 0
 436 351 409 329 376 303 c 2
 317 256 l 1
 317 252 l 1
 317 248 l 1
 184 248 l 1
 50 248 l 1
 50 382 l 1
 50 516 l 1
 183 516 l 1
 317 516 l 1
 317 512 l 1
 317 508 l 1
 376 461 l 2
 408 435 436 413 436 413 c 0
 436 413 436 423 436 435 c 2
 436 457 l 1
 432 458 l 1
 358 468 301 522 289 597 c 0
 287 608 287 632 289 643 c 0
 294 678 310 708 334 733 c 0
 361 761 397 779 436 783 c 0
461 753 m 0
 456 753 450 754 449 754 c 0
 437 753 431 752 425 751 c 0
 366 739 322 689 318 629 c 0
 315 591 328 555 354 528 c 0
 376 505 404 491 435 487 c 0
 460 484 485 488 508 499 c 0
 587 536 610 638 555 705 c 0
 549 712 537 723 529 729 c 0
 525 732 517 736 511 739 c 0
 494 748 480 752 461 753 c 0
173 486 m 0
 175 486 155 486 128 486 c 2
 79 486 l 1
 80 438 l 2
 80 409 80 392 80 395 c 0
 85 435 113 469 151 481 c 0
 158 483 167 485 173 486 c 0
287 439 m 2
 288 486 l 1
 240 486 l 2
 209 486 193 485 196 485 c 0
 242 479 279 444 286 398 c 0
 287 392 287 396 287 439 c 2
372 427 m 0
 342 451 318 470 318 470 c 0
 318 470 317 430 317 382 c 0
 317 334 318 295 318 295 c 0
 318 295 343 314 373 338 c 0
 417 373 427 382 426 383 c 0
 425 384 402 403 372 427 c 0
192 456 m 0
 184 457 183 457 175 456 c 0
 159 454 144 447 132 435 c 0
 99 403 103 351 139 323 c 0
 164 304 199 302 225 320 c 0
 247 335 260 361 258 387 c 0
 255 423 228 452 192 456 c 0
81 363 m 0
 80 366 80 371 80 372 c 0
 80 373 80 352 80 326 c 1
 79 278 l 1
 127 278 l 2
 168 278 173 278 168 279 c 0
 145 283 126 292 109 309 c 0
 95 323 85 343 81 363 c 0
288 325 m 2
 288 351 287 372 287 372 c 0
 287 372 287 369 286 366 c 0
 280 322 244 286 199 279 c 0
 193 278 197 278 240 278 c 2
 288 278 l 1
 288 325 l 2
EndSplineSet
EndChar
StartChar: eng
Encoding: 331 331 71
Width: 508
VWidth: 0
Flags: W
HStem: 21 21G<111 112.5 351.5 353> 325 27<102 203 262 352> 637 131<115 120.035 157 307 343.965 349> 637 27<50 115 349 414>
VStem: 219 26<238 325>
LayerCount: 2
Fore
SplineSet
115 716 m 1xd8
 115 768 l 1
 232 768 l 1
 349 768 l 1xe8
 349 716 l 1
 349 664 l 1
 382 664 l 1
 414 664 l 1
 414 651 l 1
 414 638 l 1
 378 637 l 2
 358 637 343 636 344 636 c 0
 346 634 355 620 360 610 c 0
 371 589 374 572 374 547 c 0
 374 528 373 518 368 502 c 1
 364 490 356 474 349 464 c 2
 343 456 l 1
 347 456 l 2
 352 456 352 455 349 452 c 0
 347 450 347 451 403 395 c 2
 459 339 l 1
 421 301 l 2
 400 280 382 264 382 264 c 0
 382 264 377 278 371 295 c 2
 361 325 l 1
 303 325 l 1
 245 325 l 1
 245 282 l 1
 245 238 l 1
 309 137 l 1
 344 81 373 34 373 34 c 0
 373 33 354 22 352 21 c 0
 351 21 324 63 291 115 c 0
 258 167 232 210 232 210 c 0
 232 210 206 167 173 115 c 0
 140 63 113 21 112 21 c 0
 110 22 91 33 91 34 c 0
 91 34 120 81 155 137 c 2
 219 238 l 1
 219 282 l 1
 219 325 l 1
 161 325 l 1
 102 326 l 1
 102 339 l 1
 102 352 l 1
 152 352 l 1
 203 353 l 1
 158 404 l 2
 133 432 113 455 113 455 c 0
 113 455 115 456 117 456 c 2
 121 456 l 1
 115 464 l 2
 104 479 96 499 92 518 c 0
 90 527 90 532 90 547 c 0
 90 573 93 588 104 610 c 0
 109 619 118 635 120 636 c 0
 121 636 106 637 86 637 c 2
 50 638 l 1
 50 651 l 1
 50 664 l 1
 83 664 l 1
 115 664 l 1
 115 716 l 1xd8
314 630 m 1
 307 637 l 1
 232 637 l 1
 157 637 l 1
 149 628 l 1
 104 582 104 510 149 465 c 2
 157 456 l 1
 232 456 l 1
 307 456 l 1
 315 464 l 2
 333 482 343 504 347 529 c 0
 353 566 341 604 314 630 c 1
340 389 m 0
 333 409 327 426 327 426 c 0
 327 426 312 410 294 390 c 2
 262 353 l 1
 307 352 l 2
 332 352 352 352 352 352 c 0
 352 352 347 369 340 389 c 0
408 325 m 2
 421 339 l 1
 394 366 l 2
 379 381 367 393 367 392 c 0
 374 372 393 313 394 312 c 0
 394 312 401 318 408 325 c 2
EndSplineSet
EndChar
StartChar: oe
Encoding: 339 339 95
Width: 733
VWidth: 0
Flags: W
HStem: 30 20<415.6 496.953 497 498.082 521 632> 130 20<182 244.99 266 287 307 347> 230 20<416.186 494.259 497 497.869 520 633>
VStem: 227 20<263.068 299.999> 287 20<40 130 150 240>
CounterMasks: 1 e0
LayerCount: 2
Fore
SplineSet
234 300 m 0
 240 301 247 301 247 301 c 0
 247 300 252 263 252 263 c 0
 252 263 259 264 268 266 c 0
 277 268 284 269 284 269 c 0
 285 269 290 252 289 251 c 0
 289 251 281 248 272 246 c 0
 263 244 255 242 255 242 c 0
 255 242 257 221 260 196 c 2
 266 150 l 1
 276 150 l 1
 287 150 l 1
 287 195 l 1
 287 240 l 1
 297 240 l 1
 307 240 l 1
 307 195 l 1
 307 150 l 1
 327 150 l 1
 347 150 l 1
 349 159 l 2
 355 193 377 223 408 238 c 0
 426 247 440 250 461 249 c 1
 475 249 479 249 495 244 c 0
 497 244 497 243 497 246 c 2
 497 250 l 1
 589 250 l 2
 639 250 681 250 681 250 c 0
 681 250 665 234 647 216 c 0
 629 198 613 182 613 182 c 0
 613 182 627 172 644 161 c 0
 661 150 674 140 674 140 c 0
 674 140 661 130 644 119 c 0
 627 108 613 98 613 98 c 0
 613 98 628 83 647 64 c 2
 681 30 l 1
 589 30 l 1
 497 30 l 1
 497 34 l 1
 497 38 l 1
 494 36 l 2
 492 35 487 34 482 33 c 0
 474 31 473 31 457 31 c 0
 438 31 432 32 417 38 c 0
 402 44 389 52 377 65 c 0
 362 81 353 100 349 121 c 1
 347 130 l 1
 327 130 l 1
 307 130 l 1
 307 85 l 1
 307 40 l 1
 297 40 l 1
 287 40 l 1
 287 85 l 1
 287 130 l 1
 234 130 l 1
 182 130 l 1
 123 72 l 1
 64 13 l 1
 57 20 l 1
 50 27 l 1
 106 84 l 1
 163 140 l 1
 106 196 l 1
 50 253 l 1
 57 260 l 1
 64 267 l 1
 123 209 l 1
 181 150 l 1
 213 150 l 2
 231 150 245 151 245 151 c 0
 245 151 243 171 240 195 c 0
 235 232 234 238 233 238 c 0
 232 238 225 236 216 234 c 0
 207 232 199 231 199 231 c 0
 199 232 195 250 195 250 c 0
 195 250 204 252 214 254 c 0
 230 258 232 259 232 260 c 0
 232 261 230 270 229 280 c 0
 228 290 227 298 227 298 c 0
 227 298 231 300 234 300 c 0
607 204 m 1
 633 230 l 1
 577 230 l 1
 520 230 l 1
 523 228 l 2
 529 223 544 208 548 202 c 0
 556 189 562 175 565 160 c 0
 567 150 567 130 565 120 c 0
 562 104 555 89 546 76 c 0
 541 70 530 58 524 53 c 2
 521 50 l 1
 577 50 l 1
 632 50 l 1
 607 76 l 1
 581 101 l 1
 610 120 l 2
 626 130 638 140 638 140 c 0
 638 140 626 150 610 160 c 2
 581 179 l 1
 607 204 l 1
472 229 m 1
 465 230 447 229 440 228 c 0
 427 226 414 220 403 212 c 0
 359 179 355 114 394 76 c 0
 406 64 418 57 434 53 c 0
 441 51 443 51 457 51 c 0
 471 51 473 51 480 53 c 0
 496 57 509 65 520 76 c 0
 528 84 532 91 537 100 c 0
 557 139 546 186 511 212 c 0
 500 220 485 227 472 229 c 1
EndSplineSet
EndChar
StartChar: uni01C0
Encoding: 448 448 4
Width: 455
VWidth: 0
Flags: W
HStem: 294 25<164 263 287 395> 435 306G<59 73 86 96 268 286.91> 741 20G<268 286.91>
VStem: 263 24<214 294 319 367>
LayerCount: 2
Fore
SplineSet
268 751 m 0xd0
 272 757 275 761 275 761 c 0xb0
 275 761 300 720 328 672 c 0
 365 608 379 584 378 583 c 0
 377 582 377 582 379 580 c 0
 389 568 401 543 405 523 c 0
 407 511 407 486 405 474 c 0
 394 417 349 376 292 368 c 1
 287 367 l 1
 287 343 l 1
 287 319 l 1
 341 319 l 1
 395 319 l 1
 395 307 l 1
 395 295 l 1
 341 294 l 1
 287 294 l 1
 287 254 l 1
 287 214 l 1
 346 120 l 1
 378 68 405 25 405 25 c 0
 405 24 387 14 385 13 c 0
 385 13 360 52 330 100 c 0
 300 148 275 188 275 188 c 0
 275 188 250 148 220 100 c 0
 190 52 165 13 165 13 c 0
 163 14 145 24 145 25 c 0
 145 25 172 68 204 120 c 2
 263 214 l 1
 263 254 l 1
 263 294 l 1
 213 294 l 1
 164 294 l 1
 165 292 l 2
 167 287 166 287 155 283 c 0
 145 280 144 279 143 280 c 0
 143 281 137 297 131 315 c 2
 121 347 l 1
 85 383 l 1
 50 418 l 1
 59 427 l 1
 68 435 l 1
 73 430 l 1
 79 424 l 1
 86 429 l 1
 93 433 l 1
 96 429 l 1
 99 424 l 1
 109 427 l 2
 118 430 118 430 119 428 c 0
 120 426 121 427 131 427 c 0
 141 427 142 426 143 428 c 0
 144 430 144 430 154 427 c 0
 160 425 165 423 165 423 c 1
 165 423 161 407 155 388 c 2
 144 355 l 1
 150 337 l 1
 156 319 l 1
 209 319 l 1
 263 319 l 1
 263 343 l 1
 263 367 l 1
 258 368 l 1
 248 369 236 372 227 376 c 0
 186 392 156 428 146 472 c 0
 144 480 143 485 143 499 c 0
 143 517 145 528 150 542 c 0
 155 555 165 573 171 580 c 0
 173 582 173 582 172 583 c 0
 171 584 209 650 268 751 c 0xd0
343 582 m 0
 341 583 330 583 275 583 c 0
 199 583 207 585 196 573 c 0
 156 530 157 463 199 422 c 0
 213 408 228 399 247 394 c 0
 256 392 258 392 275 392 c 0
 292 392 294 392 303 394 c 0
 322 399 336 409 350 422 c 0
 359 431 366 439 371 450 c 0
 392 491 384 540 352 574 c 0
 349 578 344 581 343 582 c 0
EndSplineSet
EndChar
StartChar: uni01C1
Encoding: 449 449 91
Width: 360
VWidth: 0
Flags: W
HStem: 412 329G<62 93.3846 174 193.685> 741 20G<174 193.685>
VStem: 169 25<213 224>
LayerCount: 2
Fore
SplineSet
174 751 m 0xa0
 178 757 182 761 182 761 c 0x60
 182 761 206 720 234 672 c 0
 271 608 285 584 284 583 c 0
 283 582 283 582 285 580 c 0
 295 568 307 543 311 523 c 0
 313 511 313 486 311 474 c 0
 306 448 294 425 276 407 c 0
 260 391 245 382 222 373 c 1
 219 372 l 1
 222 368 l 1
 230 358 238 341 240 324 c 0
 246 281 228 238 199 226 c 1
 194 224 l 1
 194 219 l 1
 194 213 l 1
 252 119 l 2
 284 67 311 25 311 25 c 0
 309 24 291 13 291 13 c 0
 291 13 266 52 236 100 c 0
 206 148 181 188 181 188 c 0
 181 188 156 148 126 100 c 0
 96 52 71 13 71 13 c 0
 71 13 53 24 51 25 c 0
 51 25 78 67 110 119 c 2
 169 213 l 1
 169 219 l 1
 169 224 l 1
 165 226 l 2
 158 229 148 235 142 243 c 0
 139 247 136 251 135 252 c 0
 134 253 129 249 101 227 c 2
 69 201 l 1
 62 209 l 2
 59 213 56 217 55 218 c 0
 54 220 57 223 89 249 c 0
 116 270 124 278 124 279 c 0
 123 282 121 299 121 307 c 0
 121 315 123 332 124 335 c 0
 124 336 116 344 89 365 c 0
 64 385 55 393 55 394 c 0
 55 395 58 399 62 404 c 2
 68 412 l 1
 101 386 l 2
 128 364 134 360 135 361 c 0
 136 362 137 365 139 367 c 1
 141 369 142 372 142 372 c 0
 142 372 139 374 134 376 c 0
 105 387 77 410 63 439 c 0
 53 460 50 475 50 499 c 0
 50 517 51 528 56 542 c 0
 61 555 71 573 77 580 c 0
 79 582 79 582 78 583 c 0
 77 584 115 650 174 751 c 0xa0
250 582 m 0
 248 583 236 583 181 583 c 0
 105 583 113 585 102 573 c 0
 62 530 63 463 105 422 c 0
 119 408 134 399 153 394 c 0
 162 392 164 392 181 392 c 0
 198 392 200 392 209 394 c 0
 228 399 243 409 257 422 c 0
 266 431 272 439 277 450 c 0
 298 491 290 540 258 574 c 0
 255 578 251 581 250 582 c 0
191 364 m 0
 186 367 176 367 171 364 c 0
 161 359 152 345 148 329 c 0
 145 318 145 295 148 284 c 1
 151 273 156 264 162 257 c 0
 169 250 174 247 181 247 c 0
 188 247 193 250 200 257 c 1
 206 264 211 273 214 284 c 1
 217 295 217 318 214 329 c 1
 210 345 201 359 191 364 c 0
EndSplineSet
EndChar
StartChar: uni01C2
Encoding: 450 450 90
Width: 362
VWidth: 0
Flags: W
HStem: 23 21G<67 84.6437 280.126 294> 304 25<74 170 194 302> 393 20G<50 74>
VStem: 50 24<70 304 329 413> 170 24<224 304 329 377>
LayerCount: 2
Fore
SplineSet
175 761 m 0
 179 767 183 771 183 771 c 0
 183 771 207 730 235 682 c 0
 272 618 286 594 285 593 c 0
 284 592 284 592 286 590 c 0
 296 578 308 553 312 533 c 0
 314 521 314 496 312 484 c 0
 301 427 256 386 199 378 c 1
 194 377 l 1
 194 353 l 1
 194 329 l 1
 248 329 l 1
 302 329 l 1
 302 317 l 1
 302 305 l 1
 248 304 l 1
 194 304 l 1
 194 264 l 1
 194 224 l 1
 253 130 l 1
 285 78 312 35 312 35 c 0
 312 34 295 24 293 23 c 0
 293 23 267 62 237 110 c 0
 207 158 182 198 182 198 c 0
 182 198 157 158 127 110 c 0
 97 62 72 23 72 23 c 0
 72 23 69 24 67 26 c 0
 63 28 61 29 56 29 c 2
 50 29 l 1
 50 221 l 1
 50 413 l 1
 62 413 l 1
 74 413 l 1
 74 371 l 1
 74 329 l 1
 122 329 l 1
 170 329 l 1
 170 353 l 1
 170 377 l 1
 166 378 l 1
 156 379 143 382 134 386 c 0
 93 402 63 438 53 482 c 0
 51 490 51 495 51 509 c 0
 51 527 52 538 57 552 c 0
 62 565 72 583 78 590 c 0
 80 592 80 592 79 593 c 0
 78 594 116 660 175 761 c 0
251 592 m 0
 249 593 237 593 182 593 c 0
 106 593 115 595 104 583 c 0
 64 540 64 473 106 432 c 0
 120 418 135 409 154 404 c 0
 163 402 165 402 182 402 c 0
 199 402 201 402 210 404 c 0
 229 409 244 419 258 432 c 0
 267 441 273 449 278 460 c 0
 299 501 292 550 260 584 c 0
 257 588 252 591 251 592 c 0
170 264 m 1
 170 304 l 1
 122 304 l 1
 74 304 l 1
 74 187 l 1
 74 70 l 1
 122 147 l 1
 170 224 l 1
 170 264 l 1
EndSplineSet
EndChar
StartChar: uni01C3
Encoding: 451 451 89
Width: 459
VWidth: 0
Flags: W
HStem: 23 21G<165 178.644 373.356 387> 257 25<85.7481 136.064> 304 25<167 264 288 396> 352 24<85.3329 128.842>
VStem: 264 24<224 304 329 377>
LayerCount: 2
Fore
SplineSet
269 760 m 0
 273 766 277 771 277 771 c 0
 277 771 301 730 329 682 c 0
 366 618 380 594 379 593 c 0
 378 592 378 592 380 590 c 0
 390 578 402 553 406 533 c 0
 408 521 408 496 406 484 c 0
 395 427 350 386 293 378 c 1
 288 377 l 1
 288 353 l 1
 288 329 l 1
 342 329 l 1
 396 329 l 1
 396 317 l 1
 396 305 l 1
 342 304 l 1
 288 304 l 1
 288 264 l 1
 288 224 l 1
 347 130 l 1
 379 78 406 35 406 35 c 0
 406 34 388 24 386 23 c 0
 386 23 361 62 331 110 c 0
 301 158 276 198 276 198 c 0
 276 198 251 158 221 110 c 0
 191 62 166 23 166 23 c 0
 164 24 146 34 146 35 c 0
 146 35 173 78 205 130 c 2
 264 224 l 1
 264 264 l 1
 264 304 l 1
 215 304 l 1
 167 304 l 1
 164 297 l 2
 159 283 148 270 134 263 c 0
 124 258 119 257 108 257 c 0
 97 257 92 258 82 263 c 0
 75 266 72 269 66 275 c 0
 57 284 53 291 50 303 c 0
 46 318 49 336 58 349 c 0
 66 361 80 372 93 375 c 0
 96 376 103 376 108 376 c 0
 113 376 120 376 123 375 c 0
 142 371 159 354 164 336 c 2
 167 329 l 1
 215 329 l 1
 264 329 l 1
 264 353 l 1
 264 377 l 1
 260 378 l 1
 250 379 237 382 228 386 c 0
 187 402 157 438 147 482 c 0
 145 490 145 495 145 509 c 0
 145 527 146 538 151 552 c 0
 156 565 166 583 172 590 c 0
 174 592 174 592 173 593 c 0
 172 594 210 659 269 760 c 0
344 592 m 0
 342 593 331 593 276 593 c 0
 200 593 208 595 197 583 c 0
 157 540 158 473 200 432 c 0
 214 418 229 409 248 404 c 0
 257 402 259 402 276 402 c 0
 293 402 295 402 304 404 c 0
 323 409 337 419 351 432 c 0
 360 441 367 449 372 460 c 0
 393 501 385 550 353 584 c 0
 350 588 345 591 344 592 c 0
125 348 m 0
 120 351 117 352 109 352 c 0
 99 352 96 351 89 347 c 0
 76 339 69 322 73 307 c 0
 76 297 82 289 92 284 c 0
 97 282 98 282 108 282 c 0
 118 282 119 282 124 284 c 0
 131 287 134 291 138 297 c 0
 149 315 144 338 125 348 c 0
EndSplineSet
EndChar
StartChar: uni0250
Encoding: 592 592 69
Width: 857
VWidth: 0
Flags: W
HStem: 41 24<108 242 268.108 271 271.062 367.188> 161 24<450 499 523 548 573 599 625 649> 281 23<107 243 273.88 364.154> 305 22<523.872 560.795> 399 20G<630 649 669 681 715 727 740 751>
VStem: 499 24<52 161 185 292> 571 23<320.211 363.575>
LayerCount: 2
Fore
SplineSet
630 412 m 1
 635 416 640 419 640 419 c 0
 640 419 644 414 649 407 c 0
 658 394 658 393 656 406 c 0
 655 411 654 411 669 413 c 1
 674 414 678 413 678 413 c 0
 678 413 680 408 681 402 c 0
 682 396 683 391 683 391 c 0
 683 391 684 396 686 402 c 0
 691 418 690 416 702 412 c 0
 708 410 713 408 713 408 c 0
 713 408 714 406 713 404 c 2
 712 401 l 1
 715 404 l 1
 717 408 l 1
 727 400 l 1
 736 393 l 1
 740 395 l 2
 742 396 744 397 744 397 c 0
 744 397 748 393 751 388 c 0
 757 379 757 378 755 377 c 0
 754 376 739 366 721 354 c 2
 688 332 l 1
 657 259 l 2
 640 219 625 185 625 185 c 0
 625 185 631 185 638 185 c 2
 650 185 l 1
 720 255 l 1
 790 325 l 1
 799 316 l 1
 807 308 l 1
 740 240 l 1
 672 172 l 1
 740 104 l 1
 807 37 l 1
 799 28 l 1
 790 20 l 1
 719 90 l 1
 649 161 l 1
 586 161 l 1
 523 161 l 1
 523 106 l 1
 523 52 l 1
 511 52 l 1
 499 52 l 1
 499 106 l 1
 499 161 l 1
 474 160 l 1
 450 160 l 1
 449 150 l 1
 440 98 401 56 348 43 c 0
 340 41 337 41 319 41 c 0
 300 41 298 42 288 44 c 0
 282 45 277 47 275 48 c 2
 271 49 l 1
 271 45 l 1
 271 41 l 1
 161 41 l 1
 50 41 l 1
 90 81 l 2
 112 103 131 122 131 122 c 0
 131 122 115 134 95 147 c 0
 75 160 58 172 58 172 c 0
 58 172 75 184 95 197 c 0
 115 210 131 222 131 222 c 0
 131 222 113 241 91 263 c 0
 69 285 50 304 50 304 c 0
 50 304 100 304 161 304 c 2
 271 304 l 1
 271 300 l 2
 271 296 271 295 273 296 c 0
 292 301 297 303 314 303 c 1
 332 304 341 303 357 298 c 0
 369 295 387 285 397 278 c 0
 407 270 421 257 428 247 c 0
 439 231 447 211 449 193 c 2
 450 185 l 1
 474 185 l 1
 499 185 l 1
 499 238 l 1
 499 292 l 1
 511 292 l 1
 523 292 l 1
 523 238 l 1
 523 185 l 1
 535 185 l 1
 548 185 l 1
 555 240 l 2
 559 270 561 295 561 295 c 0
 561 295 552 298 541 300 c 1
 530 302 521 305 521 305 c 0
 521 307 525 327 526 327 c 0
 527 327 536 325 546 323 c 0
 556 321 565 320 565 320 c 0
 565 320 566 330 568 342 c 0
 570 354 571 365 571 365 c 0
 572 366 594 363 594 362 c 0
 594 362 594 352 592 340 c 0
 590 328 589 317 589 316 c 0
 589 314 592 313 611 309 c 0
 623 306 633 304 633 304 c 0
 633 303 629 282 628 281 c 0
 628 281 619 283 608 285 c 0
 597 287 588 289 587 289 c 0
 586 289 584 282 579 238 c 0
 575 210 573 185 573 185 c 0
 573 185 579 185 586 185 c 2
 599 185 l 1
 631 260 l 2
 649 302 664 336 664 337 c 0
 664 338 658 350 643 372 c 2
 621 405 l 1
 630 412 l 1
239 278 m 2
 243 281 l 1
 175 281 l 1
 107 281 l 1
 139 250 l 1
 170 218 l 1
 135 196 l 2
 116 184 101 172 101 172 c 0
 101 172 116 161 135 149 c 2
 170 126 l 1
 139 95 l 1
 108 65 l 1
 175 65 l 1
 242 65 l 1
 239 67 l 2
 232 73 218 87 212 95 c 0
 201 110 193 128 189 146 c 0
 187 154 187 158 187 172 c 0
 187 186 187 191 189 199 c 0
 193 216 200 232 210 247 c 0
 215 254 231 272 239 278 c 2
336 279 m 1
 328 280 307 280 299 278 c 0
 284 275 267 268 254 258 c 0
 201 218 196 142 243 96 c 0
 257 82 272 73 291 68 c 0
 300 66 302 65 319 65 c 0
 336 65 337 66 346 68 c 0
 365 73 380 82 394 95 c 0
 411 112 422 133 425 156 c 1
 434 214 394 270 336 279 c 1
EndSplineSet
EndChar
StartChar: uni0251
Encoding: 593 593 68
Width: 748
VWidth: 0
Flags: W
HStem: 111 20<114.725 200.995> 130 20<511 698>
VStem: 431 17<128.904 134.6> 464 23<273.094 277.237>
LayerCount: 2
Fore
SplineSet
139 328 m 0xb0
 147 329 168 330 176 328 c 0
 200 324 220 314 237 296 c 0
 252 281 262 261 266 240 c 0
 268 230 268 210 266 200 c 0
 262 179 251 159 238 145 c 0
 235 142 234 140 234 140 c 0
 234 140 245 130 258 119 c 0
 259 118 261 122 284 152 c 0
 298 171 310 186 310 186 c 0
 311 186 326 174 326 174 c 0
 326 174 314 158 300 139 c 2
 274 105 l 1
 283 98 l 1
 310 77 328 66 344 62 c 0
 352 60 365 60 373 62 c 0
 386 66 401 74 421 89 c 1
 430 96 l 1
 431 102 l 2
 431 105 436 132 440 162 c 2
 448 217 l 1
 429 246 l 1
 410 274 l 1
 418 280 l 1
 426 286 l 1
 433 275 l 2
 441 264 441 264 439 275 c 0
 438 279 438 278 450 280 c 1
 454 281 458 281 458 281 c 0
 458 281 459 276 460 271 c 0
 461 266 461 262 461 262 c 0
 461 262 462 266 464 271 c 0
 468 284 467 283 477 280 c 0
 482 278 487 277 487 277 c 0
 487 277 487 275 486 273 c 2
 486 271 l 1
 488 274 l 1
 490 276 l 1
 498 270 l 1
 506 264 l 1
 509 266 l 1
 512 268 l 1
 514 266 l 2
 515 265 516 265 516 266 c 1
 516 267 519 279 522 294 c 1
 525 309 528 322 528 322 c 0
 528 322 546 319 547 318 c 0
 547 318 539 280 529 234 c 2
 511 151 l 1
 604 150 l 1
 698 150 l 1
 698 140 l 1
 698 130 l 1
 600 130 l 1
 502 130 l 1x70
 494 123 l 2
 489 119 477 109 467 101 c 0
 449 86 448 85 448 82 c 2
 448 79 l 1
 444 79 l 2
 441 79 441 79 433 73 c 0
 391 41 362 33 330 45 c 0
 314 51 293 64 269 84 c 0
 266 87 262 89 262 89 c 0
 262 89 249 72 234 52 c 0
 219 32 206 15 206 15 c 1
 205 14 190 25 190 26 c 0
 190 26 203 43 219 64 c 2
 247 102 l 1
 233 114 l 2
 225 121 218 127 218 127 c 1
 218 127 215 126 212 124 c 0
 205 120 192 115 182 113 c 0
 175 111 173 111 158 111 c 0
 143 111 141 111 134 113 c 0
 91 123 59 156 50 198 c 0
 48 210 48 230 50 242 c 0
 57 275 79 303 109 318 c 0
 119 323 128 326 139 328 c 0xb0
173 309 m 1
 166 310 148 309 141 308 c 0
 128 306 115 300 104 292 c 0
 60 259 56 194 95 156 c 0
 107 144 119 137 135 133 c 0
 142 131 144 131 158 131 c 0xb0
 172 131 174 131 181 133 c 0
 197 137 210 145 221 156 c 0
 235 170 244 187 247 206 c 1
 254 254 221 301 173 309 c 1
510 241 m 0
 510 242 510 242 510 242 c 1
 509 242 469 215 468 214 c 0
 467 213 454 119 454 117 c 0
 454 116 457 118 471 130 c 0x70
 480 138 489 145 489 146 c 0
 489 147 494 168 500 193 c 0
 506 218 510 240 510 241 c 0
EndSplineSet
EndChar
StartChar: uni0252
Encoding: 594 594 67
Width: 748
VWidth: 0
Flags: W
HStem: 131 20<546.725 632.401> 150 20<50 237>
VStem: 261 23<293.094 297.237>
LayerCount: 2
Fore
SplineSet
571 348 m 1x60
 579 349 600 350 608 348 c 0
 632 344 652 334 669 316 c 0
 684 301 694 281 698 260 c 0
 700 250 700 230 698 220 c 0
 689 177 658 144 615 133 c 0
 607 131 606 131 590 131 c 0xa0
 575 131 573 131 566 133 c 0
 556 135 543 140 536 144 c 0
 533 146 530 147 530 147 c 1
 530 147 523 141 515 134 c 0
 503 123 501 122 502 121 c 0
 504 118 558 46 558 46 c 0
 558 46 554 43 550 40 c 0
 544 35 542 34 541 35 c 0
 540 36 528 52 513 72 c 0
 498 92 486 109 486 109 c 0
 486 109 482 107 479 104 c 0
 455 84 434 71 418 65 c 0
 386 53 357 61 315 93 c 0
 307 99 307 99 304 99 c 2
 300 99 l 1
 300 102 l 2
 300 105 299 106 281 121 c 0
 271 129 259 139 254 143 c 2
 246 150 l 1
 148 150 l 1
 50 150 l 1
 50 160 l 1
 50 170 l 1
 144 170 l 1
 237 171 l 1
 219 254 l 2
 209 300 201 338 201 338 c 0
 202 339 220 342 220 342 c 0
 220 342 223 329 226 314 c 1
 229 299 232 287 232 286 c 1
 232 285 233 285 234 286 c 2
 236 288 l 1
 239 286 l 1
 242 284 l 1
 250 290 l 1
 258 296 l 1
 260 294 l 1
 262 291 l 1
 262 293 l 2
 261 295 261 297 261 297 c 0
 261 297 266 298 271 300 c 0
 281 303 280 304 284 291 c 0
 286 286 287 282 287 282 c 0
 287 282 287 286 288 291 c 0
 289 296 290 301 290 301 c 0
 290 301 294 301 298 300 c 1
 310 298 310 299 309 295 c 0
 307 284 307 284 315 295 c 2
 322 306 l 1
 330 300 l 1
 338 294 l 1
 319 266 l 1
 300 237 l 1
 309 177 l 2
 317 117 318 117 320 115 c 0
 321 114 326 110 332 106 c 0
 350 93 364 85 376 82 c 0
 384 80 397 80 405 82 c 0
 420 86 438 98 465 119 c 2
 474 125 l 1
 448 159 l 2
 434 178 422 194 422 194 c 0
 422 194 437 206 438 206 c 0
 438 206 449 191 462 173 c 0
 475 155 487 141 488 140 c 0
 489 139 490 139 499 147 c 0
 505 152 511 157 512 158 c 2
 515 160 l 1
 509 166 l 2
 496 180 486 198 482 218 c 0
 480 230 480 250 482 262 c 0
 488 289 503 312 525 329 c 0
 537 338 555 345 571 348 c 1x60
605 329 m 1
 598 330 580 329 573 328 c 0
 560 326 547 320 536 312 c 0
 492 279 488 214 527 176 c 0
 539 164 551 157 567 153 c 0
 574 151 576 151 590 151 c 0
 604 151 606 151 613 153 c 0
 629 157 642 165 653 176 c 0
 661 184 665 191 670 200 c 0
 690 239 679 286 644 312 c 0
 633 320 618 327 605 329 c 1
259 249 m 0
 248 257 238 262 238 262 c 0
 238 262 238 262 238 261 c 0
 238 260 242 238 248 213 c 0
 254 188 259 167 259 166 c 0
 259 165 268 158 277 150 c 0x60
 291 138 294 136 294 137 c 0
 294 139 281 233 280 234 c 1
 280 234 270 241 259 249 c 0
EndSplineSet
EndChar
StartChar: uni0253
Encoding: 595 595 66
Width: 493
VWidth: 0
Flags: W
HStem: 32 96<86 137 166.002 182 254 270.997 300 350> 320 24<98 206 230 318.512> 370 20G<291 319 413.88 425> 608 120<110 115.035 149 287 320.965 326> 608 24<50 110 326 386>
VStem: 86 96<32 128> 206 24<239 320 344 392> 254 96<32 128> 424 20<509.776 522.401>
LayerCount: 2
Fore
SplineSet
110 680 m 1xef80
 110 728 l 1
 218 728 l 1
 326 728 l 1xf780
 326 680 l 1
 326 632 l 1
 356 632 l 1
 386 632 l 1
 386 620 l 1
 386 608 l 1
 353 608 l 2
 335 608 320 606 321 606 c 0
 323 605 331 592 336 583 c 0
 346 564 350 547 350 524 c 0
 350 513 349 506 348 500 c 0
 337 443 292 401 235 393 c 1
 230 392 l 1
 230 368 l 1
 230 344 l 1
 278 344 l 2
 318 344 326 345 324 346 c 0
 323 347 313 352 303 358 c 0
 285 369 284 370 285 372 c 0
 286 373 288 378 291 382 c 0
 294 386 297 390 297 390 c 0
 297 390 307 384 319 377 c 2
 341 364 l 1
 382 446 l 2
 405 491 424 529 424 529 c 0
 426 529 444 519 444 518 c 0
 444 517 426 481 403 435 c 1
 380 390 362 351 362 351 c 0
 362 351 375 343 390 334 c 0
 416 319 416 318 415 316 c 0
 414 315 412 310 409 306 c 0
 406 302 404 298 404 298 c 0
 404 298 391 305 377 314 c 2
 350 330 l 1
 338 305 l 2
 331 291 325 280 325 280 c 0
 324 279 304 289 304 290 c 0
 304 290 307 297 311 305 c 2
 319 320 l 1
 274 320 l 1
 230 320 l 1
 230 279 l 1
 230 239 l 1
 265 184 l 1
 300 128 l 1
 325 128 l 1
 350 128 l 1
 350 80 l 1
 350 32 l 1
 302 32 l 1
 254 32 l 1
 254 80 l 1
 254 128 l 1
 262 128 l 2
 267 128 271 129 271 129 c 0
 271 131 219 213 218 212 c 0
 217 211 166 130 166 129 c 0
 166 129 169 128 174 128 c 2
 182 128 l 1
 182 80 l 1
 182 32 l 1
 134 32 l 1
 86 32 l 1
 86 80 l 1
 86 128 l 1
 112 128 l 1
 137 128 l 1
 172 184 l 1
 206 239 l 1
 206 279 l 1
 206 320 l 1
 152 320 l 1
 98 320 l 1
 98 332 l 1
 98 344 l 1
 152 344 l 1
 206 344 l 1
 206 368 l 1
 206 392 l 1
 202 393 l 1
 192 394 179 397 170 401 c 0
 129 417 99 453 89 497 c 0
 87 505 87 510 87 524 c 0
 87 548 90 563 100 583 c 0
 104 592 113 605 115 606 c 0
 116 606 101 608 83 608 c 2
 50 608 l 1
 50 620 l 1
 50 632 l 1
 80 632 l 1
 110 632 l 1
 110 680 l 1xef80
294 601 m 1
 287 608 l 1
 218 608 l 1
 149 608 l 1
 141 600 l 1
 99 558 100 490 142 448 c 0
 156 434 171 425 190 420 c 0
 199 418 201 417 218 417 c 0
 235 417 237 418 246 420 c 0
 265 425 280 434 294 447 c 0
 303 456 309 465 314 476 c 0
 335 518 328 569 294 601 c 1
EndSplineSet
EndChar
StartChar: uni0254
Encoding: 596 596 65
Width: 731
VWidth: 0
Flags: W
HStem: 30 20<415.6 496.953 497 498.082 521 632> 130 20<182 200.997 223 287 307 347> 230 20<416.186 494.259 497 497.869 520 633>
VStem: 128 23<333.094 337.237> 287 20<40 130 150 240>
CounterMasks: 1 e0
LayerCount: 2
Fore
SplineSet
182 335 m 2
 189 346 l 1
 197 340 l 1
 205 334 l 1
 187 307 l 2
 175 288 169 279 169 278 c 0
 169 277 181 248 196 213 c 2
 223 150 l 1
 255 150 l 1
 287 150 l 1
 287 195 l 1
 287 240 l 1
 297 240 l 1
 307 240 l 1
 307 195 l 1
 307 150 l 1
 327 150 l 1
 347 150 l 1
 349 159 l 2
 355 193 377 223 408 238 c 0
 426 247 440 250 461 249 c 1
 475 249 479 249 495 244 c 0
 497 244 497 243 497 246 c 2
 497 250 l 1
 589 250 l 2
 639 250 681 250 681 250 c 0
 681 250 665 234 647 216 c 0
 629 198 613 182 613 182 c 0
 613 182 627 172 644 161 c 0
 661 150 674 140 674 140 c 0
 674 140 661 130 644 119 c 0
 627 108 613 98 613 98 c 0
 613 98 628 83 647 64 c 2
 681 30 l 1
 589 30 l 1
 497 30 l 1
 497 34 l 1
 497 38 l 1
 494 36 l 2
 492 35 487 34 482 33 c 0
 474 31 473 31 457 31 c 0
 438 31 432 32 417 38 c 0
 402 44 389 52 377 65 c 0
 362 81 353 100 349 121 c 1
 347 130 l 1
 327 130 l 1
 307 130 l 1
 307 85 l 1
 307 40 l 1
 297 40 l 1
 287 40 l 1
 287 85 l 1
 287 130 l 1
 234 130 l 1
 182 130 l 1
 123 72 l 1
 64 13 l 1
 57 20 l 1
 50 27 l 1
 106 84 l 1
 163 140 l 1
 106 196 l 1
 50 253 l 1
 57 260 l 1
 64 267 l 1
 123 209 l 1
 181 150 l 1
 191 150 l 2
 197 150 201 151 201 151 c 0
 201 151 189 179 175 212 c 2
 149 273 l 1
 122 291 l 2
 107 301 94 310 93 311 c 0
 91 312 92 313 97 320 c 0
 100 324 102 328 102 328 c 0
 102 328 104 327 106 326 c 2
 109 324 l 1
 117 330 l 1
 125 336 l 1
 127 334 l 1
 129 331 l 1
 129 333 l 2
 128 335 128 337 128 337 c 0
 128 337 133 338 138 340 c 0
 148 343 147 344 151 331 c 0
 153 326 154 322 154 322 c 0
 154 322 154 326 155 331 c 0
 156 336 157 341 157 341 c 0
 157 341 161 341 165 340 c 1
 177 338 177 339 176 335 c 0
 174 324 174 324 182 335 c 2
607 204 m 1
 633 230 l 1
 577 230 l 1
 520 230 l 1
 523 228 l 2
 529 223 544 208 548 202 c 0
 556 189 562 175 565 160 c 0
 567 150 567 130 565 120 c 0
 562 104 555 89 546 76 c 0
 541 70 530 58 524 53 c 2
 521 50 l 1
 577 50 l 1
 632 50 l 1
 607 76 l 1
 581 101 l 1
 610 120 l 2
 626 130 638 140 638 140 c 0
 638 140 626 150 610 160 c 2
 581 179 l 1
 607 204 l 1
472 229 m 1
 465 230 447 229 440 228 c 0
 427 226 414 220 403 212 c 0
 359 179 355 114 394 76 c 0
 406 64 418 57 434 53 c 0
 441 51 443 51 457 51 c 0
 471 51 473 51 480 53 c 0
 496 57 509 65 520 76 c 0
 528 84 532 91 537 100 c 0
 557 139 546 186 511 212 c 0
 500 220 485 227 472 229 c 1
EndSplineSet
EndChar
StartChar: uni0256
Encoding: 598 598 64
Width: 496
VWidth: 0
Flags: W
HStem: 262 24<358.584 412.882> 309 25<98 206 230 327> 382 24<168.086 206 230 268.065> 597 121<110 115.035 149 287 320.965 326> 597 25<50 110 326 386>
VStem: 206 24<229 309 334 382>
LayerCount: 2
Fore
SplineSet
110 670 m 1xec
 110 718 l 1
 218 718 l 1
 326 718 l 1xf4
 326 670 l 1
 326 622 l 1
 356 622 l 1
 386 621 l 1
 386 609 l 1
 386 597 l 1
 353 597 l 2
 335 597 320 596 321 596 c 0
 323 595 331 581 336 572 c 0
 346 553 349 536 349 513 c 0
 349 502 349 495 348 489 c 0
 337 432 292 390 235 382 c 1
 230 382 l 1
 230 358 l 1
 230 334 l 1
 279 334 l 1
 327 334 l 1
 330 342 l 2
 331 346 334 351 336 354 c 0
 344 366 358 377 371 380 c 0
 379 382 393 382 401 380 c 0
 420 376 436 359 443 340 c 0
 445 333 445 331 445 321 c 0
 445 311 446 309 443 302 c 0
 438 286 426 275 412 268 c 0
 402 263 397 262 386 262 c 0
 375 262 370 263 360 268 c 0
 346 275 335 288 330 302 c 2
 327 309 l 1
 279 309 l 1
 230 309 l 1
 230 269 l 1
 230 229 l 1
 289 135 l 1
 321 83 348 40 348 40 c 0
 348 39 330 29 328 28 c 0
 328 28 303 67 273 115 c 0
 243 163 218 202 218 202 c 0
 218 202 193 163 163 115 c 0
 133 67 108 28 108 28 c 0
 106 29 88 39 88 40 c 0
 88 40 115 83 147 135 c 2
 206 229 l 1
 206 269 l 1
 206 309 l 1
 152 309 l 1
 98 309 l 1
 98 321 l 1
 98 333 l 1
 152 334 l 1
 206 334 l 1
 206 358 l 1
 206 382 l 1
 202 382 l 1
 192 383 179 387 170 391 c 0
 129 407 99 443 89 487 c 0
 87 495 87 499 87 513 c 0
 87 537 90 552 100 572 c 0
 104 581 113 595 115 596 c 0
 116 596 101 597 83 597 c 2
 50 597 l 1
 50 609 l 1
 50 621 l 1
 80 622 l 1
 110 622 l 1
 110 670 l 1xec
293 591 m 1
 287 597 l 1
 218 597 l 1
 149 597 l 1
 141 589 l 1
 99 547 100 479 142 437 c 0
 156 423 171 414 190 409 c 0
 199 407 201 406 218 406 c 0
 235 406 237 407 246 409 c 0
 265 414 280 424 294 437 c 0
 303 446 309 454 314 465 c 0
 335 507 327 559 293 591 c 1
403 353 m 0
 398 356 395 357 387 357 c 0
 377 357 374 356 367 352 c 0
 354 344 347 327 351 312 c 0
 354 302 360 294 370 289 c 0
 375 287 376 286 386 286 c 0
 396 286 397 287 402 289 c 0
 409 292 412 296 416 302 c 0
 427 320 422 343 403 353 c 0
EndSplineSet
EndChar
StartChar: uni0257
Encoding: 599 599 63
Width: 464
VWidth: 0
Flags: W
HStem: 22 106<89 144 175 193 271 289 320 375> 442 20G<328.419 361> 646 132<115 120.035 157 307 343.965 349> 646 27<50 115 349 414>
VStem: 89 104<22 128> 219 26<248 321 375 413> 271 104<22 128>
CounterMasks: 1 0e
LayerCount: 2
Fore
SplineSet
115 726 m 1xde
 115 778 l 1
 232 778 l 1
 349 778 l 1xee
 349 726 l 1
 349 674 l 1
 382 673 l 1
 414 673 l 1
 414 660 l 1
 414 647 l 1
 378 646 l 2
 358 646 343 645 344 645 c 0
 346 643 355 630 360 620 c 0
 371 599 374 581 374 556 c 0
 374 544 374 536 373 530 c 0
 361 469 312 423 250 414 c 1
 245 413 l 1
 245 394 l 1
 245 375 l 1
 299 419 l 1
 354 462 l 1
 361 453 l 2
 365 448 369 444 369 443 c 0
 370 442 353 428 312 395 c 0
 280 370 254 348 254 348 c 0
 254 348 280 326 312 301 c 0
 364 259 370 255 369 253 c 0
 368 252 365 247 361 242 c 2
 354 234 l 1
 299 277 l 1
 245 321 l 1
 245 284 l 1
 245 248 l 1
 283 188 l 1
 320 128 l 1
 348 128 l 1
 375 128 l 1
 375 75 l 1
 375 22 l 1
 323 22 l 1
 271 22 l 1
 271 75 l 1
 271 128 l 1
 280 128 l 2
 285 128 289 128 289 128 c 0
 289 130 232 219 231 218 c 0
 230 217 175 129 175 128 c 0
 175 128 179 128 184 128 c 2
 193 128 l 1
 193 75 l 1
 193 22 l 1
 141 22 l 1
 89 22 l 1
 89 75 l 1
 89 128 l 1
 116 128 l 1
 144 128 l 1
 181 188 l 1
 219 248 l 1
 219 331 l 1
 219 413 l 1
 214 414 l 1
 204 415 190 419 180 423 c 0
 135 440 102 479 92 527 c 0
 90 536 90 541 90 556 c 0
 90 582 93 598 104 620 c 0
 109 629 118 644 120 645 c 0
 121 645 106 646 86 646 c 2
 50 647 l 1
 50 660 l 1
 50 673 l 1
 83 673 l 1
 115 674 l 1
 115 726 l 1xde
314 640 m 1
 307 646 l 1
 232 646 l 1
 157 646 l 1
 149 638 l 1
 104 592 104 518 150 473 c 0
 165 458 182 449 202 443 c 0
 212 440 214 440 232 440 c 0
 250 440 252 440 262 443 c 0
 282 449 299 458 314 473 c 0
 324 483 330 491 336 503 c 0
 359 548 350 605 314 640 c 1
EndSplineSet
EndChar
StartChar: uni0258
Encoding: 600 600 62
Width: 852
VWidth: 0
Flags: W
HStem: 131 20<219.166 304.995> 150 20<615 802> 310 20<95 132> 370 20<152 172> 444 20G<172 192>
VStem: 132 20<330 370> 172 20<390 416> 535 17<148.904 154.6> 568 23<293.094 297.237>
LayerCount: 2
Fore
SplineSet
172 427 m 1xbf80
 172 464 l 1
 231 405 l 1
 290 346 l 1
 296 345 l 2
 305 342 319 335 327 329 c 1
 336 322 348 310 353 302 c 0
 361 289 367 275 370 260 c 0
 372 250 372 230 370 220 c 0
 366 199 355 179 342 165 c 0
 339 162 338 160 338 160 c 0
 338 160 349 150 362 139 c 0
 363 138 365 142 388 172 c 0
 402 191 414 206 414 206 c 0
 415 206 430 194 430 194 c 0
 430 194 418 178 404 159 c 2
 378 125 l 1
 387 118 l 1
 408 102 426 91 437 86 c 0
 443 84 454 80 454 81 c 0
 454 81 457 108 460 140 c 0
 463 172 466 199 466 200 c 0
 466 202 465 202 449 206 c 0
 439 208 431 210 431 210 c 0
 430 210 433 228 434 229 c 0
 434 229 442 228 451 226 c 0
 460 224 468 223 468 223 c 0
 468 223 469 232 470 242 c 0
 471 252 472 261 472 261 c 1
 492 259 l 0
 492 259 491 250 490 239 c 0
 489 228 488 219 488 219 c 0
 488 219 495 216 505 214 c 0
 515 212 523 210 523 210 c 1
 523 210 521 192 520 191 c 0
 520 191 512 192 503 194 c 1
 494 196 486 197 486 197 c 0
 475 82 l 1
 475 82 478 83 481 84 c 0
 492 88 507 95 525 109 c 1
 534 116 l 1
 535 122 l 2
 535 125 540 152 544 182 c 2
 552 237 l 1
 533 266 l 1
 514 294 l 1
 522 300 l 1
 530 306 l 1
 537 295 l 2
 545 284 545 284 543 295 c 0
 542 299 542 298 554 300 c 1
 558 301 562 301 562 301 c 0
 562 301 563 296 564 291 c 0
 565 286 565 282 565 282 c 0
 565 282 566 286 568 291 c 0
 572 304 571 303 581 300 c 0
 586 298 591 297 591 297 c 0
 591 297 591 295 590 293 c 2
 590 291 l 1
 592 294 l 1
 594 296 l 1
 602 290 l 1
 610 284 l 1
 613 286 l 1
 616 288 l 1
 618 286 l 2
 619 285 620 285 620 286 c 1
 620 287 623 299 626 314 c 1
 629 329 632 342 632 342 c 0
 632 342 650 339 651 338 c 0
 651 338 643 300 633 254 c 2
 615 171 l 1
 708 170 l 1
 802 170 l 1
 802 160 l 1
 802 150 l 1
 704 150 l 1
 606 150 l 1x7f80
 598 143 l 2
 593 139 581 129 571 121 c 0
 553 106 552 105 552 102 c 2
 552 99 l 1
 548 99 l 2
 545 99 545 99 537 93 c 0
 527 85 514 77 505 72 c 0
 497 68 484 63 477 62 c 0
 474 61 472 60 472 60 c 0
 471 59 452 60 445 62 c 0
 426 66 402 80 373 104 c 0
 370 107 366 109 366 109 c 0
 366 109 353 92 338 72 c 0
 323 52 310 35 310 35 c 1
 309 34 294 45 294 46 c 0
 294 46 307 63 323 84 c 2
 351 122 l 1
 337 134 l 2
 329 141 322 147 322 147 c 1
 322 147 319 146 316 144 c 0
 309 140 296 135 286 133 c 0
 279 131 277 131 262 131 c 0
 247 131 245 131 238 133 c 0
 200 142 170 169 158 206 c 0
 156 212 154 214 151 217 c 0
 141 228 50 329 50 330 c 0
 50 330 69 330 91 330 c 2
 132 330 l 1
 132 360 l 1
 132 390 l 1
 152 390 l 1
 172 390 l 1
 172 427 l 1xbf80
251 349 m 2
 258 350 l 1
 225 383 l 1
 192 416 l 1
 192 393 l 1
 192 370 l 1
 172 370 l 1
 152 370 l 1
 152 340 l 1
 152 310 l 1
 124 310 l 2
 106 310 95 310 95 310 c 0
 95 310 109 295 124 278 c 0
 150 249 152 247 152 249 c 0
 152 250 153 255 154 259 c 0
 159 289 178 317 205 334 c 0
 218 342 236 348 251 349 c 2
277 329 m 1
 270 330 252 329 245 328 c 0
 232 326 219 320 208 312 c 0
 164 279 160 214 199 176 c 0
 211 164 223 157 239 153 c 0
 246 151 248 151 262 151 c 0xbf80
 276 151 278 151 285 153 c 0
 301 157 314 165 325 176 c 0
 339 190 348 207 351 226 c 1
 358 274 325 321 277 329 c 1
614 261 m 0
 614 262 614 262 614 262 c 1
 613 262 573 235 572 234 c 0
 571 233 558 139 558 137 c 0
 558 136 561 138 575 150 c 0x7f80
 584 158 593 165 593 166 c 0
 593 167 598 188 604 213 c 0
 610 238 614 260 614 261 c 0
EndSplineSet
EndChar
StartChar: uni0259
Encoding: 601 601 61
Width: 857
VWidth: 0
Flags: W
HStem: 51 24<108 242 268.108 271 271.062 367.188> 171 24<450 499 523 548 573 599 625 649> 291 23<107 243 273.88 364.154> 315 22<523.872 560.795> 409 20G<630 649 669 681 715 727 740 751>
VStem: 499 24<62 171 195 302> 571 23<330.211 373.575>
LayerCount: 2
Fore
SplineSet
630 422 m 1
 635 426 640 429 640 429 c 0
 640 429 644 424 649 417 c 0
 658 404 658 403 656 416 c 0
 655 421 654 421 669 423 c 1
 674 424 678 423 678 423 c 0
 678 423 680 418 681 412 c 0
 682 406 683 401 683 401 c 0
 683 401 684 406 686 412 c 0
 691 428 690 426 702 422 c 0
 708 420 713 418 713 418 c 0
 713 418 714 416 713 414 c 2
 712 411 l 1
 715 414 l 1
 717 418 l 1
 727 410 l 1
 736 403 l 1
 740 405 l 2
 742 406 744 407 744 407 c 0
 744 407 748 403 751 398 c 0
 757 389 757 388 755 387 c 0
 754 386 739 376 721 364 c 2
 688 342 l 1
 657 269 l 2
 640 229 625 195 625 195 c 0
 625 195 631 195 638 195 c 2
 650 195 l 1
 720 265 l 1
 790 335 l 1
 799 326 l 1
 807 318 l 1
 740 250 l 1
 672 182 l 1
 740 114 l 1
 807 47 l 1
 799 38 l 1
 790 30 l 1
 719 100 l 1
 649 171 l 1
 586 171 l 1
 523 171 l 1
 523 116 l 1
 523 62 l 1
 511 62 l 1
 499 62 l 1
 499 116 l 1
 499 171 l 1
 474 170 l 1
 450 170 l 1
 449 160 l 1
 440 108 401 66 348 53 c 0
 340 51 337 51 319 51 c 0
 300 51 298 52 288 54 c 0
 282 55 277 57 275 58 c 2
 271 59 l 1
 271 55 l 1
 271 51 l 1
 161 51 l 1
 50 51 l 1
 90 91 l 2
 112 113 131 132 131 132 c 0
 131 132 115 144 95 157 c 0
 75 170 58 182 58 182 c 0
 58 182 75 194 95 207 c 0
 115 220 131 232 131 232 c 0
 131 232 113 251 91 273 c 0
 69 295 50 314 50 314 c 0
 50 314 100 314 161 314 c 2
 271 314 l 1
 271 310 l 2
 271 306 271 305 273 306 c 0
 292 311 297 313 314 313 c 1
 332 314 341 313 357 308 c 0
 369 305 387 295 397 288 c 0
 407 280 421 267 428 257 c 0
 439 241 447 221 449 203 c 2
 450 195 l 1
 474 195 l 1
 499 195 l 1
 499 248 l 1
 499 302 l 1
 511 302 l 1
 523 302 l 1
 523 248 l 1
 523 195 l 1
 535 195 l 1
 548 195 l 1
 555 250 l 2
 559 280 561 305 561 305 c 0
 561 305 552 308 541 310 c 1
 530 312 521 315 521 315 c 0
 521 317 525 337 526 337 c 0
 527 337 536 335 546 333 c 0
 556 331 565 330 565 330 c 0
 565 330 566 340 568 352 c 0
 570 364 571 375 571 375 c 0
 572 376 594 373 594 372 c 0
 594 372 594 362 592 350 c 0
 590 338 589 327 589 326 c 0
 589 324 592 323 611 319 c 0
 623 316 633 314 633 314 c 0
 633 313 629 292 628 291 c 0
 628 291 619 293 608 295 c 0
 597 297 588 299 587 299 c 0
 586 299 584 292 579 248 c 0
 575 220 573 195 573 195 c 0
 573 195 579 195 586 195 c 2
 599 195 l 1
 631 270 l 2
 649 312 664 346 664 347 c 0
 664 348 658 360 643 382 c 2
 621 415 l 1
 630 422 l 1
239 288 m 2
 243 291 l 1
 175 291 l 1
 107 291 l 1
 139 260 l 1
 170 228 l 1
 135 206 l 2
 116 194 101 182 101 182 c 0
 101 182 116 171 135 159 c 2
 170 136 l 1
 139 105 l 1
 108 75 l 1
 175 75 l 1
 242 75 l 1
 239 77 l 2
 232 83 218 97 212 105 c 0
 201 120 193 138 189 156 c 0
 187 164 187 168 187 182 c 0
 187 196 187 201 189 209 c 0
 193 226 200 242 210 257 c 0
 215 264 231 282 239 288 c 2
336 289 m 1
 328 290 307 290 299 288 c 0
 284 285 267 278 254 268 c 0
 201 228 196 152 243 106 c 0
 257 92 272 83 291 78 c 0
 300 76 302 75 319 75 c 0
 336 75 337 76 346 78 c 0
 365 83 380 92 394 105 c 0
 411 122 422 143 425 166 c 1
 434 224 394 280 336 289 c 1
EndSplineSet
EndChar
StartChar: uni025B
Encoding: 603 603 60
Width: 858
VWidth: 0
Flags: W
HStem: 45 24<108 242 270.312 271 279 367.998> 165 24<450 498 523 548 572 649> 284 25<108 242 268.062 271 271.094 369.587 589.125 629.188> 309 23<522.225 541> 350 20G<568.391 573.5>
VStem: 426 24<126.573 165 189 226.4> 498 24<57 165 189 297> 571 23<347 368.465>
LayerCount: 2
Fore
SplineSet
568 347 m 1xdf
 571 370 l 1
 573 370 l 2
 574 370 580 369 585 368 c 0
 592 367 594 367 594 366 c 0
 594 365 593 354 591 342 c 0
 589 330 589 319 589 319 c 0
 589 319 600 315 611 313 c 0
 622 311 632 308 632 308 c 0
 633 307 629 287 628 286 c 0
 628 286 617 287 606 290 c 2
 586 294 l 1
 585 291 l 2
 585 289 582 268 579 242 c 0
 576 216 573 194 573 192 c 2
 572 189 l 1
 611 189 l 1
 650 189 l 1
 720 259 l 1
 790 329 l 1
 798 320 l 1
 807 312 l 1
 739 244 l 1
 671 177 l 1
 739 109 l 1
 807 41 l 1
 798 33 l 1
 790 24 l 1
 720 95 l 1
 649 165 l 1
 586 165 l 1
 523 165 l 1
 522 111 l 1
 522 57 l 1
 510 57 l 1
 498 57 l 1
 498 111 l 1
 498 165 l 1
 474 165 l 1
 450 165 l 1
 450 161 l 1
 447 144 444 131 437 118 c 0
 421 86 393 62 359 51 c 0
 346 47 335 45 319 45 c 0
 304 45 291 47 279 51 c 2
 271 54 l 1
 271 49 l 1
 271 45 l 1
 161 45 l 1
 50 45 l 1
 91 86 l 2
 116 111 132 127 131 127 c 0
 119 135 58 177 58 177 c 0
 58 177 119 218 131 226 c 0
 132 226 116 242 91 267 c 0
 69 289 51 308 51 308 c 0
 51 308 101 309 161 309 c 2
 271 309 l 1xef
 271 304 l 1
 271 300 l 1
 277 302 l 2
 291 307 299 308 319 308 c 0
 333 308 339 307 345 306 c 0
 384 298 418 272 436 237 c 0
 444 222 447 212 450 193 c 1
 450 189 l 1
 474 189 l 1
 498 189 l 1
 498 243 l 1
 498 297 l 1
 510 297 l 1
 522 297 l 1
 522 243 l 1
 522 189 l 1
 535 189 l 1
 548 189 l 1
 549 193 l 2
 551 203 561 297 561 298 c 0
 561 299 555 301 541 304 c 2
 521 309 l 1
 521 312 l 2
 521 318 525 332 526 332 c 0
 527 332 536 330 546 328 c 0
 556 326 565 324 565 324 c 0
 565 324 567 335 568 347 c 1xdf
242 284 m 0
 242 284 212 285 175 285 c 0
 138 285 108 284 108 284 c 0
 108 284 122 270 139 253 c 0
 158 234 169 222 168 222 c 0
 156 215 101 177 101 177 c 0
 101 177 156 138 168 131 c 0
 169 131 158 119 139 100 c 2
 108 69 l 1
 175 69 l 1
 242 69 l 1
 235 75 l 2
 211 94 194 124 189 155 c 0
 187 167 187 188 189 199 c 0
 192 217 199 235 209 250 c 0
 216 260 228 273 236 279 c 0
 239 281 242 284 242 284 c 0
339 283 m 0
 328 285 307 284 297 282 c 0
 246 271 211 229 211 177 c 0
 211 131 239 91 282 75 c 0
 294 70 304 69 319 69 c 0
 349 69 375 80 396 101 c 0
 405 110 409 117 415 128 c 0
 423 144 426 158 426 177 c 0
 426 195 423 209 415 225 c 0
 400 255 372 277 339 283 c 0
EndSplineSet
EndChar
StartChar: uni025C
Encoding: 604 604 59
Width: 858
VWidth: 0
Flags: W
HStem: 41 24<109 242 269.194 369.202> 161 24<451 499 523 549 573 599 626 649> 281 23<108 243 273.448 365.02> 399 20G<632 649 715 727 740 752>
VStem: 426 24<185 222.23> 499 24<52 161 185 292> 692 22<401.21 410.753>
LayerCount: 2
Fore
SplineSet
632 413 m 0
 637 416 641 419 641 419 c 0
 641 419 644 414 649 407 c 0
 654 400 657 395 657 396 c 0
 657 397 657 400 656 403 c 0
 655 406 656 410 656 410 c 0
 657 411 678 414 679 413 c 0
 679 413 680 408 681 402 c 0
 682 396 683 392 683 392 c 0
 683 392 686 398 688 404 c 0
 690 410 692 415 692 415 c 0
 692 416 713 409 714 408 c 0
 714 408 714 406 713 404 c 2
 712 401 l 1
 715 404 l 1
 718 408 l 1
 727 400 l 1
 736 393 l 1
 740 395 l 2
 742 396 745 397 745 397 c 0
 745 397 749 393 752 388 c 0
 758 379 758 378 756 377 c 0
 755 376 739 366 721 354 c 2
 689 332 l 1
 657 259 l 2
 640 219 626 185 626 185 c 0
 626 185 631 185 638 185 c 2
 650 185 l 1
 720 255 l 1
 790 325 l 1
 799 316 l 1
 808 308 l 1
 740 240 l 1
 672 172 l 1
 740 104 l 1
 808 37 l 1
 799 28 l 1
 790 20 l 1
 720 90 l 1
 649 161 l 1
 586 161 l 1
 523 161 l 1
 523 106 l 1
 523 52 l 1
 511 52 l 1
 499 52 l 1
 499 106 l 1
 499 161 l 1
 475 160 l 1
 451 160 l 1
 450 155 l 2
 448 141 442 122 435 110 c 0
 416 76 386 52 348 43 c 0
 340 41 337 41 319 41 c 0
 300 41 299 42 289 44 c 0
 283 45 277 47 275 48 c 2
 272 49 l 1
 272 45 l 1
 272 41 l 1
 161 41 l 1
 50 41 l 1
 91 81 l 2
 113 103 131 122 131 122 c 0
 131 122 115 134 95 147 c 0
 75 160 58 172 58 172 c 0
 58 172 75 184 95 197 c 0
 115 210 131 222 131 222 c 0
 131 222 113 241 91 263 c 0
 69 285 51 304 51 304 c 0
 51 304 100 304 161 304 c 2
 271 304 l 1
 271 300 l 2
 271 296 272 295 274 296 c 0
 293 301 298 303 315 303 c 0
 328 303 333 303 340 302 c 0
 369 297 393 284 414 263 c 0
 427 250 435 237 442 220 c 0
 446 211 450 193 450 188 c 2
 450 185 l 1
 475 185 l 1
 499 185 l 1
 499 238 l 1
 499 292 l 1
 511 292 l 1
 523 292 l 1
 523 238 l 1
 523 185 l 1
 536 185 l 1
 549 185 l 1
 556 240 l 2
 560 270 562 295 562 295 c 1
 562 295 553 297 543 299 c 0
 533 301 524 304 523 304 c 2
 520 305 l 1
 523 315 l 2
 524 321 526 327 526 327 c 0
 526 327 535 325 546 323 c 0
 556 321 565 320 565 320 c 0
 565 320 566 330 568 342 c 0
 570 354 572 365 572 365 c 0
 573 366 595 363 595 362 c 0
 595 362 594 352 592 340 c 0
 590 328 589 317 589 316 c 0
 589 314 592 313 611 309 c 0
 623 306 633 304 633 304 c 0
 633 303 629 282 628 281 c 0
 628 281 619 283 608 285 c 0
 597 287 588 289 587 289 c 0
 586 289 584 282 579 238 c 0
 575 210 573 185 573 185 c 0
 573 185 579 185 586 185 c 2
 599 185 l 1
 632 261 l 2
 650 303 665 338 665 339 c 0
 665 340 655 355 643 373 c 0
 631 391 622 406 622 406 c 0
 622 406 627 410 632 413 c 0
239 278 m 1
 243 281 l 1
 176 281 l 1
 108 281 l 1
 139 250 l 1
 170 218 l 1
 136 196 l 2
 117 184 102 172 102 172 c 0
 102 172 117 161 136 149 c 2
 170 126 l 1
 139 95 l 1
 109 65 l 1
 176 65 l 1
 242 65 l 1
 239 67 l 2
 232 72 219 85 213 93 c 0
 201 108 193 129 189 148 c 0
 187 160 187 184 189 196 c 0
 193 215 201 234 212 249 c 0
 218 257 231 271 239 278 c 1
337 279 m 1
 329 280 307 280 299 278 c 0
 278 274 256 263 241 247 c 0
 210 214 202 167 222 126 c 0
 234 101 255 81 281 71 c 1
 294 66 301 65 320 65 c 0
 336 65 338 66 347 68 c 0
 366 73 381 82 395 96 c 0
 409 110 419 126 424 146 c 0
 426 154 426 157 426 172 c 0
 426 187 426 190 424 198 c 0
 413 240 379 272 337 279 c 1
EndSplineSet
EndChar
StartChar: uni025E
Encoding: 606 606 58
Width: 857
VWidth: 0
Flags: W
HStem: 41 24<488.324 585.938 586 588.892 615 749> 161 24<208 232 258 284 309 334 358 407> 281 23<492.578 585.15 614 750> 305 22<296.205 333.128> 397 2G<106 117 130 142 176 188 208 226>
VStem: 265 24<320.007 363.575> 334 24<52 161 185 292>
LayerCount: 2
Fore
SplineSet
208 407 m 2
 216 419 l 1
 226 412 l 1
 236 405 l 1
 214 372 l 2
 199 350 193 338 193 337 c 0
 193 336 208 302 226 260 c 2
 258 185 l 1
 271 185 l 2
 278 185 284 185 284 185 c 0
 284 185 282 210 278 238 c 0
 273 282 271 289 270 289 c 0
 269 289 260 287 249 285 c 0
 238 283 229 281 229 281 c 0
 228 282 224 303 224 304 c 0
 224 304 234 306 246 309 c 0
 265 313 268 314 268 316 c 0
 268 317 267 328 265 340 c 0
 263 352 263 362 263 362 c 0
 263 363 285 366 286 365 c 0
 286 365 287 354 289 342 c 0
 291 330 292 320 292 320 c 0
 292 320 301 321 311 323 c 0
 321 325 330 327 331 327 c 0
 332 327 336 307 336 305 c 0
 336 305 327 302 316 300 c 1
 305 298 296 295 296 295 c 0
 296 295 298 270 302 240 c 2
 309 185 l 1
 322 185 l 1
 334 185 l 1
 334 238 l 1
 334 292 l 1
 346 292 l 1
 358 292 l 1
 358 238 l 1
 358 185 l 1
 383 185 l 1
 407 185 l 1
 408 195 l 2
 415 236 443 271 480 290 c 0
 501 300 518 304 543 303 c 1
 560 303 565 301 584 296 c 0
 586 295 586 296 586 300 c 2
 586 304 l 1
 697 304 l 2
 758 304 807 304 807 304 c 0
 807 304 788 285 766 263 c 0
 744 241 726 222 726 222 c 0
 726 222 742 210 762 197 c 0
 782 184 799 172 799 172 c 0
 799 172 782 160 762 147 c 0
 742 134 726 122 726 122 c 0
 726 122 745 103 767 81 c 2
 807 41 l 1
 696 41 l 1
 586 41 l 1
 586 45 l 1
 586 49 l 1
 582 48 l 2
 580 47 575 45 569 44 c 0
 559 42 557 41 538 41 c 0
 515 41 508 42 490 49 c 0
 472 56 458 67 443 82 c 0
 425 101 412 124 408 150 c 1
 407 160 l 1
 383 160 l 1
 358 161 l 1
 358 106 l 1
 358 52 l 1
 346 52 l 1
 334 52 l 1
 334 106 l 1
 334 161 l 1
 271 161 l 1
 208 161 l 1
 138 90 l 1
 67 20 l 1
 58 28 l 1
 50 37 l 1
 117 104 l 1
 185 172 l 1
 117 240 l 1
 50 308 l 1
 58 316 l 1
 67 325 l 1
 137 255 l 1
 207 185 l 1
 219 185 l 2
 226 185 232 185 232 185 c 0
 232 185 217 219 200 259 c 2
 169 332 l 1
 136 354 l 2
 118 366 103 376 102 377 c 0
 100 378 100 379 106 388 c 0
 109 393 113 397 113 397 c 0
 113 397 115 396 117 395 c 2
 121 393 l 1
 130 400 l 1
 140 408 l 1
 142 404 l 1
 145 401 l 1
 144 404 l 2
 143 406 144 408 144 408 c 0
 144 408 149 410 155 412 c 0
 167 416 166 418 171 402 c 0
 173 396 174 391 174 391 c 0
 174 391 175 396 176 402 c 0
 177 408 179 413 179 413 c 0
 179 413 183 414 188 413 c 1
 203 411 202 410 201 406 c 0
 199 393 199 394 208 407 c 2
718 250 m 1
 750 281 l 1
 682 281 l 1
 614 281 l 1
 618 278 l 2
 626 272 642 254 647 247 c 0
 657 232 664 214 668 196 c 0
 670 184 670 160 668 148 c 0
 664 129 656 110 645 95 c 0
 639 87 625 73 618 67 c 2
 615 65 l 1
 682 65 l 1
 749 65 l 1
 718 95 l 1
 687 126 l 1
 722 149 l 2
 741 161 756 172 756 172 c 0
 756 172 741 184 722 196 c 2
 687 218 l 1
 718 250 l 1
556 279 m 1
 548 280 526 280 518 278 c 0
 503 275 486 268 473 258 c 0
 421 219 415 142 462 96 c 0
 476 82 492 73 511 68 c 0
 520 66 521 65 538 65 c 0
 555 65 557 66 566 68 c 0
 585 73 600 82 614 95 c 0
 623 104 630 113 635 124 c 0
 659 171 645 227 603 259 c 0
 590 269 572 276 556 279 c 1
EndSplineSet
EndChar
StartChar: uni025F
Encoding: 607 607 57
Width: 496
VWidth: 0
Flags: W
HStem: 307 37<327 338> 319 25<98 206 230 327> 342 25<363.724 407.304> 392 24<168.086 206 230 265.652> 607 121<110 115.035 149 287 320.965 326> 607 25<50 110 326 386>
VStem: 206 24<239 319 344 392> 326 24<307 318.554> 422 24<43 316>
LayerCount: 2
Fore
SplineSet
110 680 m 1x5780
 110 728 l 1
 218 728 l 1
 326 728 l 1x1b80
 326 680 l 1
 326 632 l 1
 356 632 l 1
 386 631 l 1
 386 619 l 1
 386 607 l 1
 353 607 l 2
 335 607 320 606 321 606 c 0
 323 605 331 591 336 582 c 0
 346 563 349 546 349 523 c 0
 349 512 349 505 348 499 c 0
 337 442 292 400 235 392 c 1
 230 392 l 1
 230 368 l 1
 230 344 l 1
 284 344 l 1x5780
 338 344 l 1x9380
 345 351 l 2
 357 362 369 367 386 367 c 0
 391 367 398 367 401 366 c 0
 420 362 436 345 443 326 c 1
 446 318 l 1
 446 181 l 1
 446 43 l 1
 434 43 l 1
 422 43 l 1
 422 180 l 1
 422 316 l 1
 419 321 l 2
 416 328 410 335 403 339 c 0
 397 342 396 342 386 342 c 0x3380
 376 342 375 342 369 339 c 0
 359 333 351 323 350 312 c 2
 350 307 l 1
 338 307 l 1
 326 307 l 1x9380
 326 313 l 1
 327 319 l 1
 278 319 l 1
 230 319 l 1
 230 279 l 1
 230 239 l 1
 289 145 l 1
 321 93 348 50 348 50 c 0
 348 49 330 39 328 38 c 0
 328 38 303 77 273 125 c 0
 243 173 218 212 218 212 c 0
 218 212 193 173 163 125 c 0
 133 77 108 38 108 38 c 0
 106 39 88 49 88 50 c 0
 88 50 115 93 147 145 c 2
 206 239 l 1
 206 279 l 1
 206 319 l 1
 152 319 l 1
 98 319 l 1
 98 331 l 1
 98 343 l 1
 152 344 l 1
 206 344 l 1
 206 368 l 1
 206 392 l 1
 201 392 l 1
 191 393 179 397 170 401 c 0
 129 417 99 453 89 497 c 0
 87 505 87 509 87 523 c 0
 87 547 90 562 100 582 c 0
 104 591 113 605 115 606 c 0
 116 606 101 607 83 607 c 2
 50 607 l 1
 50 619 l 1
 50 631 l 1
 80 632 l 1
 110 632 l 1
 110 680 l 1x5780
293 601 m 1
 287 607 l 1
 218 607 l 1
 149 607 l 1
 141 599 l 1
 99 557 100 489 142 447 c 0
 156 433 171 424 190 419 c 0
 199 417 201 416 218 416 c 0
 235 416 237 417 246 419 c 0
 265 424 279 434 293 447 c 0
 302 456 309 464 314 475 c 0
 335 517 327 569 293 601 c 1
EndSplineSet
EndChar
StartChar: uni0260
Encoding: 608 608 56
Width: 476
VWidth: 0
Flags: W
HStem: 32 96<86 136 165.002 182 254 269.998 299 350> 320 24<98 206 230 327.998> 417 20G<319 342> 608 120<110 115.035 149 286 320.964 326> 608 24<50 110 326 386>
VStem: 86 96<32 128> 206 24<239 320 344 392> 254 96<32 128>
CounterMasks: 1 07
LayerCount: 2
Fore
SplineSet
110 680 m 1xef
 110 728 l 1
 218 728 l 1
 326 728 l 1xf7
 326 680 l 1
 326 632 l 1
 356 632 l 1
 386 632 l 1
 386 620 l 1
 386 608 l 1
 352 608 l 2
 334 608 320 606 321 606 c 0
 323 605 331 592 336 583 c 0
 346 564 349 547 349 524 c 0
 349 507 348 498 343 483 c 0
 337 466 326 446 314 434 c 0
 308 428 308 428 319 435 c 1
 322 437 l 1
 375 384 l 1
 427 332 l 1
 392 297 l 2
 373 278 356 263 356 263 c 0
 356 263 351 276 346 291 c 2
 337 320 l 1
 283 320 l 1
 230 320 l 1
 230 279 l 1
 230 239 l 1
 264 184 l 1
 299 128 l 1
 324 128 l 1
 350 128 l 1
 350 80 l 1
 350 32 l 1
 302 32 l 1
 254 32 l 1
 254 80 l 1
 254 128 l 1
 262 128 l 2
 267 128 270 129 270 129 c 0
 270 131 218 213 217 212 c 0
 216 211 165 130 165 129 c 0
 165 129 168 128 173 128 c 2
 182 128 l 1
 182 80 l 1
 182 32 l 1
 134 32 l 1
 86 32 l 1
 86 80 l 1
 86 128 l 1
 111 128 l 1
 136 128 l 1
 171 184 l 1
 206 239 l 1
 206 279 l 1
 206 320 l 1
 152 320 l 1
 98 320 l 1
 98 332 l 1
 98 344 l 1
 152 344 l 1
 206 344 l 1
 206 368 l 1
 206 392 l 1
 201 393 l 1
 191 394 179 397 170 401 c 0
 129 417 98 453 88 497 c 0
 86 505 86 510 86 524 c 0
 86 548 90 563 100 583 c 0
 104 592 113 605 115 606 c 0
 116 606 101 608 83 608 c 2
 50 608 l 1
 50 620 l 1
 50 632 l 1
 80 632 l 1
 110 632 l 1
 110 680 l 1xef
293 601 m 1
 286 608 l 1
 217 608 l 1
 149 608 l 1
 141 600 l 1
 99 558 100 490 142 448 c 0
 156 434 171 425 190 420 c 0
 199 418 201 417 218 417 c 0
 235 417 236 418 245 420 c 0
 264 425 279 434 293 447 c 0
 302 456 309 465 314 476 c 0
 335 518 327 569 293 601 c 1
315 385 m 0
 308 405 303 422 302 422 c 1
 302 422 300 421 298 419 c 0
 292 414 276 405 266 401 c 0
 257 397 243 394 234 393 c 1
 230 392 l 1
 230 368 l 1
 230 344 l 1
 279 344 l 2
 326 344 328 344 328 346 c 0
 328 347 322 365 315 385 c 0
380 320 m 2
 392 332 l 1
 367 357 l 2
 353 371 342 382 342 381 c 0
 348 362 367 308 367 308 c 0
 367 308 373 313 380 320 c 2
EndSplineSet
EndChar
StartChar: uni0262
Encoding: 610 610 55
Width: 514
VWidth: 0
Flags: W
HStem: 333 27<103 222 248 355.998> 413 26<182.003 222 248 287.528> 441 20G<346 369.702> 649 133<116 122.034 159 310 347.965 354> 649 28<50 116 354 420>
VStem: 222 26<245 333 360 413>
LayerCount: 2
Fore
SplineSet
116 730 m 1xec
 116 782 l 1
 235 782 l 1
 354 782 l 1xf4
 354 730 l 1
 354 677 l 1
 387 677 l 1
 420 676 l 1
 420 663 l 1
 420 649 l 1
 382 649 l 2
 362 649 347 648 348 648 c 0
 350 647 359 632 365 622 c 0
 376 601 379 582 379 557 c 0
 379 538 378 528 372 512 c 0
 365 493 354 472 341 459 c 0
 334 452 334 451 346 459 c 1
 349 461 l 1
 408 404 l 1
 465 346 l 1
 426 307 l 2
 405 286 387 270 387 270 c 0
 387 270 382 286 376 302 c 2
 366 333 l 1
 306 333 l 1
 248 333 l 1
 248 289 l 1
 248 245 l 1
 312 141 l 1
 347 84 377 37 377 37 c 0
 377 36 358 25 356 24 c 0
 356 24 327 66 294 119 c 0
 261 172 235 215 235 215 c 0
 235 215 207 172 174 119 c 0
 141 66 113 24 113 24 c 0
 111 25 92 36 92 37 c 0
 92 37 122 84 157 141 c 2
 222 245 l 1
 222 289 l 1
 222 333 l 1
 162 333 l 1
 103 333 l 1
 103 346 l 1
 103 359 l 1
 162 360 l 1
 222 360 l 1
 222 386 l 1
 222 413 l 1
 216 413 l 1
 205 414 192 419 182 423 c 0
 137 441 103 480 92 528 c 0
 90 537 90 542 90 557 c 0
 90 583 94 600 105 622 c 0
 109 632 120 647 122 648 c 0
 123 648 106 649 86 649 c 2
 50 649 l 1
 50 663 l 1
 50 676 l 1
 83 677 l 1
 116 677 l 1
 116 730 l 1xec
317 643 m 1
 310 649 l 1
 234 649 l 1
 159 649 l 1
 150 641 l 1
 104 595 105 519 151 473 c 0
 166 458 183 449 204 443 c 0
 214 441 216 439 235 439 c 0
 254 439 255 441 265 443 c 0
 286 449 302 459 317 473 c 0
 327 483 335 492 341 504 c 0
 364 550 354 608 317 643 c 1
342 404 m 0
 334 426 328 445 327 445 c 1
 327 445 325 445 323 443 c 0
 316 437 299 427 288 423 c 0
 278 419 263 414 253 413 c 1
 248 413 l 1
 248 386 l 1
 248 360 l 1
 302 360 l 2
 354 360 356 360 356 362 c 0
 356 363 350 382 342 404 c 0
413 333 m 2
 426 346 l 1
 399 374 l 2
 384 389 371 401 371 400 c 0
 378 379 399 319 399 319 c 0
 399 319 405 325 413 333 c 2
EndSplineSet
EndChar
StartChar: uni0263
Encoding: 611 611 54
Width: 496
VWidth: 0
Flags: W
HStem: 346 29<62 188 216 331.043> 431 28<143.759 188 216 259.725> 462 20G<320 344>
VStem: 188 28<252 346 375 431>
LayerCount: 2
Fore
SplineSet
175 736 m 0
 187 738 215 738 227 736 c 0
 260 730 289 716 313 691 c 0
 334 669 347 643 353 613 c 0
 356 599 356 570 353 556 c 0
 347 527 334 499 315 480 c 0
 308 473 307 472 320 480 c 1
 324 482 l 1
 385 421 l 1
 446 360 l 1
 405 319 l 2
 383 297 363 279 363 279 c 0
 363 279 358 295 352 313 c 2
 341 346 l 1
 278 346 l 1
 216 346 l 1
 216 299 l 1
 216 252 l 1
 284 143 l 1
 322 83 353 32 353 32 c 0
 353 31 333 19 331 18 c 0
 330 18 301 63 266 119 c 0
 231 175 202 221 202 221 c 0
 202 221 173 175 138 119 c 0
 103 63 74 18 73 18 c 0
 71 19 50 31 50 32 c 0
 50 32 81 83 119 143 c 1
 188 252 l 1
 188 299 l 1
 188 346 l 1
 125 346 l 1
 62 346 l 1
 62 360 l 1
 62 374 l 1
 125 375 l 1
 188 375 l 1
 188 403 l 1
 188 431 l 1
 182 431 l 1
 171 433 157 437 146 441 c 0
 98 460 62 502 51 553 c 0
 48 569 48 599 51 615 c 0
 61 662 91 701 133 722 c 0
 147 729 160 733 175 736 c 0
222 709 m 1
 212 710 188 710 178 708 c 0
 160 705 141 696 126 685 c 0
 65 639 58 549 113 495 c 0
 129 479 147 469 169 463 c 0
 179 460 182 459 202 459 c 0
 222 459 224 460 234 463 c 0
 256 469 274 479 290 495 c 0
 310 515 322 538 326 565 c 1
 336 633 289 698 222 709 c 1
316 422 m 0
 308 446 301 465 300 465 c 1
 299 465 297 464 295 462 c 0
 288 456 270 446 258 441 c 0
 247 437 232 433 221 431 c 1
 216 431 l 1
 216 403 l 1
 216 375 l 1
 274 375 l 2
 328 375 332 375 331 377 c 0
 331 378 324 398 316 422 c 0
391 346 m 2
 406 360 l 1
 376 390 l 2
 360 406 347 418 347 417 c 0
 354 395 375 333 376 332 c 0
 376 332 383 338 391 346 c 2
EndSplineSet
EndChar
StartChar: uni0264
Encoding: 612 612 53
Width: 926
VWidth: 0
Flags: W
HStem: 94 34<383.823 411.297> 140 22<671.026 877> 316 22<99 140> 382 22<162 184> 466 20G<184 203.692>
VStem: 140 22<338 382> 184 22<404 432> 381 22<192.514 286.029> 583 19<137.165 152.385> 593 21<290.282 305.328> 690 21<305.191 349.047>
LayerCount: 2
Fore
SplineSet
184 445 m 1xffa0
 184 486 l 1
 248 421 l 1
 313 356 l 1
 321 354 l 2
 341 348 361 334 374 319 c 0
 387 303 396 287 401 266 c 0
 403 257 403 256 403 239 c 0
 403 222 403 221 401 212 c 0
 396 191 387 174 373 158 c 0
 369 154 367 151 367 151 c 0
 367 150 393 128 394 128 c 0
 394 128 407 144 422 164 c 0
 437 184 450 201 451 201 c 0
 452 201 456 198 460 195 c 2
 468 189 l 1
 466 186 l 2
 465 185 451 167 437 148 c 1
 411 113 l 1
 414 111 l 1
 483 55 507 51 557 85 c 0
 575 97 582 103 583 106 c 0xffa0
 583 107 587 138 592 173 c 2
 601 237 l 1
 581 268 l 2
 570 285 560 299 560 299 c 0
 560 299 564 302 569 305 c 2
 578 311 l 1
 586 300 l 2
 590 294 593 289 593 290 c 0
 592 296 591 303 591 303 c 0
 591 303 611 307 612 307 c 0
 612 307 613 302 614 297 c 0xff60
 615 292 616 286 616 286 c 0
 616 286 619 291 621 297 c 2
 625 308 l 1
 630 307 l 2
 633 306 637 304 640 303 c 0
 645 301 646 301 645 299 c 0
 644 296 644 296 646 299 c 0
 647 301 648 301 649 300 c 0
 650 300 653 297 657 294 c 0
 666 287 666 287 669 290 c 0
 673 293 673 292 675 290 c 1
 677 288 675 283 684 325 c 0
 687 339 690 351 690 351 c 0
 690 351 695 350 701 349 c 0
 711 347 711 347 711 345 c 0
 711 344 702 302 691 253 c 0
 680 204 671 164 671 163 c 0
 671 162 706 162 774 162 c 2
 877 162 l 1
 877 151 l 1
 877 140 l 1
 769 140 l 1
 661 140 l 1
 641 123 l 2
 629 113 616 102 611 98 c 1
 604 92 602 90 602 88 c 0
 602 84 602 84 598 84 c 0
 594 84 593 84 584 77 c 0
 533 38 501 32 460 52 c 0
 445 59 433 69 413 84 c 0
 403 92 398 95 397 94 c 0
 396 94 382 75 366 53 c 0
 350 31 336 13 336 13 c 1
 335 13 319 25 319 26 c 0
 319 26 332 45 349 67 c 0
 366 89 380 107 380 108 c 0
 380 109 375 115 366 122 c 0
 358 129 351 134 350 135 c 0
 348 137 348 137 339 132 c 0
 321 123 304 118 283 118 c 0
 268 118 257 120 245 124 c 1
 226 130 212 140 198 154 c 0
 184 168 174 183 168 201 c 2
 166 209 l 1
 108 273 l 2
 76 308 50 338 50 338 c 0
 50 338 69 338 95 338 c 2
 140 338 l 1
 140 371 l 1
 140 404 l 1
 162 404 l 1
 184 404 l 1
 184 445 l 1xffa0
242 396 m 0
 223 415 206 432 206 432 c 0
 206 432 206 421 206 407 c 2
 206 382 l 1
 184 382 l 1
 162 382 l 1
 162 349 l 1
 162 316 l 1
 130 316 l 2
 113 316 99 316 99 316 c 0
 99 316 113 300 130 281 c 2
 162 246 l 1
 163 254 l 2
 166 281 179 306 198 325 c 1
 218 345 244 357 271 359 c 0
 275 359 278 360 278 360 c 0
 278 360 262 376 242 396 c 0
301 336 m 0
 291 338 273 338 263 336 c 0
 201 323 167 258 192 200 c 0
 204 172 228 152 259 143 c 1
 268 140 295 141 305 143 c 0
 317 146 329 151 340 158 c 0
 347 163 360 176 365 184 c 0
 371 192 376 204 379 214 c 1
 381 222 381 224 381 239 c 0
 381 254 381 256 379 264 c 0
 376 274 370 288 364 296 c 0
 355 308 338 323 325 329 c 0
 317 333 309 335 301 336 c 0
659 210 m 2
 665 239 670 262 670 263 c 0
 670 263 659 257 646 248 c 2
 623 232 l 1
 615 180 l 2
 611 151 608 126 608 125 c 0
 608 123 609 125 636 148 c 2
 647 157 l 1
 659 210 l 2
EndSplineSet
EndChar
StartChar: uni0266
Encoding: 614 614 52
Width: 518
VWidth: 0
Flags: W
HStem: 122 28<364 392.884> 351 29<115 203 231 459> 437 29<231 276.544>
VStem: 203 28<280 351 380 436.996>
LayerCount: 2
Fore
SplineSet
188 750 m 0
 199 752 230 752 241 750 c 1
 265 744 291 735 309 723 c 0
 320 713 337 695 345 684 c 0
 357 665 368 641 371 619 c 1
 373 609 l 1
 383 604 l 1
 395 598 408 592 418 582 c 0
 440 561 457 534 469 494 c 0
 498 402 495 281 456 201 c 0
 432 152 397 122 362 122 c 1
 353 122 l 1
 314 154 l 2
 292 172 274 184 274 184 c 0
 274 184 273 184 274 183 c 1
 274 182 296 149 324 106 c 0
 352 63 371 29 371 29 c 0
 369 28 348 13 347 13 c 0
 347 13 317 62 281 118 c 0
 245 174 215 223 215 223 c 0
 215 223 185 174 149 118 c 0
 113 62 84 13 84 13 c 0
 83 13 62 28 60 29 c 0
 60 29 90 78 128 139 c 0
 166 200 196 247 196 247 c 0
 184 257 50 363 50 364 c 0
 50 364 73 384 101 406 c 0
 129 428 153 448 153 448 c 0
 153 449 151 452 145 454 c 0
 101 476 70 515 60 563 c 0
 57 580 57 609 60 626 c 0
 70 674 101 714 145 735 c 0
 159 742 173 748 188 750 c 0
237 723 m 1
 227 724 203 722 193 720 c 0
 174 717 153 708 138 697 c 0
 75 649 69 559 125 504 c 0
 139 490 156 479 174 472 c 1
 181 470 180 471 182 472 c 0
 188 475 345 601 345 602 c 0
 345 602 344 607 343 614 c 0
 335 669 291 713 237 723 c 1
384 573 m 0
 378 575 376 577 375 577 c 0
 374 577 371 574 370 566 c 0
 360 513 323 467 273 447 c 0
 263 441 246 438 236 437 c 1
 231 437 l 1
 231 410 l 1
 231 380 l 1
 294 380 l 1
 418 380 459 380 459 380 c 0
 460 381 458 414 456 426 c 0
 449 462 438 496 426 524 c 0
 416 545 398 563 384 573 c 0
339 556 m 0
 340 558 341 560 341 560 c 1
 340 560 293 522 225 467 c 1
 221 466 l 1
 231 466 l 2
 279 469 325 508 339 556 c 0
200 437 m 0
 199 437 196 438 193 438 c 2
 188 438 l 1
 151 410 l 1
 115 380 l 1
 157 380 l 1
 203 380 l 1
 203 410 l 2
 203 432 201 437 200 437 c 0
459 339 m 1
 459 351 l 1
 408 351 l 2
 380 351 329 351 294 351 c 2
 231 351 l 1
 231 305 l 1
 231 257 l 1
 297 204 l 1
 364 150 l 1
 368 150 l 2
 378 152 397 165 407 177 c 0
 436 213 452 266 459 339 c 1
203 315 m 1
 203 351 l 1
 157 351 l 2
 133 351 115 351 115 351 c 0
 115 351 134 334 158 315 c 2
 203 280 l 1
 203 315 l 1
EndSplineSet
EndChar
StartChar: uni0268
Encoding: 616 616 51
Width: 803
VWidth: 0
Flags: W
HStem: 130 20<570.37 753> 354 20G<150.857 193>
VStem: 302 21<177.407 263.294> 485 18<88.7039 91.9988 128.89 145.381> 493 20<265.046 278> 523 19<275.969 280.281> 583 19<278.334 320.094>
LayerCount: 2
Fore
SplineSet
111 318 m 0xf6
 145 349 173 374 173 374 c 0
 173 374 183 364 195 352 c 2
 217 330 l 1
 223 329 l 1
 228 329 l 1
 247 348 l 1
 266 367 l 1
 273 360 l 1
 280 353 l 1
 265 338 l 2
 251 324 250 324 252 323 c 0
 256 322 269 316 274 312 c 0
 299 295 316 268 321 238 c 0
 322 234 323 226 323 220 c 0
 323 208 321 198 318 187 c 0
 314 173 306 160 295 147 c 0
 292 143 289 140 289 140 c 0
 289 139 313 119 314 119 c 0
 314 119 325 134 339 152 c 0
 353 170 364 185 365 185 c 0
 366 185 370 183 374 180 c 2
 381 174 l 1
 379 172 l 2
 378 171 366 155 353 137 c 1
 329 105 l 1
 332 104 l 1
 357 83 375 71 390 65 c 0
 396 63 404 60 405 61 c 0
 417 182 l 0
 417 182 408 184 399 186 c 0
 390 188 382 190 382 190 c 0
 381 190 384 208 385 209 c 0
 385 209 393 208 402 206 c 1
 411 204 419 203 419 203 c 0
 419 203 420 211 421 222 c 2
 423 241 l 1
 429 240 l 2
 442 239 443 239 443 237 c 0
 443 236 442 226 441 216 c 0
 440 206 439 198 439 198 c 1
 439 198 447 196 456 194 c 0
 465 192 474 190 474 190 c 0
 475 189 472 172 471 171 c 0
 471 171 463 172 454 174 c 0
 445 176 437 177 437 177 c 0
 436 177 425 62 425 62 c 0
 426 61 438 65 445 69 c 1
 454 73 469 83 479 91 c 0
 484 95 485 97 485 99 c 0xf6
 485 100 489 128 494 160 c 2
 502 218 l 1
 484 246 l 2
 474 262 465 275 465 275 c 0
 465 275 469 277 473 280 c 2
 481 286 l 1
 488 275 l 2
 492 269 495 265 495 265 c 0
 495 265 495 269 494 272 c 0
 493 275 493 278 493 278 c 0
 513 281 l 0xee
 513 281 513 277 514 272 c 0
 515 267 516 263 516 263 c 0
 516 263 518 267 520 273 c 2
 523 283 l 1
 528 282 l 2
 531 281 536 279 538 278 c 0
 542 276 543 277 542 275 c 0
 541 272 541 271 543 274 c 2
 545 276 l 1
 548 274 l 2
 550 273 553 270 556 268 c 2
 561 264 l 1
 564 266 l 2
 567 269 567 268 569 266 c 1
 571 264 570 260 578 298 c 0
 581 311 583 322 583 322 c 0
 583 322 588 321 593 320 c 0
 602 318 602 318 602 316 c 0
 602 315 594 277 584 233 c 0
 574 188 566 151 566 151 c 0
 566 150 597 150 659 150 c 2
 753 150 l 1
 753 140 l 1
 753 130 l 1
 655 130 l 1
 557 130 l 1
 538 114 l 2
 528 105 516 95 512 92 c 0
 508 88 504 85 504 84 c 0
 504 83 503 81 503 80 c 0
 503 78 502 79 499 79 c 0
 496 79 496 79 490 75 c 0
 468 58 445 46 429 42 c 0
 426 41 423 40 423 40 c 0
 422 39 403 40 395 42 c 0
 377 46 356 58 326 82 c 0
 320 87 318 89 317 88 c 0
 317 88 304 71 289 51 c 0
 274 31 261 14 261 14 c 1
 260 14 246 25 246 26 c 0
 246 26 258 44 273 64 c 0
 288 84 301 100 301 101 c 0
 301 102 285 117 274 126 c 0
 272 127 272 127 264 123 c 0
 248 115 232 110 213 110 c 0
 200 110 190 112 179 116 c 0
 157 123 139 136 125 154 c 0
 120 160 115 170 112 177 c 2
 109 182 l 1
 95 168 l 1
 80 153 l 1
 73 160 l 1
 66 167 l 1
 83 184 l 1
 99 200 l 1
 75 230 l 2
 61 246 50 261 50 261 c 0
 50 261 77 287 111 318 c 0xf6
241 305 m 0
 238 306 235 307 235 307 c 0
 235 307 210 283 180 253 c 0
 128 201 126 198 126 196 c 0
 126 195 127 191 129 187 c 0
 140 159 167 138 197 132 c 0
 206 130 225 130 233 132 c 1
 254 137 274 151 286 168 c 0
 291 175 297 188 300 197 c 0
 302 204 302 206 302 220 c 0
 302 234 302 236 300 243 c 0
 294 265 281 283 263 295 c 0
 255 300 250 302 241 305 c 0
555 193 m 2
 561 219 565 242 565 242 c 0
 565 242 555 236 543 228 c 2
 522 214 l 1
 515 166 l 2
 511 140 508 118 508 117 c 0
 508 115 510 117 534 137 c 2
 544 146 l 1
 555 193 l 2
EndSplineSet
EndChar
StartChar: uni026A
Encoding: 618 618 50
Width: 769
VWidth: 0
Flags: W
HStem: 67 24<178.851 279.145> 186 24<362 410 434 460 484 561> 331 22<435.398 472.884>
VStem: 50 120<108 288> 146 24<30 79.9963 316.008 366> 410 24<78 186 210 318> 476 27<345 389.418>
LayerCount: 2
Fore
SplineSet
482 391 m 0xee
 482 392 505 389 506 388 c 0
 506 388 505 377 503 365 c 0
 501 353 501 342 501 341 c 0
 501 339 503 339 522 335 c 0
 534 332 544 329 544 329 c 0
 544 328 540 308 539 307 c 0
 539 307 531 309 520 311 c 0
 509 313 500 315 499 315 c 0
 498 315 496 308 491 264 c 0
 487 236 484 211 484 211 c 0
 484 211 502 210 523 210 c 2
 561 210 l 1
 632 280 l 1
 702 351 l 1
 710 342 l 1
 719 333 l 1
 651 266 l 1
 584 198 l 1
 651 130 l 1
 719 63 l 1
 710 54 l 1
 702 45 l 1
 631 116 l 1
 561 186 l 1
 497 186 l 1
 434 186 l 1
 434 132 l 1
 434 78 l 1
 422 78 l 1
 410 78 l 1
 410 132 l 1
 410 186 l 1
 386 186 l 1
 362 186 l 1
 360 176 l 1
 351 124 313 82 260 69 c 0
 252 67 248 67 230 67 c 0
 211 67 210 67 200 69 c 0
 192 71 184 75 172 80 c 0
 171 80 170 75 170 55 c 2
 170 30 l 1
 158 30 l 1
 146 30 l 1
 146 60 l 1
 146 89 l 1xee
 98 89 l 1
 50 89 l 1
 50 198 l 1
 50 306 l 1xf6
 98 306 l 1
 146 306 l 1
 146 336 l 1
 146 366 l 1
 158 366 l 1
 170 366 l 1
 170 341 l 2
 170 327 171 316 171 316 c 0
 171 316 175 317 179 319 c 0
 183 321 192 324 198 326 c 1
 208 329 211 329 226 329 c 0
 244 330 253 329 269 324 c 0
 281 321 299 311 309 304 c 0
 319 296 332 282 339 272 c 0
 350 256 359 236 361 218 c 2
 362 210 l 1
 386 210 l 1
 410 210 l 1
 410 264 l 1
 410 318 l 1
 422 318 l 1
 434 318 l 1
 434 264 l 1
 434 210 l 1
 447 210 l 1
 460 210 l 1
 467 265 l 2
 471 295 473 321 473 321 c 0
 473 321 464 324 453 326 c 0
 442 328 432 331 432 331 c 0
 431 332 437 353 438 353 c 0
 439 353 447 351 457 349 c 0
 467 347 476 345 476 345 c 0
 476 345 482 389 482 391 c 0xee
248 304 m 0
 240 305 218 306 210 304 c 0
 200 302 189 298 179 293 c 2
 171 288 l 1
 170 198 l 1
 170 108 l 1xf6
 175 105 l 2
 183 100 193 96 203 93 c 0
 212 91 213 91 230 91 c 0
 247 91 249 92 258 94 c 0
 277 99 292 108 306 121 c 0
 323 138 334 159 337 182 c 1
 346 240 306 295 248 304 c 0
EndSplineSet
EndChar
StartChar: uni026C
Encoding: 620 620 49
Width: 404
VWidth: 0
Flags: W
HStem: 463 20G<63 96.3333>
VStem: 187 30<251 264>
LayerCount: 2
Fore
SplineSet
176 736 m 0
 188 738 215 738 227 736 c 0
 260 730 289 716 313 691 c 0
 334 669 347 643 353 613 c 0
 356 599 356 570 353 556 c 0
 347 526 334 499 313 478 c 0
 294 459 276 448 249 438 c 1
 246 436 l 1
 250 432 l 1
 260 420 267 400 270 381 c 0
 278 331 256 281 222 267 c 1
 217 264 l 1
 217 258 l 1
 217 251 l 1
 285 141 l 2
 323 81 354 32 354 32 c 0
 352 31 331 18 330 18 c 0
 330 18 301 63 266 119 c 0
 231 175 202 221 202 221 c 0
 202 221 173 175 138 119 c 0
 103 63 74 18 74 18 c 0
 73 18 52 31 50 32 c 0
 50 32 81 81 119 141 c 2
 187 251 l 1
 187 258 l 1
 187 264 l 1
 183 266 l 2
 174 269 163 277 156 286 c 0
 152 291 149 296 148 297 c 0
 147 299 141 294 109 268 c 2
 71 237 l 1
 64 246 l 2
 60 251 56 256 55 257 c 0
 54 259 57 263 95 293 c 0
 126 318 137 327 136 328 c 0
 134 332 132 351 132 360 c 0
 132 369 134 389 136 393 c 0
 137 394 126 403 95 428 c 0
 66 451 53 462 54 463 c 0
 54 464 59 469 63 474 c 2
 71 483 l 1
 109 453 l 2
 141 427 147 423 148 424 c 0
 149 425 151 427 153 430 c 1
 155 433 157 435 157 436 c 0
 157 436 152 439 147 441 c 0
 99 459 62 502 51 553 c 0
 48 569 48 599 51 615 c 0
 61 662 92 701 134 722 c 0
 148 729 161 733 176 736 c 0
223 709 m 1
 213 710 188 710 178 708 c 0
 160 705 141 696 126 685 c 0
 65 639 58 549 113 495 c 0
 129 479 148 469 170 463 c 0
 180 460 182 459 202 459 c 0
 222 459 224 460 234 463 c 0
 256 469 274 479 290 495 c 0
 310 515 322 538 326 565 c 1
 336 633 290 698 223 709 c 1
213 427 m 0
 207 430 197 430 191 427 c 0
 180 422 168 405 163 387 c 0
 160 374 160 347 163 334 c 1
 167 321 173 310 180 302 c 0
 188 294 193 291 202 291 c 0
 211 291 216 294 224 302 c 1
 231 310 237 321 241 334 c 1
 244 347 244 374 241 387 c 1
 236 405 224 422 213 427 c 0
EndSplineSet
EndChar
StartChar: uni026D
Encoding: 621 621 48
Width: 488
VWidth: 0
Flags: W
HStem: 22 21G<70.5 83.6316 297.368 310.5> 314 40<309 321> 327 27<61 127 255 309> 352 27<348.91 403.388> 664 26<137.961 243.642>
VStem: 177 27<239 251> 412 26<28 323>
LayerCount: 2
Fore
SplineSet
100 786 m 0xae
 100 787 123 779 124 778 c 0
 125 778 122 770 119 760 c 0
 111 737 109 727 109 717 c 0
 109 707 112 699 123 687 c 2
 131 678 l 1
 135 680 l 2
 142 683 149 686 159 688 c 0
 168 690 171 690 191 690 c 0
 211 690 213 690 222 688 c 0
 232 686 240 683 247 680 c 2
 250 678 l 1
 258 687 l 2
 269 699 272 707 272 717 c 0
 272 727 270 737 262 760 c 0
 259 770 257 778 258 778 c 0
 259 779 281 787 281 786 c 0
 282 784 294 747 296 738 c 0
 302 711 298 694 280 673 c 2
 274 665 l 1
 279 661 l 2
 287 654 302 638 308 629 c 0
 319 613 327 594 331 575 c 0
 333 562 333 535 331 522 c 0
 325 494 312 469 293 449 c 0
 276 431 260 421 235 412 c 1
 232 411 l 1
 236 406 l 1
 244 396 252 375 254 360 c 2
 255 354 l 1
 288 354 l 1xae
 321 354 l 1xce
 328 361 l 2
 341 373 355 379 373 379 c 0
 378 379 385 378 389 377 c 0
 409 372 427 356 434 335 c 1
 437 326 l 1
 438 177 l 1
 438 28 l 1
 425 28 l 1
 412 28 l 1
 412 176 l 1
 411 323 l 1
 409 329 l 2
 406 337 399 345 391 349 c 0
 385 352 384 352 373 352 c 0x9e
 362 352 361 352 355 349 c 0
 344 343 336 332 334 320 c 2
 333 314 l 1
 320 314 l 1
 307 314 l 1xce
 308 321 l 1
 309 327 l 1
 282 327 l 1
 255 327 l 1
 254 321 l 2
 250 291 232 262 210 253 c 1
 204 251 l 1
 204 245 l 1
 204 239 l 1
 268 137 l 2
 303 81 331 35 331 35 c 0
 329 34 311 22 310 22 c 0
 310 22 283 65 250 117 c 0
 217 169 191 211 191 211 c 0
 191 211 164 169 131 117 c 0
 98 65 71 22 71 22 c 0
 70 22 52 34 50 35 c 0
 50 35 78 81 113 137 c 2
 177 239 l 1
 177 245 l 1
 177 251 l 1
 173 253 l 1
 165 256 155 263 149 271 c 0
 139 283 129 304 127 321 c 2
 127 327 l 1
 94 327 l 1
 61 327 l 1
 61 340 l 1
 61 353 l 1
 94 354 l 1
 127 354 l 1
 127 360 l 2
 129 374 137 395 145 405 c 0
 147 408 149 410 149 411 c 0
 149 411 144 413 139 415 c 0
 95 432 61 472 51 520 c 0
 48 535 48 562 51 577 c 0
 55 596 62 613 73 629 c 0
 79 638 93 654 102 661 c 2
 108 665 l 1
 102 673 l 2
 80 699 78 717 94 767 c 0
 97 777 100 786 100 786 c 0xae
220 662 m 0
 214 664 208 664 194 664 c 0
 175 664 170 665 158 661 c 0
 146 657 140 654 135 648 c 1
 130 643 130 644 128 645 c 0
 126 646 125 646 118 640 c 0
 63 596 58 515 108 466 c 0
 123 451 141 441 161 435 c 0
 171 432 173 432 191 432 c 0
 209 432 211 432 221 435 c 0
 241 441 257 450 272 465 c 0
 282 475 289 484 295 496 c 0
 320 546 307 605 263 640 c 0
 256 646 256 646 254 645 c 0
 252 644 251 644 246 649 c 0
 240 655 235 658 220 662 c 0
201 403 m 0
 195 406 186 406 180 403 c 0
 170 398 160 382 155 365 c 0
 152 353 152 328 155 316 c 1
 158 304 163 293 170 286 c 0
 177 278 183 276 191 276 c 0
 199 276 204 278 211 286 c 1
 218 293 224 304 227 316 c 1
 230 328 230 353 227 365 c 1
 222 382 211 398 201 403 c 0
EndSplineSet
EndChar
StartChar: uni026E
Encoding: 622 622 47
Width: 404
VWidth: 0
Flags: W
HStem: 458 20G<307.667 341>
VStem: 187 30<246 259>
LayerCount: 2
Fore
SplineSet
176 731 m 0
 188 733 215 733 227 731 c 0
 260 725 289 711 313 686 c 0
 334 664 347 638 353 608 c 0
 356 594 356 565 353 551 c 0
 347 521 334 494 313 473 c 0
 294 454 276 443 249 433 c 1
 246 431 l 1
 250 426 l 2
 252 423 255 420 256 419 c 0
 257 417 263 422 295 448 c 2
 333 478 l 1
 341 469 l 2
 345 464 350 459 350 458 c 0
 351 457 338 446 309 423 c 0
 278 398 267 389 268 388 c 0
 270 384 272 364 272 355 c 0
 272 346 270 327 268 323 c 0
 267 322 278 313 309 288 c 0
 347 258 350 254 349 252 c 0
 348 251 344 246 340 241 c 2
 333 232 l 1
 295 263 l 2
 263 289 257 294 256 292 c 0
 248 279 233 267 222 262 c 1
 217 259 l 1
 217 253 l 1
 217 246 l 1
 285 136 l 2
 323 76 354 27 354 27 c 0
 352 26 331 13 330 13 c 0
 330 13 301 58 266 114 c 0
 231 170 202 216 202 216 c 0
 202 216 173 170 138 114 c 0
 103 58 74 13 74 13 c 0
 73 13 52 26 50 27 c 0
 50 27 81 76 119 136 c 2
 187 246 l 1
 187 253 l 1
 187 259 l 1
 183 261 l 2
 181 262 175 265 171 268 c 0
 143 286 127 332 134 376 c 0
 137 395 144 415 153 426 c 0
 155 428 157 431 157 431 c 0
 157 432 152 434 147 436 c 0
 99 454 62 497 51 548 c 0
 48 564 48 594 51 610 c 0
 61 657 92 696 134 717 c 0
 148 724 161 728 176 731 c 0
223 704 m 1
 213 705 188 705 178 703 c 0
 160 700 141 691 126 680 c 0
 65 634 58 544 113 490 c 0
 129 474 148 464 170 458 c 0
 180 455 182 454 202 454 c 0
 222 454 224 455 234 458 c 0
 256 464 274 474 290 490 c 0
 310 510 322 533 326 560 c 1
 336 628 290 693 223 704 c 1
213 422 m 0
 207 425 197 425 191 422 c 0
 180 417 168 400 163 382 c 0
 160 369 160 342 163 329 c 1
 167 316 173 305 180 297 c 0
 188 289 193 286 202 286 c 0
 211 286 216 289 224 297 c 1
 231 305 237 316 241 329 c 1
 244 342 244 369 241 382 c 1
 236 400 224 417 213 422 c 0
EndSplineSet
EndChar
StartChar: uni026F
Encoding: 623 623 46
Width: 804
VWidth: 0
Flags: W
HStem: 140 20<566 754> 364 20G<151.857 194 247 274>
VStem: 111 16<186.926 208>
LayerCount: 2
Fore
SplineSet
112 328 m 0
 146 359 174 384 174 384 c 0
 174 384 184 374 196 362 c 2
 218 340 l 1
 223 339 l 1
 228 339 l 1
 247 358 l 1
 266 377 l 1
 274 370 l 1
 281 363 l 1
 266 348 l 1
 252 334 l 1
 261 329 l 2
 281 320 298 305 309 286 c 0
 334 244 327 189 293 154 c 0
 291 152 289 150 289 150 c 1
 289 150 294 147 298 143 c 0
 312 131 315 128 315 128 c 0
 315 128 327 143 340 161 c 0
 353 179 364 194 365 195 c 0
 366 196 368 195 374 190 c 0
 378 187 381 184 381 184 c 0
 381 184 370 168 356 150 c 1
 342 132 331 117 331 116 c 0
 330 114 359 92 374 83 c 0
 406 64 427 65 461 88 c 0
 467 92 482 104 485 106 c 0
 486 106 503 224 503 227 c 0
 503 228 494 240 484 256 c 0
 474 271 466 284 466 284 c 0
 466 284 470 287 474 290 c 2
 482 296 l 1
 489 285 l 2
 496 274 497 275 495 283 c 0
 495 286 494 288 494 288 c 0
 494 288 512 292 513 292 c 0
 513 292 514 287 515 282 c 0
 516 277 517 273 517 273 c 0
 517 273 519 278 521 283 c 0
 523 288 524 293 524 293 c 0
 524 294 541 288 542 287 c 0
 542 287 543 285 542 283 c 2
 541 281 l 1
 544 284 l 1
 546 286 l 1
 554 280 l 1
 561 274 l 1
 565 276 l 1
 568 278 l 1
 569 276 l 2
 570 275 571 275 571 275 c 0
 571 275 575 288 578 303 c 0
 581 318 584 332 584 332 c 0
 584 333 602 329 603 328 c 0
 603 328 595 290 585 244 c 2
 566 160 l 1
 660 160 l 1
 754 160 l 1
 754 150 l 1
 754 140 l 1
 656 140 l 1
 558 140 l 1
 552 135 l 1
 504 95 504 96 504 92 c 1
 504 89 l 1
 500 89 l 1
 497 89 496 89 488 83 c 0
 466 67 449 57 432 52 c 0
 423 50 405 49 396 52 c 0
 377 57 359 68 331 90 c 0
 324 95 318 99 318 99 c 0
 318 99 305 82 290 62 c 0
 275 42 263 25 262 25 c 0
 261 24 259 26 254 30 c 1
 250 33 246 36 246 36 c 0
 246 36 297 105 302 111 c 0
 302 111 297 117 288 125 c 2
 273 137 l 1
 265 133 l 2
 255 128 243 124 232 122 c 0
 220 120 199 120 188 123 c 0
 155 131 128 153 114 183 c 0
 112 187 111 191 111 192 c 0
 111 193 104 186 96 178 c 2
 81 163 l 1
 74 170 l 1
 66 177 l 1
 83 194 l 2
 98 209 100 211 99 212 c 0
 98 213 87 226 74 242 c 0
 61 258 50 271 50 271 c 0
 50 271 78 297 112 328 c 0
243 315 m 0
 240 316 236 317 236 317 c 0
 235 317 127 209 127 208 c 0
 127 205 130 195 134 188 c 1
 146 165 170 147 196 142 c 0
 208 140 226 140 237 143 c 0
 268 152 292 176 301 208 c 0
 303 215 303 217 303 230 c 0
 303 243 303 245 301 252 c 0
 298 263 294 270 289 278 c 0
 278 295 262 309 243 315 c 0
566 252 m 0
 565 252 l 1
 564 252 524 225 523 224 c 0
 522 223 509 126 509 126 c 1
 510 125 543 154 544 156 c 0
 545 157 566 250 566 252 c 0
EndSplineSet
EndChar
StartChar: uni0270
Encoding: 624 624 45
Width: 468
VWidth: 0
Flags: W
HStem: 322 27<61 178 204 311.044> 401 26<137.214 178 204 245.611> 429 20G<301 324.649> 659 26<137.961 244.699>
VStem: 178 26<235 322 349 401>
LayerCount: 2
Fore
SplineSet
101 781 m 0
 101 782 123 774 124 773 c 0
 125 773 122 765 119 755 c 0
 111 732 109 722 109 712 c 0
 109 702 113 694 124 682 c 2
 131 673 l 1
 135 675 l 2
 142 678 149 681 159 683 c 0
 168 685 171 685 191 685 c 0
 211 685 214 685 223 683 c 0
 233 681 240 678 247 675 c 2
 251 673 l 1
 259 682 l 2
 270 694 273 702 273 712 c 0
 273 722 271 732 263 755 c 0
 260 765 257 773 258 773 c 0
 259 774 281 782 281 781 c 0
 282 779 294 742 296 733 c 0
 302 706 298 689 280 668 c 2
 274 660 l 1
 279 656 l 2
 287 649 303 633 309 624 c 0
 320 608 328 589 332 570 c 0
 334 557 334 530 332 517 c 0
 327 490 313 464 296 446 c 0
 290 439 289 440 301 447 c 1
 305 449 l 1
 361 392 l 1
 418 335 l 1
 380 297 l 2
 359 276 341 260 341 260 c 0
 341 260 336 274 330 291 c 2
 320 322 l 1
 262 322 l 1
 204 322 l 1
 204 278 l 1
 204 235 l 1
 268 133 l 1
 303 77 332 31 332 31 c 0
 332 30 313 18 311 17 c 0
 310 17 283 60 250 112 c 0
 217 164 191 206 191 206 c 0
 191 206 165 164 132 112 c 0
 99 60 72 17 71 17 c 0
 69 18 50 30 50 31 c 0
 50 31 79 77 114 133 c 2
 178 235 l 1
 178 278 l 1
 178 322 l 1
 120 322 l 1
 61 322 l 1
 61 335 l 1
 61 348 l 1
 120 349 l 1
 178 349 l 1
 178 375 l 1
 178 401 l 1
 173 401 l 1
 163 402 149 406 139 410 c 0
 94 427 61 467 51 515 c 0
 48 530 48 557 51 572 c 0
 55 591 62 608 73 624 c 0
 79 633 94 649 103 656 c 2
 108 660 l 1
 102 668 l 2
 80 694 78 712 94 762 c 0
 97 772 101 781 101 781 c 0
220 657 m 0
 214 659 208 659 194 659 c 0
 175 659 170 660 158 656 c 0
 146 652 140 649 135 643 c 1
 130 638 130 639 128 640 c 0
 126 641 126 641 119 635 c 0
 64 591 59 510 109 461 c 0
 124 446 141 436 161 430 c 0
 171 427 173 427 191 427 c 0
 209 427 211 427 221 430 c 0
 241 436 258 445 273 460 c 0
 283 470 289 479 295 491 c 0
 320 541 307 600 263 635 c 0
 256 641 256 641 254 640 c 0
 252 639 252 639 247 644 c 0
 241 650 235 653 220 657 c 0
297 392 m 0
 290 414 283 433 282 433 c 1
 281 433 280 432 278 430 c 0
 272 425 254 414 243 410 c 0
 233 406 219 402 209 401 c 1
 204 401 l 1
 204 375 l 1
 204 349 l 1
 258 349 l 2
 309 349 312 349 311 351 c 0
 311 352 304 370 297 392 c 0
367 322 m 2
 380 335 l 1
 353 363 l 2
 338 378 326 389 326 388 c 0
 333 368 352 310 353 309 c 0
 353 309 360 315 367 322 c 2
EndSplineSet
EndChar
StartChar: uni0271
Encoding: 625 625 44
Width: 556
VWidth: 0
Flags: W
HStem: 324 27<102 203 262 352> 620 26<442.875 465.275> 636 131<115 121.034 158 307 343.966 349> 636 26<50 115 349 414>
VStem: 219 26<237 324>
LayerCount: 2
Fore
SplineSet
115 715 m 1x98
 115 767 l 1
 232 767 l 1
 349 767 l 1xa8
 349 715 l 1
 349 663 l 1
 382 662 l 1
 414 662 l 1
 414 649 l 1
 414 636 l 1
 379 636 l 2x98
 359 636 343 634 344 634 c 0
 346 632 355 619 360 609 c 0
 371 588 375 570 375 545 c 0
 375 526 373 517 368 501 c 1
 364 489 356 473 349 463 c 2
 343 455 l 1
 347 455 l 2
 349 455 351 454 351 454 c 0
 351 454 332 430 307 402 c 2
 262 351 l 1
 309 351 l 2
 335 351 356 351 356 351 c 1
 356 351 366 409 379 478 c 1
 402 604 l 1
 416 617 l 2
 440 640 449 646 460 646 c 0xc8
 477 646 485 635 499 592 c 2
 506 570 l 1
 440 438 l 2
 404 365 375 306 374 306 c 0
 374 306 367 308 361 310 c 0
 352 313 350 314 350 315 c 0
 350 316 351 318 351 320 c 2
 352 324 l 1
 299 324 l 1
 245 324 l 1
 245 280 l 1
 245 237 l 1
 309 135 l 1
 344 79 373 33 373 33 c 0
 373 32 354 20 352 19 c 0
 351 19 325 62 292 114 c 0
 259 166 232 208 232 208 c 0
 232 208 206 166 173 114 c 0
 140 62 114 19 113 19 c 0
 111 20 92 32 92 33 c 0
 92 33 121 79 156 135 c 2
 219 237 l 1
 219 280 l 1
 219 324 l 1
 161 324 l 1
 102 324 l 1
 102 337 l 1
 102 350 l 1
 153 351 l 1
 203 351 l 1
 158 402 l 2
 133 430 113 454 113 454 c 0
 113 454 115 455 117 455 c 2
 122 455 l 1
 116 463 l 2
 105 478 96 497 92 516 c 0
 90 525 90 530 90 545 c 0
 90 571 94 587 105 609 c 0
 110 618 119 633 121 634 c 0
 122 634 106 636 86 636 c 2
 50 636 l 1
 50 649 l 1
 50 662 l 1
 83 662 l 1
 115 663 l 1
 115 715 l 1x98
314 629 m 1
 307 636 l 1
 232 636 l 1
 158 636 l 1
 149 627 l 1
 104 581 104 508 149 463 c 2
 158 455 l 1
 232 455 l 1
 307 455 l 1
 315 463 l 2
 333 481 344 502 348 527 c 0
 354 564 341 603 314 629 c 1
464 611 m 0
 462 616 459 620 459 620 c 0xc8
 457 620 445 610 436 601 c 2
 426 590 l 1
 409 496 l 2
 400 444 392 401 392 401 c 1
 392 400 411 439 435 486 c 2
 478 572 l 1
 473 587 l 2
 470 595 466 606 464 611 c 0
EndSplineSet
EndChar
StartChar: uni0272
Encoding: 626 626 43
Width: 464
VWidth: 0
Flags: W
HStem: 324 27<102 202 262.955 349> 421 20G<349 375> 636 131<115 120.035 157 307 343.965 349> 636 26<50 115 349 414>
VStem: 219 26<237 324> 349 26<71 324 351 441>
LayerCount: 2
Fore
SplineSet
115 715 m 1xdc
 115 767 l 1
 232 767 l 1
 349 767 l 1xec
 349 715 l 1
 349 663 l 1
 382 662 l 1
 414 662 l 1
 414 649 l 1
 414 636 l 1
 378 636 l 2
 358 636 343 634 344 634 c 0
 346 632 355 619 360 609 c 0
 371 588 374 570 374 545 c 0
 374 526 373 517 368 501 c 1
 364 489 356 473 349 463 c 2
 343 455 l 1
 347 455 l 2
 349 455 351 454 351 454 c 0
 351 454 332 431 308 404 c 0
 284 377 264 354 263 353 c 0
 262 351 263 351 305 351 c 2
 349 351 l 1
 349 396 l 1
 349 441 l 1
 362 441 l 1
 375 441 l 1
 375 233 l 1
 375 25 l 1
 368 25 l 2
 362 25 361 25 357 22 c 0
 354 20 351 19 351 19 c 0
 351 19 324 62 291 114 c 0
 258 166 232 208 232 208 c 0
 232 208 206 166 173 114 c 0
 140 62 113 19 112 19 c 0
 110 20 91 32 91 33 c 0
 91 33 120 79 155 135 c 2
 219 237 l 1
 219 280 l 1
 219 324 l 1
 161 324 l 1
 102 324 l 1
 102 337 l 1
 102 350 l 1
 152 351 l 1
 202 351 l 1
 158 402 l 2
 133 430 113 454 113 454 c 0
 113 454 115 455 117 455 c 2
 121 455 l 1
 115 463 l 2
 104 478 96 497 92 516 c 0
 90 525 90 530 90 545 c 0
 90 571 93 587 104 609 c 0
 109 618 118 633 120 634 c 0
 121 634 106 636 86 636 c 2
 50 636 l 1
 50 649 l 1
 50 662 l 1
 83 662 l 1
 115 663 l 1
 115 715 l 1xdc
314 629 m 1
 307 636 l 1
 232 636 l 1
 157 636 l 1
 149 627 l 1
 104 581 104 508 149 463 c 2
 157 455 l 1
 232 455 l 1
 307 455 l 1
 315 463 l 2
 333 481 343 502 347 527 c 0
 353 564 341 603 314 629 c 1
349 197 m 1
 349 324 l 1
 297 324 l 1
 245 324 l 1
 245 280 l 1
 245 237 l 1
 297 154 l 1
 349 71 l 1
 349 197 l 1
EndSplineSet
EndChar
StartChar: uni0273
Encoding: 627 627 42
Width: 531
VWidth: 0
Flags: W
HStem: 311 40<351 362> 324 27<102 203 262 351> 349 27<384.897 444.775> 636 131<116 121.034 158 307 343.966 350> 636 26<50 116 350 414>
VStem: 220 26<237 324> 453 26<25 320>
LayerCount: 2
Fore
SplineSet
116 715 m 1x4e
 116 767 l 1
 232 767 l 1
 350 767 l 1x16
 350 715 l 1
 350 663 l 1
 382 662 l 1
 414 662 l 1
 414 649 l 1
 414 636 l 1
 379 636 l 2
 359 636 343 634 344 634 c 0
 346 632 355 619 360 609 c 0
 371 588 375 570 375 545 c 0
 375 526 373 517 368 501 c 1
 364 489 356 473 349 463 c 2
 343 455 l 1
 347 455 l 2
 349 455 352 454 352 454 c 0
 352 454 332 430 307 402 c 2
 262 351 l 1
 312 351 l 1x4e
 362 351 l 1x86
 370 358 l 2
 383 370 396 376 414 376 c 0
 419 376 426 375 430 374 c 0
 450 369 469 352 476 331 c 1
 479 323 l 1
 479 174 l 1
 480 25 l 1
 466 25 l 1
 454 25 l 1
 453 173 l 1
 453 320 l 1
 451 326 l 2
 448 334 440 342 432 346 c 0
 426 349 425 349 414 349 c 0x26
 403 349 403 349 397 346 c 0
 386 340 378 328 376 316 c 2
 375 311 l 1
 362 311 l 1
 349 311 l 1x86
 350 317 l 1
 351 324 l 1
 298 324 l 1
 246 324 l 1
 246 280 l 1
 246 237 l 1
 309 135 l 1
 344 79 373 33 373 33 c 0
 373 32 354 20 352 19 c 0
 351 19 325 62 292 114 c 0
 259 166 232 208 232 208 c 0
 232 208 206 166 173 114 c 0
 140 62 114 19 113 19 c 0
 111 20 92 32 92 33 c 0
 92 33 121 79 156 135 c 2
 220 237 l 1
 220 280 l 1
 220 324 l 1
 161 324 l 1
 102 324 l 1
 102 337 l 1
 102 350 l 1
 153 351 l 1
 203 351 l 1
 158 402 l 2
 133 430 113 454 113 454 c 0
 113 454 116 455 118 455 c 2
 122 455 l 1
 116 463 l 2
 105 478 96 497 92 516 c 0
 90 525 90 530 90 545 c 0
 90 571 94 587 105 609 c 0
 110 618 119 633 121 634 c 0
 122 634 106 636 86 636 c 2
 50 636 l 1
 50 649 l 1
 50 662 l 1
 83 662 l 1
 116 663 l 1
 116 715 l 1x4e
314 629 m 1
 307 636 l 1
 232 636 l 1
 158 636 l 1
 149 627 l 1
 104 581 104 508 149 463 c 2
 158 455 l 1
 232 455 l 1
 307 455 l 1
 315 463 l 2
 333 481 344 502 348 527 c 0
 354 564 341 603 314 629 c 1
EndSplineSet
EndChar
StartChar: uni0274
Encoding: 628 628 41
Width: 526
VWidth: 0
Flags: W
HStem: 324 27<102 202 261 351> 636 131<115 120.035 157 306 342 348.975> 636 27<50 115 349 350 383 414>
VStem: 219 26<237 324> 349 26<310.908 322.775 493.374 549 628.955 633> 398 26<475.758 537.652>
LayerCount: 2
Fore
SplineSet
115 715 m 1xbc
 115 767 l 1
 232 767 l 1
 349 767 l 1xdc
 349 715 l 1
 349 663 l 1
 352 663 l 2
 355 663 355 664 358 671 c 0
 367 692 383 707 400 712 c 0
 407 714 421 714 428 712 c 0
 452 705 472 677 477 642 c 0
 484 594 463 547 430 535 c 0
 427 534 424 533 424 532 c 0
 424 531 413 481 400 422 c 0
 387 363 375 312 375 311 c 0
 375 309 374 309 372 309 c 0
 368 309 349 314 349 315 c 0
 349 316 350 318 350 320 c 2
 351 324 l 1
 298 324 l 1
 245 324 l 1
 245 280 l 1
 245 237 l 1
 308 135 l 1
 343 79 372 33 372 33 c 0
 372 32 353 20 351 19 c 0
 350 19 324 62 291 114 c 0
 258 166 232 208 232 208 c 0
 232 208 205 166 172 114 c 0
 139 62 113 19 112 19 c 0
 110 20 91 32 91 33 c 0
 91 33 120 79 155 135 c 2
 219 237 l 1
 219 280 l 1
 219 324 l 1
 160 324 l 1
 102 324 l 1
 102 337 l 1
 102 350 l 1
 152 351 l 1
 202 351 l 1
 157 402 l 2
 132 430 113 454 113 454 c 0
 113 454 115 455 117 455 c 2
 121 455 l 1
 115 463 l 2
 104 478 96 497 92 516 c 0
 90 525 89 530 89 545 c 0
 89 571 93 587 104 609 c 0
 109 618 118 633 120 634 c 0
 121 634 106 636 86 636 c 2
 50 636 l 1
 50 649 l 1
 50 662 l 1
 82 662 l 1
 115 663 l 1
 115 715 l 1xbc
424 685 m 1
 419 688 409 688 404 686 c 1
 399 684 392 676 387 669 c 2
 383 663 l 1
 398 663 l 1
 414 662 l 1
 414 649 l 1
 414 636 l 1
 395 636 l 1
 376 636 l 1xbc
 375 633 l 1
 374 628 376 608 378 599 c 0
 381 587 386 576 393 569 c 1
 400 561 406 559 414 559 c 0
 422 559 427 561 434 569 c 1
 441 576 447 587 450 599 c 1
 453 611 453 636 450 648 c 1
 445 665 434 680 424 685 c 1
313 629 m 1
 306 636 l 1
 232 636 l 1
 157 636 l 1xdc
 148 627 l 1
 103 581 103 508 148 463 c 2
 157 455 l 1
 232 455 l 1
 306 455 l 1
 314 463 l 2
 332 481 343 502 347 527 c 0
 353 564 340 603 313 629 c 1
349 632 m 0
 349 636 350 636 346 636 c 2
 342 636 l 1
 345 633 l 2
 346 631 348 629 348 629 c 0
 348 628 349 630 349 632 c 0
393 537 m 0
 391 538 386 541 382 544 c 2
 375 549 l 1
 374 538 l 2
 372 510 363 484 348 463 c 2
 343 455 l 1
 347 455 l 2
 349 455 351 454 351 454 c 0
 351 454 331 430 306 402 c 2
 261 351 l 1
 309 351 l 2
 335 351 357 351 357 351 c 0
 358 352 398 531 398 533 c 0
 398 534 395 536 393 537 c 0
EndSplineSet
EndChar
StartChar: uni0275
Encoding: 629 629 40
Width: 852
VWidth: 0
Flags: W
HStem: 111 20<546.725 632.91> 130 20<50 237> 290 20<720 757> 309 21<594 633.302> 350 20<680 700> 424 20G<660 680>
VStem: 261 23<273.094 277.237> 294 23<134.011 179.139> 366 20<80.5618 177> 660 20<370 395> 700 20<310 350>
LayerCount: 2
Fore
SplineSet
621 385 m 1x5fe0
 680 444 l 1
 680 407 l 1
 680 370 l 1
 700 370 l 1
 720 370 l 1
 720 340 l 1
 720 310 l 1
 761 310 l 2
 783 310 802 310 802 310 c 0
 802 309 711 208 701 197 c 0
 698 194 696 192 694 186 c 0
 689 170 681 155 669 143 c 0
 654 128 636 118 615 113 c 0
 607 111 606 111 590 111 c 0xafe0
 575 111 573 111 566 113 c 0
 556 115 543 120 536 124 c 0
 533 126 530 127 530 127 c 1
 530 127 523 121 515 114 c 0
 503 103 501 102 502 101 c 0
 504 98 558 26 558 26 c 0
 558 26 554 23 550 20 c 0
 544 15 542 14 541 15 c 0
 540 16 528 32 513 52 c 0
 498 72 486 89 486 89 c 0
 486 89 482 87 479 84 c 0
 450 60 426 46 407 42 c 0
 400 40 381 39 380 40 c 0
 380 40 378 41 375 42 c 0
 359 45 338 56 315 73 c 0
 307 79 307 79 304 79 c 2
 300 79 l 1
 300 82 l 2
 300 85 299 86 281 101 c 0
 271 109 259 119 254 123 c 2
 246 130 l 1
 148 130 l 1
 50 130 l 1
 50 140 l 1
 50 150 l 1
 144 150 l 1
 237 151 l 1
 219 234 l 2
 209 280 201 318 201 318 c 0
 202 319 220 322 220 322 c 0
 220 322 223 309 226 294 c 1
 229 279 232 267 232 266 c 1
 232 265 233 265 234 266 c 2
 236 268 l 1
 239 266 l 1
 242 264 l 1
 250 270 l 1
 258 276 l 1
 260 274 l 1
 262 271 l 1
 262 273 l 2
 261 275 261 277 261 277 c 0
 261 277 266 278 271 280 c 0
 281 283 280 284 284 271 c 0
 286 266 287 262 287 262 c 0
 287 262 287 266 288 271 c 0
 289 276 290 281 290 281 c 0
 290 281 294 281 298 280 c 1
 310 278 310 279 309 275 c 0
 307 264 307 264 315 275 c 2
 322 286 l 1
 330 280 l 1
 338 274 l 1
 319 246 l 1
 300 217 l 1
 308 162 l 2
 312 132 317 105 317 102 c 2
 318 96 l 1
 327 89 l 1
 339 80 349 74 358 69 c 1
 365 65 376 61 377 62 c 0
 377 62 366 176 366 177 c 0
 366 177 358 176 349 174 c 1
 340 172 332 171 332 171 c 0
 331 172 329 190 329 190 c 1
 329 190 337 192 347 194 c 0
 357 196 364 199 364 199 c 0
 364 199 363 208 362 219 c 0
 361 230 360 239 360 239 c 0
 380 241 l 1
 380 241 381 232 382 222 c 0
 383 212 384 203 384 203 c 0
 384 203 392 204 401 206 c 0
 410 208 418 209 418 209 c 0
 419 208 422 190 421 190 c 0
 421 190 413 188 403 186 c 0
 387 182 386 182 386 180 c 0
 386 179 389 152 392 120 c 0
 395 88 398 61 398 61 c 0
 399 60 412 64 418 67 c 0
 430 73 445 83 465 99 c 2
 474 105 l 1
 448 139 l 2
 434 158 422 174 422 174 c 0
 422 174 437 186 438 186 c 0
 438 186 449 171 462 153 c 0
 475 135 487 121 488 120 c 0
 489 119 490 119 499 127 c 0
 505 132 511 137 512 138 c 2
 515 140 l 1
 509 146 l 2
 496 160 486 178 482 198 c 0
 480 210 480 230 482 242 c 0
 488 269 503 292 525 309 c 0
 533 315 547 322 556 325 c 2
 562 326 l 1
 621 385 l 1x5fe0
680 350 m 1
 660 350 l 1
 660 373 l 1
 660 395 l 1
 627 362 l 1
 594 330 l 1
 598 330 l 2
 614 330 640 321 655 309 c 0x1fe0
 664 302 676 290 681 282 c 0
 690 269 696 251 698 237 c 0
 698 233 700 229 700 228 c 0
 700 227 704 231 728 258 c 0
 743 275 757 290 757 290 c 0
 757 290 746 290 728 290 c 2
 700 290 l 1
 700 320 l 1
 700 350 l 1
 680 350 l 1
605 309 m 1
 598 310 580 309 573 308 c 0
 560 306 547 300 536 292 c 0
 492 259 488 194 527 156 c 0
 539 144 551 137 567 133 c 0
 574 131 576 131 590 131 c 0x9fe0
 604 131 606 131 613 133 c 0
 629 137 642 145 653 156 c 0
 661 164 665 171 670 180 c 0
 690 219 679 266 644 292 c 0
 633 300 618 307 605 309 c 1
259 229 m 0
 248 237 238 242 238 242 c 0
 238 242 238 242 238 241 c 0
 238 240 242 218 248 193 c 0
 254 168 259 147 259 146 c 0
 259 145 268 138 277 130 c 0x4fe0
 291 118 294 116 294 117 c 0
 294 119 281 213 280 214 c 1
 280 214 270 221 259 229 c 0
EndSplineSet
EndChar
StartChar: uni0278
Encoding: 632 632 38
Width: 532
VWidth: 0
Flags: W
HStem: 350 30<202.425 309 338 468> 438 29<262.666 309 338 382.981> 582 20G<73 74.5 227.5 235>
VStem: 178 41<302.679 332> 309 29<253 350 380 438>
LayerCount: 2
Fore
SplineSet
296 754 m 0
 308 756 337 756 349 754 c 0
 384 748 413 733 438 707 c 0
 459 685 474 657 480 626 c 0
 483 612 483 581 480 567 c 0
 466 499 412 448 343 438 c 1
 338 438 l 1
 338 409 l 1
 338 380 l 1
 403 380 l 1
 468 379 l 1
 468 365 l 1
 468 350 l 1
 403 350 l 1
 338 350 l 1
 338 301 l 1
 338 253 l 1
 409 139 l 1
 448 76 480 25 480 25 c 0
 480 24 458 11 456 10 c 0
 455 10 425 57 389 115 c 0
 353 173 323 221 323 221 c 0
 323 221 293 173 257 115 c 0
 221 57 191 10 190 10 c 0
 188 11 166 24 166 25 c 0
 166 25 198 76 237 139 c 1
 309 253 l 1
 309 301 l 1
 309 350 l 1
 255 350 l 1
 202 350 l 1
 211 332 l 2
 216 322 219 315 219 314 c 0
 219 313 195 300 194 301 c 0
 194 301 186 315 178 332 c 2
 163 362 l 1
 132 343 l 2
 115 333 100 324 99 324 c 0
 99 324 95 329 92 334 c 0
 89 339 86 345 85 346 c 0
 83 348 85 349 116 368 c 0
 134 379 149 388 149 388 c 0
 149 388 127 434 100 489 c 1
 73 544 50 589 50 590 c 0
 50 591 72 602 74 602 c 0
 75 602 98 558 125 503 c 2
 175 403 l 1
 201 419 l 2
 215 428 227 434 228 434 c 0
 228 434 232 430 235 425 c 0
 238 420 241 414 242 413 c 0
 244 411 243 410 221 397 c 0
 208 389 196 382 195 381 c 0
 193 380 202 380 251 380 c 2
 309 380 l 1
 309 409 l 1
 309 438 l 1
 303 438 l 1
 292 440 276 444 265 448 c 0
 215 467 178 512 167 565 c 0
 163 582 163 612 167 629 c 0
 177 677 208 718 252 739 c 0
 266 746 281 751 296 754 c 0
345 725 m 1
 335 727 309 727 299 725 c 0
 281 722 261 713 245 701 c 0
 182 653 175 560 231 504 c 0
 248 487 267 477 290 471 c 0
 301 468 302 467 323 467 c 0
 344 467 346 468 357 471 c 0
 380 477 398 488 414 504 c 0
 435 525 448 549 452 577 c 1
 463 647 414 714 345 725 c 1
EndSplineSet
EndChar
StartChar: uni0279
Encoding: 633 633 37
Width: 382
VWidth: 0
Flags: W
HStem: 429 20G<287.884 321> 660 26<137.631 244.691>
VStem: 178 27<234 308 362 401>
LayerCount: 2
Fore
SplineSet
100 782 m 0
 100 783 122 776 124 774 c 0
 125 774 123 766 119 756 c 0
 112 733 109 723 109 713 c 0
 109 703 112 696 123 683 c 2
 131 674 l 1
 135 676 l 2
 142 679 149 681 159 684 c 0
 168 686 171 686 191 686 c 0
 211 686 214 686 223 684 c 0
 233 681 240 679 247 676 c 2
 251 674 l 1
 259 683 l 2
 270 696 273 703 273 713 c 0
 273 723 270 733 263 756 c 0
 259 766 257 774 258 774 c 0
 260 776 282 783 282 782 c 0
 284 779 294 743 296 734 c 0
 302 707 299 690 281 669 c 2
 274 661 l 1
 279 656 l 2
 287 650 303 634 309 625 c 0
 320 609 328 589 332 570 c 0
 335 557 335 531 332 518 c 0
 319 457 271 411 209 402 c 1
 205 401 l 1
 205 381 l 1
 205 362 l 1
 259 406 l 1
 313 449 l 1
 321 440 l 2
 325 435 329 431 329 430 c 0
 330 429 312 416 271 383 c 0
 239 358 213 335 213 335 c 0
 213 335 239 312 271 287 c 0
 323 245 329 241 328 239 c 0
 327 238 324 233 320 229 c 2
 313 221 l 1
 259 264 l 1
 205 308 l 1
 205 271 l 1
 205 234 l 1
 268 133 l 1
 303 76 332 29 332 29 c 0
 332 28 313 17 311 16 c 0
 310 16 282 59 250 111 c 0
 218 163 191 206 191 206 c 0
 191 206 164 163 132 111 c 0
 100 59 72 16 71 16 c 0
 69 17 50 28 50 29 c 0
 50 29 80 76 115 133 c 2
 178 234 l 1
 178 317 l 1
 178 401 l 1
 173 402 l 1
 163 404 149 407 139 411 c 0
 94 428 61 467 51 515 c 0
 47 530 47 558 51 573 c 0
 55 592 62 609 73 625 c 0
 79 634 94 650 103 656 c 2
 108 661 l 1
 101 669 l 2
 79 695 78 714 94 764 c 0
 98 774 100 782 100 782 c 0
220 658 m 0
 214 660 208 660 194 660 c 0
 175 660 170 660 158 656 c 0
 146 652 139 649 134 644 c 1
 130 640 130 638 128 640 c 0
 126 642 125 641 118 636 c 0
 62 592 58 511 108 461 c 0
 123 446 139 435 160 430 c 0
 170 427 172 428 191 428 c 0
 210 428 212 427 222 430 c 0
 243 435 259 446 273 460 c 0
 283 470 289 479 295 491 c 0
 320 541 308 601 264 636 c 0
 257 641 256 642 254 640 c 0
 252 638 252 640 247 645 c 0
 241 651 234 654 220 658 c 0
EndSplineSet
EndChar
StartChar: uni027B
Encoding: 635 635 36
Width: 488
VWidth: 0
Flags: W
HStem: 22 21G<412 438> 309 40<310 321> 322 27<60 177 203 310> 347 27<344.218 403.299> 401 27<134.814 177 203 209> 660 26<137.631 244.666>
VStem: 177 26<234 322 349 401> 412 26<22 318>
LayerCount: 2
Fore
SplineSet
100 782 m 0xaf
 100 783 121 776 123 774 c 0
 124 774 123 766 119 756 c 0
 112 733 109 723 109 713 c 0
 109 703 112 696 123 683 c 2
 130 674 l 1
 135 676 l 2
 142 679 149 681 159 684 c 0
 168 686 171 686 191 686 c 0
 211 686 213 686 222 684 c 0
 232 681 240 679 247 676 c 2
 250 674 l 1
 258 683 l 2
 269 696 273 703 273 713 c 0
 273 723 270 733 263 756 c 0
 259 766 256 774 257 774 c 0
 259 776 282 783 282 782 c 0
 284 779 294 743 296 734 c 0
 302 707 298 690 280 669 c 2
 274 661 l 1
 279 656 l 2
 287 650 303 634 309 625 c 0
 320 609 328 589 332 570 c 0
 335 557 335 531 332 518 c 0
 319 457 271 411 209 402 c 1
 203 401 l 1
 203 375 l 1
 203 349 l 1
 262 349 l 1xaf
 321 349 l 1xcf
 328 356 l 2
 341 369 356 374 374 374 c 0
 379 374 386 373 390 372 c 0
 411 368 429 351 436 330 c 1
 438 321 l 1
 438 171 l 1
 438 22 l 1
 426 22 l 1
 412 22 l 1
 412 170 l 1
 412 318 l 1
 410 323 l 2
 406 331 400 339 392 343 c 0
 386 347 385 347 374 347 c 0x9f
 363 347 362 347 356 343 c 0
 344 337 337 326 335 314 c 2
 334 309 l 1
 321 309 l 1
 308 309 l 1xcf
 309 315 l 1
 310 322 l 1
 256 322 l 1
 203 322 l 1
 203 278 l 1
 203 234 l 1
 268 133 l 1
 303 76 332 29 332 29 c 0
 332 28 312 17 310 16 c 0
 309 16 282 59 250 111 c 0
 218 163 191 206 191 206 c 0
 191 206 163 163 131 111 c 0
 99 59 72 16 71 16 c 0
 69 17 50 28 50 29 c 0
 50 29 78 76 113 133 c 2
 177 234 l 1
 177 278 l 1
 177 322 l 1
 119 322 l 1
 60 322 l 1
 60 335 l 1
 60 348 l 1
 119 349 l 1
 177 349 l 1
 177 375 l 1
 177 401 l 1
 173 402 l 1
 163 404 149 407 139 411 c 0
 94 428 60 467 50 515 c 0
 46 530 46 558 50 573 c 0
 54 592 61 609 72 625 c 0
 78 634 93 650 102 656 c 2
 108 661 l 1
 101 669 l 2
 79 695 78 714 94 764 c 0
 98 774 100 782 100 782 c 0xaf
220 658 m 0
 214 660 208 660 194 660 c 0
 175 660 170 660 158 656 c 0
 146 652 139 649 134 644 c 1
 130 640 130 638 128 640 c 0
 126 642 125 641 118 636 c 0
 62 592 58 511 108 461 c 0
 123 446 139 436 160 431 c 0
 170 428 172 428 191 428 c 0
 210 428 210 428 220 431 c 0
 241 436 259 446 273 460 c 0
 283 470 289 479 295 491 c 0
 320 541 308 601 264 636 c 0
 257 641 256 642 254 640 c 0
 252 638 252 640 247 645 c 0
 241 651 234 654 220 658 c 0
EndSplineSet
EndChar
StartChar: uni027D
Encoding: 637 637 35
Width: 452
VWidth: 0
Flags: W
HStem: 294 35<286 296> 304 25<61 167 190 286> 376 24<128.277 167 190 229.695> 652 21G<106.5 127 230.444 251.5> 736 20G<178.5 179.5>
VStem: 50 24<580 700> 167 23<227 304 329 376> 285 24<294 303.641 580 700> 378 23<36 301>
LayerCount: 2
Fore
SplineSet
50 666 m 1x7f80
 50 779 l 1
 80 733 l 1
 110 688 l 1
 144 723 l 1
 163 742 178 756 179 756 c 0
 180 756 195 742 214 723 c 1
 248 688 l 1
 278 733 l 1
 309 779 l 1
 309 666 l 1
 309 553 l 1
 303 553 l 2
 299 553 300 553 301 551 c 0
 303 547 305 531 306 526 c 0
 308 516 308 492 306 481 c 0
 294 426 251 384 195 376 c 1
 190 376 l 1
 190 353 l 1
 190 329 l 1
 244 329 l 1x7f80
 296 329 l 1xbf80
 303 336 l 2
 311 343 320 348 329 351 c 0
 336 353 351 353 358 351 c 0
 377 347 394 330 400 311 c 1
 401 304 l 1x7f80
 401 170 l 1
 402 36 l 1
 391 36 l 1
 378 36 l 1
 378 168 l 1
 378 301 l 1
 376 307 l 2
 372 314 367 321 360 325 c 0
 355 329 354 328 344 328 c 0
 334 328 333 329 328 325 c 0
 317 320 311 309 309 298 c 2
 308 294 l 1
 296 294 l 1
 285 294 l 1xbf80
 285 300 l 1
 286 304 l 1
 238 304 l 1
 190 304 l 1
 190 265 l 1
 190 227 l 1
 249 134 l 1
 281 83 306 42 306 42 c 0
 306 41 288 31 286 30 c 0
 285 30 261 68 232 115 c 0
 203 162 179 201 179 201 c 0
 179 201 154 162 125 115 c 0
 96 68 72 30 71 30 c 0
 69 31 52 41 52 42 c 0
 52 42 78 83 110 134 c 2
 167 227 l 1
 167 265 l 1
 167 304 l 1
 114 305 l 1
 61 305 l 1
 61 318 l 1
 61 328 l 1
 114 328 l 1
 167 329 l 1
 167 353 l 1
 167 376 l 1
 163 376 l 1
 154 378 141 380 132 384 c 0
 92 399 61 436 52 479 c 0
 50 487 51 492 51 506 c 0
 51 523 53 533 57 546 c 0
 58 550 59 552 59 552 c 0
 59 552 57 553 54 553 c 2
 50 553 l 1
 50 666 l 1x7f80
251 652 m 0
 251 652 234 668 214 688 c 2
 179 724 l 1
 143 688 l 2
 123 668 107 652 107 652 c 0
 106 652 99 662 90 676 c 2
 74 700 l 1
 74 641 l 1
 74 580 l 1
 76 583 l 2
 80 589 94 604 102 609 c 0
 116 621 138 629 158 633 c 0
 169 635 189 635 200 633 c 0
 220 629 242 621 256 609 c 0
 264 604 278 589 282 583 c 2
 285 580 l 1
 285 641 l 1
 285 700 l 1
 268 676 l 2
 259 662 252 652 251 652 c 0
196 609 m 1
 188 611 167 611 159 609 c 0
 145 606 129 599 116 589 c 0
 65 550 60 475 105 430 c 0
 119 416 132 406 151 402 c 0
 160 399 162 400 179 400 c 0
 196 400 197 399 206 402 c 0
 225 406 240 417 253 430 c 0
 270 447 280 468 284 490 c 1
 293 547 252 600 196 609 c 1
EndSplineSet
EndChar
StartChar: uni027E
Encoding: 638 638 34
Width: 360
VWidth: 0
Flags: W
HStem: 366 24<127.442 168 192 230.695> 642 21G<107.5 128 232 252.5> 726 20G<179.5 180.5 264.359 297>
VStem: 50 25<570 690> 168 24<217 282 332 366> 285 25<570 690>
CounterMasks: 1 1c
LayerCount: 2
Fore
SplineSet
50 656 m 1
 50 769 l 1
 81 723 l 1
 111 678 l 1
 145 713 l 1
 164 732 179 746 180 746 c 0
 181 746 196 732 215 713 c 1
 249 678 l 1
 279 723 l 1
 310 769 l 1
 310 656 l 1
 310 543 l 1
 305 543 l 2
 301 543 300 543 301 541 c 0
 303 537 306 521 307 516 c 0
 309 506 309 482 307 471 c 0
 295 416 252 374 196 366 c 1
 192 366 l 1
 192 349 l 1
 192 332 l 1
 240 371 l 1
 290 410 l 1
 297 402 l 2
 301 398 304 394 304 393 c 0
 305 392 289 380 252 350 c 0
 223 328 200 308 200 308 c 0
 200 308 223 286 252 264 c 0
 299 226 304 222 303 220 c 0
 302 219 300 216 296 212 c 2
 290 204 l 1
 240 244 l 1
 192 282 l 1
 192 250 l 1
 192 217 l 1
 249 124 l 1
 281 73 307 32 307 32 c 0
 307 31 290 21 288 20 c 0
 287 20 262 58 233 105 c 0
 204 152 180 191 180 191 c 0
 180 191 156 152 127 105 c 0
 98 58 73 20 72 20 c 0
 70 21 53 31 53 32 c 0
 53 32 79 73 111 124 c 2
 168 217 l 1
 168 291 l 1
 168 366 l 1
 164 366 l 1
 155 368 142 370 133 374 c 0
 93 389 63 426 54 469 c 0
 52 477 51 482 51 496 c 0
 51 513 54 523 58 536 c 0
 59 540 59 542 59 542 c 0
 59 542 58 543 55 543 c 2
 50 543 l 1
 50 656 l 1
252 642 m 0
 252 642 236 658 216 678 c 2
 180 714 l 1
 144 678 l 2
 124 658 108 642 108 642 c 0
 107 642 100 652 91 666 c 2
 75 690 l 1
 75 631 l 1
 75 570 l 1
 77 573 l 2
 81 579 95 594 103 599 c 0
 117 611 139 619 159 623 c 0
 170 625 190 625 201 623 c 0
 221 619 243 611 257 599 c 0
 265 594 279 579 283 573 c 2
 285 570 l 1
 285 631 l 1
 285 690 l 1
 269 666 l 2
 260 652 253 642 252 642 c 0
197 599 m 1
 189 601 168 601 160 599 c 0
 146 596 130 589 117 579 c 0
 66 540 60 465 105 420 c 0
 119 406 133 396 152 392 c 0
 161 389 163 390 180 390 c 0
 197 390 199 389 208 392 c 0
 227 396 241 407 254 420 c 0
 271 437 280 458 284 480 c 1
 293 537 253 590 197 599 c 1
EndSplineSet
EndChar
StartChar: uni0280
Encoding: 640 640 33
Width: 468
VWidth: 0
Flags: W
HStem: 321 26<60 178 204 311.043> 428 20G<301 325>
VStem: 178 26<234 320 347 399> 311 16<363.592 372.804>
LayerCount: 2
Fore
SplineSet
167 790 m 0
 169 790 179 790 190 790 c 0
 220 790 241 786 263 777 c 0
 277 772 283 768 292 759 c 0
 309 743 313 724 302 704 c 0
 297 693 280 681 264 674 c 2
 256 671 l 1
 264 666 l 2
 299 645 324 609 332 569 c 0
 335 556 335 529 332 516 c 0
 327 489 313 463 296 445 c 0
 290 439 289 439 301 446 c 1
 305 448 l 1
 362 391 l 1
 418 334 l 1
 381 296 l 2
 360 275 342 259 342 259 c 0
 342 259 336 273 331 290 c 2
 321 320 l 1
 263 320 l 1
 204 320 l 1
 204 277 l 1
 204 234 l 1
 268 131 l 1
 303 74 332 29 332 29 c 0
 332 28 313 16 311 15 c 0
 310 15 283 58 251 110 c 0
 219 162 191 205 191 205 c 0
 191 205 163 162 131 110 c 0
 99 58 72 15 71 15 c 0
 69 16 50 28 50 29 c 0
 50 29 79 74 114 131 c 1
 178 234 l 1
 178 277 l 1
 178 320 l 1
 120 321 l 1
 60 321 l 1
 60 334 l 1
 60 347 l 1
 120 347 l 1
 178 347 l 1
 178 373 l 1
 178 399 l 1
 173 400 l 1
 163 402 148 405 138 409 c 0
 93 426 60 466 50 514 c 0
 46 529 46 557 50 572 c 0
 58 612 84 645 118 666 c 1
 126 671 l 1
 119 674 l 2
 108 678 96 686 89 693 c 0
 61 720 73 756 115 776 c 0
 129 782 141 786 167 790 c 0
228 761 m 0
 215 764 177 765 163 763 c 0
 127 757 100 740 100 725 c 0
 100 714 116 702 138 695 c 0
 155 690 165 687 191 687 c 0
 217 687 228 690 245 695 c 1
 267 702 282 714 282 725 c 0
 282 739 260 754 228 761 c 0
210 659 m 1
 201 661 178 661 169 659 c 0
 153 656 134 648 120 637 c 0
 63 594 59 510 109 460 c 0
 124 445 140 434 161 429 c 0
 171 426 172 426 191 426 c 0
 210 426 211 426 221 429 c 0
 242 434 260 446 274 460 c 0
 293 479 303 500 307 525 c 1
 317 588 272 649 210 659 c 1
297 391 m 0
 290 413 283 432 282 432 c 1
 281 432 280 431 278 429 c 0
 272 424 254 413 243 409 c 0
 233 405 219 402 209 400 c 1
 204 399 l 1
 204 373 l 1
 204 347 l 1
 258 347 l 2
 308 347 312 348 311 350 c 0
 311 351 304 369 297 391 c 0
367 320 m 2
 382 334 l 1
 354 362 l 2
 339 377 327 389 327 388 c 0
 333 367 353 309 354 308 c 0
 354 308 360 313 367 320 c 2
EndSplineSet
EndChar
StartChar: uni0281
Encoding: 641 641 32
Width: 524
VWidth: 0
Flags: W
HStem: 351 30<61 189 218 337> 732 20G<192 218>
VStem: 189 29<254 351 381 438> 335 28<336.38 349.872 686.741 731.558> 387 30<515.029 586.885>
LayerCount: 2
Fore
SplineSet
388 779 m 0
 396 782 412 782 421 779 c 0
 447 771 469 740 475 702 c 0
 483 649 460 597 424 584 c 0
 421 583 417 582 417 581 c 0
 417 580 405 524 390 459 c 0
 375 394 363 338 363 337 c 0
 363 335 362 334 360 334 c 0
 356 334 335 340 335 341 c 0
 335 342 336 344 336 346 c 2
 337 351 l 1
 277 351 l 1
 218 351 l 1
 218 302 l 1
 218 254 l 1
 289 143 l 1
 327 80 360 29 360 29 c 0
 360 28 339 15 337 14 c 0
 336 14 305 61 270 118 c 0
 235 175 205 223 205 223 c 0
 205 223 174 175 139 118 c 0
 104 61 74 14 73 14 c 0
 71 15 50 28 50 29 c 0
 50 29 81 80 119 143 c 2
 189 254 l 1
 189 302 l 1
 189 351 l 1
 126 351 l 1
 61 351 l 1
 61 365 l 1
 61 379 l 1
 126 381 l 1
 189 381 l 1
 189 409 l 1
 189 438 l 1
 185 439 l 1
 174 441 159 445 148 449 c 0
 98 468 61 510 50 563 c 0
 46 579 46 611 50 627 c 0
 60 674 90 716 134 737 c 0
 157 748 179 752 205 752 c 0
 231 752 252 748 275 737 c 0
 283 733 293 726 297 722 c 0
 307 715 324 698 330 690 c 2
 333 686 l 1
 336 698 l 1
 340 739 360 770 388 779 c 0
417 749 m 0
 410 752 401 752 394 749 c 0
 383 743 370 727 366 708 c 0
 362 695 362 667 366 654 c 1
 370 641 376 629 383 621 c 0
 391 612 397 610 406 610 c 0
 415 610 420 612 428 621 c 1
 435 629 442 641 446 654 c 1
 449 667 449 695 446 708 c 1
 442 727 428 745 417 749 c 0
226 723 m 1
 216 725 191 724 181 722 c 0
 163 719 143 710 128 698 c 0
 65 651 58 559 113 504 c 0
 129 488 148 477 171 471 c 0
 182 468 184 467 205 467 c 0
 226 467 227 468 238 471 c 0
 261 477 280 488 295 503 c 0
 316 524 328 547 332 575 c 1
 343 644 294 712 226 723 c 1
383 585 m 0
 380 586 374 590 370 593 c 2
 363 599 l 1
 362 587 l 2
 361 564 356 544 346 524 c 0
 322 478 278 446 225 439 c 1
 218 438 l 1
 218 409 l 1
 218 381 l 1
 281 381 l 2
 339 381 342 381 343 383 c 0
 344 386 387 581 387 582 c 0
 387 583 386 584 383 585 c 0
EndSplineSet
EndChar
StartChar: uni0282
Encoding: 642 642 31
Width: 532
VWidth: 0
Flags: W
HStem: 21 21G<50 79> 340 44<180 193> 354 30<193 311 340 470> 383 29<89.048 154.722>
VStem: 50 29<21 351> 311 29<258 354 384 442>
LayerCount: 2
Fore
SplineSet
298 759 m 0xac
 310 761 339 761 351 759 c 0
 386 753 415 737 440 711 c 0
 461 689 476 662 482 631 c 0
 485 617 485 586 482 572 c 0
 468 504 414 453 345 443 c 1
 340 442 l 1
 340 413 l 1
 340 384 l 1
 405 384 l 1
 470 384 l 1
 470 369 l 1
 470 355 l 1
 405 355 l 1
 340 354 l 1
 340 306 l 1
 340 258 l 1
 411 144 l 1
 450 81 482 30 482 30 c 0
 482 29 460 16 458 15 c 0
 457 15 427 62 391 120 c 0
 355 178 325 226 325 226 c 0
 325 226 295 178 259 120 c 0
 223 62 193 15 192 15 c 0
 190 16 168 29 168 30 c 0
 168 30 200 81 239 144 c 1
 311 258 l 1
 311 306 l 1
 311 354 l 1
 252 354 l 1
 193 354 l 1xac
 194 347 l 1
 195 340 l 1
 180 340 l 1
 166 340 l 1xcc
 165 346 l 2
 163 360 155 372 142 379 c 0
 135 383 134 383 122 383 c 0
 110 383 109 383 102 379 c 0
 93 374 86 367 82 358 c 2
 79 351 l 1
 79 186 l 1
 79 21 l 1
 64 21 l 1
 50 21 l 1
 50 188 l 1
 50 355 l 1
 54 364 l 2
 59 376 64 385 73 394 c 0
 86 407 103 412 122 412 c 0x9c
 142 412 158 406 172 392 c 1
 180 384 l 1xcc
 246 384 l 1
 311 384 l 1
 311 413 l 1
 311 442 l 1
 305 443 l 1
 294 445 278 449 267 453 c 0
 217 472 180 516 169 569 c 0
 165 586 165 617 169 634 c 0
 179 682 210 723 254 744 c 0
 268 751 283 756 298 759 c 0xac
347 730 m 1
 337 732 311 732 301 730 c 0
 283 727 263 718 247 706 c 0
 184 658 177 565 233 509 c 0
 250 492 269 481 292 475 c 0
 303 472 304 472 325 472 c 0
 346 472 348 472 359 475 c 0
 382 481 400 493 416 509 c 0
 437 530 450 554 454 582 c 1
 465 652 416 719 347 730 c 1
EndSplineSet
EndChar
StartChar: uni0283
Encoding: 643 643 29
Width: 531
VWidth: 0
Flags: W
HStem: 297 30<86.1816 153.108> 354 30<191 309 338 468>
VStem: 309 29<258 354 384 442>
LayerCount: 2
Fore
SplineSet
296 759 m 0
 308 761 337 761 349 759 c 0
 384 753 413 737 438 711 c 0
 459 689 474 662 480 631 c 0
 483 617 483 586 480 572 c 0
 466 504 412 453 343 443 c 1
 338 442 l 1
 338 413 l 1
 338 384 l 1
 403 384 l 1
 468 384 l 1
 468 369 l 1
 468 355 l 1
 403 355 l 1
 338 354 l 1
 338 306 l 1
 338 258 l 1
 409 144 l 1
 448 81 480 30 480 30 c 0
 480 29 458 16 456 15 c 0
 455 15 425 62 389 120 c 0
 353 178 323 226 323 226 c 0
 323 226 293 178 257 120 c 0
 221 62 191 15 190 15 c 0
 188 16 166 29 166 30 c 0
 166 30 198 81 237 144 c 1
 309 258 l 1
 309 306 l 1
 309 354 l 1
 250 354 l 1
 191 354 l 1
 188 346 l 2
 183 329 169 313 152 305 c 0
 141 300 133 297 120 297 c 0
 107 297 100 299 88 305 c 0
 80 309 77 311 69 319 c 0
 58 330 54 338 50 353 c 0
 45 371 49 393 60 409 c 0
 70 424 86 436 102 440 c 0
 111 442 129 442 138 440 c 0
 161 435 181 415 188 393 c 2
 191 384 l 1
 250 384 l 1
 309 384 l 1
 309 413 l 1
 309 442 l 1
 303 443 l 1
 292 445 276 449 265 453 c 0
 215 472 178 516 167 569 c 0
 163 586 163 617 167 634 c 0
 177 682 208 723 252 744 c 0
 266 751 281 756 296 759 c 0
345 730 m 1
 335 732 309 732 299 730 c 0
 281 727 261 718 245 706 c 0
 182 658 175 565 231 509 c 0
 248 492 267 481 290 475 c 0
 301 472 302 472 323 472 c 0
 344 472 346 472 357 475 c 0
 380 481 398 493 414 509 c 0
 435 530 448 554 452 582 c 1
 463 652 414 719 345 730 c 1
140 408 m 0
 133 412 132 412 122 412 c 0
 110 412 106 411 97 406 c 0
 81 397 73 376 78 358 c 0
 82 345 89 336 101 330 c 0
 107 327 108 327 120 327 c 0
 132 327 133 327 139 330 c 0
 147 334 152 339 156 346 c 0
 170 368 163 396 140 408 c 0
EndSplineSet
EndChar
StartChar: uni0284
Encoding: 644 644 30
Width: 466
VWidth: 0
Flags: W
HStem: 16 105<89 145 176 193 273 290 321 350> 329 27<102 220 246 350> 427 20G<350 377> 642 132<116 121.034 158 308 344.966 350> 642 28<50 116 350 416>
VStem: 89 104<16 121> 220 26<242 329 356 408> 273 104<16 121> 350 27<121 329 356 447>
LayerCount: 2
Fore
SplineSet
116 722 m 1xef
 116 774 l 1
 233 774 l 1
 350 774 l 1xf680
 350 722 l 1
 350 670 l 1
 383 670 l 1
 416 669 l 1
 416 656 l 1
 416 643 l 1
 380 642 l 2
 360 642 344 641 345 641 c 0
 348 639 357 626 362 616 c 0
 373 595 376 577 376 552 c 0
 376 539 375 532 374 526 c 0
 361 465 313 418 251 409 c 1
 246 408 l 1
 246 382 l 1
 246 356 l 1
 298 356 l 1
 350 356 l 1
 350 402 l 1
 350 447 l 1
 364 447 l 1
 377 447 l 1
 377 231 l 1xee80
 377 16 l 1
 325 16 l 1
 273 16 l 1
 273 69 l 1
 273 121 l 1
 281 121 l 2
 285 121 290 122 290 122 c 0
 290 124 233 213 232 212 c 0
 230 210 176 123 176 122 c 0
 176 122 181 121 185 121 c 2
 193 121 l 1
 193 69 l 1
 193 16 l 1
 141 16 l 1
 89 16 l 1
 89 69 l 1
 89 121 l 1
 117 121 l 1
 145 121 l 1
 183 182 l 1
 220 242 l 1
 220 286 l 1
 220 329 l 1
 161 329 l 1
 102 330 l 1
 102 343 l 1
 102 355 l 1
 161 356 l 1
 220 356 l 1
 220 382 l 1
 220 408 l 1
 215 409 l 1
 205 411 191 414 181 418 c 0
 136 435 103 475 93 523 c 0
 91 532 90 537 90 552 c 0
 90 578 93 594 104 616 c 0
 108 626 118 639 121 641 c 0
 122 641 106 642 86 642 c 2
 50 643 l 1
 50 656 l 1
 50 669 l 1
 83 670 l 1
 116 670 l 1
 116 722 l 1xef
315 635 m 1
 308 642 l 1
 233 642 l 1
 158 642 l 1
 149 634 l 1
 104 588 104 515 150 469 c 0
 165 454 181 443 202 438 c 0
 212 435 214 436 233 436 c 0
 252 436 254 435 264 438 c 0
 285 443 301 454 315 468 c 0
 325 478 331 486 337 498 c 0
 360 544 351 600 315 635 c 1
350 226 m 1
 350 329 l 1
 298 329 l 1
 246 329 l 1
 246 286 l 1
 246 242 l 1
 283 182 l 1
 321 121 l 1
 336 121 l 1
 350 121 l 1
 350 226 l 1
EndSplineSet
EndChar
StartChar: uni0288
Encoding: 648 648 5
Width: 528
VWidth: 0
Flags: W
HStem: 314 31<169.879 229> 397 26<238.677 279.676 311.169 351.08> 627 133<176.534 179 200.575 390.371> 627 32<447 477.999>
VStem: 280 31<371 396.996>
LayerCount: 2
Fore
SplineSet
179 759 m 0xe8
 177 757 176 735 176 707 c 2
 176 659 l 1
 143 659 l 1
 113 659 l 1
 113 642 l 1
 113 627 l 1
 147 627 l 1
 180 627 l 1
 168 601 l 2
 143 547 155 475 197 435 c 0
 216 418 254 397 271 397 c 0
 279 397 280 392 280 371 c 2
 280 345 l 1
 229 345 l 2
 181 345 175 346 172 356 c 0
 170 362 162 370 153 378 c 1
 141 388 132 392 111 392 c 0
 88 392 82 390 67 375 c 0
 52 360 50 353 50 329 c 0
 50 305 52 299 67 284 c 0
 82 269 88 266 111 266 c 0
 132 266 141 270 153 280 c 1
 162 288 170 297 172 303 c 0
 175 313 181 314 229 314 c 2
 280 314 l 1
 280 269 l 1
 280 224 l 1
 217 124 l 2
 161 32 154 24 163 17 c 0
 167 13 172 11 174 11 c 0
 176 11 204 53 235 105 c 0
 266 157 293 198 295 198 c 0
 297 198 325 157 356 105 c 0
 387 53 415 11 417 11 c 0
 419 11 423 13 427 17 c 0
 436 24 429 32 373 124 c 2
 311 224 l 1
 311 269 l 1
 311 314 l 1
 369 314 l 1
 426 314 l 1
 426 329 l 1
 426 345 l 1
 369 345 l 1
 311 345 l 1
 311 371 l 2
 311 392 311 397 320 397 c 0
 335 397 374 418 393 435 c 0
 435 475 448 547 423 601 c 2
 410 627 l 1
 444 627 l 1
 478 627 l 1
 478 642 l 2
 478 657 478 659 447 659 c 2
 414 659 l 1xd8
 412 709 l 1
 412 760 l 1
 297 760 l 2
 234 760 181 761 179 759 c 0xe8
383 615 m 0
 402 594 410 571 410 538 c 0
 410 470 363 423 295 423 c 0
 227 423 180 470 180 538 c 0
 180 571 189 594 208 615 c 0
 218 625 222 627 295 627 c 0xe8
 368 627 373 625 383 615 c 0
140 357 m 0
 152 347 153 313 141 301 c 0
 131 289 97 289 85 301 c 0
 73 311 72 344 84 356 c 0
 94 368 128 369 140 357 c 0
EndSplineSet
EndChar
StartChar: uni0289
Encoding: 649 649 92
Width: 803
VWidth: 0
Flags: W
HStem: 111 20<546.725 632.42> 130 20<50 237> 354 20G<609.091 651.964>
VStem: 261 23<273.094 277.237> 294 23<134.011 179.139> 366 20<80.5618 177>
LayerCount: 2
Fore
SplineSet
607 352 m 2x7c
 619 364 630 374 630 374 c 0
 630 374 748 266 753 262 c 0
 754 261 750 256 730 232 c 0
 717 216 706 203 705 202 c 0
 704 201 704 200 720 184 c 2
 737 167 l 1
 730 160 l 1
 723 153 l 1
 708 167 l 2
 699 176 693 182 693 181 c 0
 693 180 690 176 688 171 c 0
 674 142 647 121 615 113 c 0
 607 111 606 111 590 111 c 0xbc
 575 111 573 111 566 113 c 0
 556 115 543 120 536 124 c 0
 533 126 530 127 530 127 c 1
 530 127 523 121 515 114 c 0
 503 103 501 102 502 101 c 0
 504 98 558 26 558 26 c 0
 558 26 554 23 550 20 c 0
 544 15 542 14 541 15 c 0
 540 16 528 32 513 52 c 0
 498 72 486 89 486 89 c 0
 486 89 482 87 479 84 c 0
 450 60 426 46 407 42 c 0
 400 40 381 39 380 40 c 0
 380 40 378 41 375 42 c 0
 359 45 338 56 315 73 c 0
 307 79 307 79 304 79 c 2
 300 79 l 1
 300 82 l 2
 300 85 299 86 281 101 c 0
 271 109 259 119 254 123 c 2
 246 130 l 1
 148 130 l 1
 50 130 l 1
 50 140 l 1
 50 150 l 1
 144 150 l 1
 237 151 l 1
 219 234 l 2
 209 280 201 318 201 318 c 0
 202 319 220 322 220 322 c 0
 220 322 223 309 226 294 c 1
 229 279 232 267 232 266 c 1
 232 265 233 265 234 266 c 2
 236 268 l 1
 239 266 l 1
 242 264 l 1
 250 270 l 1
 258 276 l 1
 260 274 l 1
 262 271 l 1
 262 273 l 2
 261 275 261 277 261 277 c 0
 261 277 266 278 271 280 c 0
 281 283 280 284 284 271 c 0
 286 266 287 262 287 262 c 0
 287 262 287 266 288 271 c 0
 289 276 290 281 290 281 c 0
 290 281 294 281 298 280 c 1
 310 278 310 279 309 275 c 0
 307 264 308 264 315 275 c 2
 322 286 l 1
 330 280 l 1
 338 274 l 1
 319 246 l 1
 300 217 l 1
 308 162 l 2
 312 132 317 105 317 102 c 2
 318 96 l 1
 327 89 l 1
 339 80 349 74 358 69 c 1
 365 65 376 61 377 62 c 0
 377 62 366 176 366 177 c 0
 366 177 358 176 349 174 c 1
 340 172 332 171 332 171 c 0
 331 172 329 190 329 190 c 1
 329 190 337 192 347 194 c 0
 357 196 364 199 364 199 c 0
 364 199 363 208 362 219 c 0
 361 230 360 239 360 239 c 0
 380 241 l 1
 380 241 381 232 382 222 c 0
 383 212 384 203 384 203 c 0
 384 203 392 204 401 206 c 0
 410 208 418 209 418 209 c 0
 419 208 422 190 421 190 c 0
 421 190 413 188 403 186 c 0
 387 182 386 182 386 180 c 0
 386 179 389 152 392 120 c 0
 395 88 398 61 398 61 c 0
 399 60 412 64 418 67 c 0
 430 73 445 83 465 99 c 2
 474 105 l 1
 448 139 l 2
 434 158 422 174 422 174 c 0
 422 174 437 186 438 186 c 0
 438 186 449 171 462 153 c 0
 475 135 487 121 488 120 c 0
 489 119 490 119 499 127 c 0
 505 132 511 137 512 138 c 2
 515 140 l 1
 509 146 l 2
 496 160 486 178 482 198 c 0
 480 210 480 230 482 242 c 0
 487 264 497 282 513 298 c 0
 523 308 532 315 544 320 c 1
 552 324 l 1
 537 338 l 1
 523 353 l 1
 530 360 l 1
 537 367 l 1
 556 348 l 1
 576 329 l 1
 580 329 l 1
 585 330 l 1
 607 352 l 2x7c
623 253 m 2
 593 283 568 307 568 307 c 0
 568 307 564 306 560 305 c 0
 536 297 517 278 507 254 c 0
 493 220 501 182 527 156 c 0
 539 144 551 137 567 133 c 0
 574 131 576 131 590 131 c 0
 604 131 606 131 613 133 c 0
 629 137 642 145 653 156 c 0
 664 167 670 178 675 192 c 1
 678 198 l 1
 623 253 l 2
259 229 m 0
 248 237 238 242 238 242 c 0
 238 242 238 242 238 241 c 0
 238 240 242 218 248 193 c 0
 254 168 259 147 259 146 c 0
 259 145 268 138 277 130 c 0x7c
 291 118 294 116 294 117 c 0
 294 119 281 213 280 214 c 1
 280 214 270 221 259 229 c 0
EndSplineSet
EndChar
StartChar: uni028A
Encoding: 650 650 28
Width: 769
VWidth: 0
Flags: W
HStem: 46 24<486.818 590.512> 164 24<209 230.996 258 335 359 407> 402 2G<107 117 131 143 176 188 209 227>
VStem: 144 27<406.031 414.058> 335 24<56 164 188 296> 599 120<86 266> 599 24<8 57.9963 294 344>
LayerCount: 2
Fore
SplineSet
209 410 m 2xfa
 217 424 l 1
 227 416 l 1
 236 409 l 1
 215 377 l 2
 201 354 193 343 193 342 c 0
 193 341 207 306 225 264 c 2
 258 188 l 1
 296 188 l 1
 335 188 l 1
 335 242 l 1
 335 296 l 1
 347 296 l 1
 359 296 l 1
 359 242 l 1
 359 188 l 1
 383 188 l 1
 407 188 l 1
 409 199 l 2
 416 240 443 276 480 294 c 0
 502 305 518 308 543 307 c 0
 557 307 561 307 571 305 c 1
 577 304 585 300 590 298 c 0
 595 296 599 294 599 294 c 0
 599 294 599 306 599 319 c 2
 599 344 l 1
 611 344 l 1
 623 344 l 1
 623 314 l 1
 623 284 l 1xfa
 671 284 l 1
 719 284 l 1
 719 176 l 1
 719 68 l 1xfc
 671 68 l 1
 623 68 l 1
 623 38 l 1
 623 8 l 1
 611 8 l 1
 599 8 l 1
 599 34 l 2
 599 53 598 58 597 58 c 0
 585 53 577 50 569 48 c 0
 559 46 558 46 539 46 c 0
 516 46 509 47 491 54 c 0
 473 61 457 70 443 86 c 0
 425 105 414 129 409 154 c 1
 407 164 l 1
 383 164 l 1
 359 164 l 1
 359 110 l 1
 359 56 l 1
 347 56 l 1
 335 56 l 1
 335 110 l 1
 335 164 l 1
 271 164 l 1
 209 164 l 1
 138 95 l 1
 67 24 l 1
 59 32 l 1
 50 41 l 1
 117 109 l 1
 186 176 l 1
 117 244 l 1
 50 312 l 1
 59 320 l 1
 67 329 l 1
 138 259 l 1
 207 188 l 1
 219 188 l 2
 226 188 231 190 231 190 c 0
 231 190 217 223 200 263 c 2
 169 336 l 1
 137 358 l 2
 119 370 103 381 102 382 c 0
 100 383 101 384 107 392 c 0
 111 397 113 402 113 402 c 0
 113 402 115 401 117 400 c 2
 121 397 l 1
 131 404 l 1
 140 412 l 1
 143 409 l 1
 145 406 l 1
 145 408 l 2
 144 410 144 413 144 413 c 0
 144 413 150 414 156 416 c 0
 168 420 166 422 171 406 c 0
 173 400 175 395 175 395 c 0
 175 395 175 400 176 406 c 0
 177 412 179 418 179 418 c 0
 179 418 183 417 188 416 c 1
 202 414 202 415 201 410 c 0
 199 397 199 397 209 410 c 2xfa
565 281 m 0
 555 283 529 284 518 282 c 0
 482 275 452 251 439 217 c 0
 422 176 432 131 463 100 c 0
 477 86 492 77 511 72 c 0
 519 70 522 70 539 70 c 0
 556 70 558 70 566 72 c 0
 576 74 586 79 594 84 c 2
 599 86 l 1
 599 176 l 1
 599 266 l 1xfc
 593 270 l 2
 585 275 575 279 565 281 c 0
EndSplineSet
EndChar
StartChar: uni028B
Encoding: 651 651 84
Width: 521
VWidth: 0
Flags: W
HStem: 321 27<61 180 206 314> 401 27<137.899 180 206 246.679> 621 27<407.109 428.984> 663 26<140.291 246.699>
VStem: 94 26<717.469 780.68> 180 26<233 321 348 401> 312 24<306.713 317.906>
LayerCount: 2
Fore
SplineSet
100 786 m 0
 100 787 124 779 125 778 c 0
 125 778 123 770 120 760 c 0
 112 737 109 727 109 717 c 0
 109 707 113 698 124 686 c 2
 132 677 l 1
 136 680 l 2
 143 683 150 685 160 687 c 0
 169 689 173 689 193 689 c 0
 213 689 216 689 225 687 c 0
 235 685 242 683 249 680 c 2
 253 677 l 1
 261 686 l 2
 272 698 275 707 275 717 c 0
 275 727 273 737 265 760 c 0
 262 770 260 778 260 778 c 0
 261 779 284 787 284 786 c 0
 285 784 298 747 300 738 c 0
 307 710 302 693 283 672 c 2
 276 664 l 1
 282 660 l 2
 291 653 306 637 312 628 c 0
 323 612 332 593 336 573 c 0
 338 560 338 532 336 519 c 0
 324 456 273 410 210 401 c 1
 206 401 l 1
 206 375 l 1
 206 348 l 1
 262 348 l 2
 293 348 318 348 318 348 c 0
 318 348 329 407 342 477 c 2
 366 605 l 1
 379 618 l 2
 403 641 413 648 424 648 c 0
 440 648 449 636 463 593 c 2
 471 571 l 1
 404 436 l 2
 367 362 336 302 336 302 c 0
 336 302 330 305 323 307 c 0
 314 310 312 311 312 312 c 0
 312 313 313 316 313 318 c 2
 314 321 l 1
 260 321 l 1
 206 321 l 1
 206 277 l 1
 206 233 l 1
 271 130 l 1
 306 73 336 25 336 25 c 0
 336 24 316 13 314 12 c 0
 314 12 286 55 253 108 c 0
 220 161 193 203 193 203 c 0
 193 203 165 161 132 108 c 0
 99 55 71 12 71 12 c 0
 69 13 50 24 50 25 c 0
 50 25 80 73 115 130 c 2
 180 233 l 1
 180 277 l 1
 180 321 l 1
 120 321 l 1
 61 321 l 1
 61 334 l 1
 61 347 l 1
 120 348 l 1
 180 348 l 1
 180 375 l 1
 180 401 l 1
 174 401 l 1
 163 402 150 406 140 410 c 0
 95 428 61 469 50 517 c 0
 47 532 47 560 50 575 c 0
 54 594 62 612 73 628 c 0
 80 637 94 653 103 660 c 2
 108 664 l 1
 102 672 l 2
 79 698 78 717 94 768 c 0
 97 778 100 786 100 786 c 0
221 661 m 0
 214 663 210 663 196 663 c 0
 177 663 171 663 159 660 c 0
 147 657 142 652 136 646 c 1
 132 642 131 642 129 643 c 0
 128 644 126 645 119 639 c 0
 63 594 58 513 109 462 c 0
 124 447 141 437 162 431 c 0
 172 429 174 428 193 428 c 0
 212 428 213 429 223 431 c 0
 244 437 260 447 275 461 c 0
 285 471 292 480 298 492 c 0
 323 543 311 604 267 639 c 0
 260 645 258 644 257 643 c 0
 255 642 255 642 249 648 c 0
 242 655 236 657 221 661 c 0
427 612 m 0
 425 616 423 621 423 621 c 0
 421 621 409 610 400 601 c 2
 390 592 l 1
 372 496 l 2
 362 443 355 399 355 399 c 1
 355 399 375 438 399 486 c 2
 443 573 l 1
 437 588 l 2
 434 597 429 608 427 612 c 0
EndSplineSet
EndChar
StartChar: uni028C
Encoding: 652 652 96
Width: 795
VWidth: 0
Flags: W
HStem: 56 22<104 226 249.552 253 253.047 341.406> 166 22<418 462 484 554 578 600> 276 21<103 227 255.789 338.763> 382 20G<583 600 618 629 660 671 683 693>
VStem: 462 22<66 166 188 286>
LayerCount: 2
Fore
SplineSet
583 396 m 1
 588 399 592 402 592 402 c 0
 592 402 596 397 600 391 c 0
 608 379 608 379 606 391 c 0
 605 395 605 394 618 396 c 1
 623 397 626 397 626 397 c 0
 626 397 628 392 629 387 c 0
 630 382 630 377 630 377 c 0
 630 377 632 382 634 387 c 0
 639 401 637 400 648 396 c 0
 653 394 658 392 658 392 c 0
 658 392 659 391 658 389 c 2
 657 386 l 1
 660 389 l 1
 662 392 l 1
 671 385 l 1
 679 378 l 1
 683 381 l 2
 685 382 687 383 687 383 c 0
 687 383 690 379 693 374 c 0
 698 366 699 365 697 364 c 0
 696 363 682 354 666 343 c 2
 636 323 l 1
 607 256 l 2
 591 219 578 188 578 188 c 0
 578 188 583 188 589 188 c 2
 600 188 l 1
 665 252 l 1
 729 316 l 1
 737 308 l 1
 745 300 l 1
 683 238 l 1
 621 176 l 1
 683 114 l 1
 745 52 l 1
 737 44 l 1
 729 36 l 1
 664 101 l 1
 600 166 l 1
 542 166 l 1
 484 166 l 1
 484 116 l 1
 484 66 l 1
 473 66 l 1
 462 66 l 1
 462 116 l 1
 462 166 l 1
 440 165 l 1
 418 165 l 1
 416 156 l 1
 408 108 372 70 324 58 c 0
 317 56 313 56 297 56 c 0
 280 56 278 56 269 58 c 0
 264 59 258 61 256 62 c 2
 253 63 l 1
 253 59 l 1
 253 56 l 1
 152 56 l 1
 50 56 l 1
 88 93 l 2
 108 113 125 130 125 130 c 0
 125 130 109 141 91 153 c 0
 73 165 58 176 58 176 c 0
 58 176 73 187 91 199 c 0
 109 211 125 222 125 222 c 0
 125 222 108 239 88 259 c 0
 68 279 51 297 51 297 c 0
 51 297 96 297 152 297 c 2
 253 297 l 1
 253 293 l 2
 253 290 253 289 255 290 c 0
 272 295 278 296 293 296 c 1
 310 297 318 296 332 292 c 0
 343 289 360 281 369 274 c 0
 379 267 391 253 397 244 c 0
 407 230 414 211 416 195 c 2
 417 188 l 1
 440 188 l 1
 462 188 l 1
 462 237 l 1
 462 286 l 1
 473 286 l 1
 484 286 l 1
 484 237 l 1
 484 188 l 1
 519 188 l 1
 554 188 l 1
 583 257 l 2
 599 295 614 327 614 328 c 0
 614 329 608 339 594 359 c 2
 574 390 l 1
 583 396 l 1
224 273 m 2
 227 275 l 1
 165 276 l 1
 103 276 l 1
 132 247 l 1
 160 219 l 1
 129 198 l 2
 112 187 98 176 98 176 c 0
 98 176 112 166 129 155 c 2
 160 134 l 1
 132 106 l 1
 104 78 l 1
 165 78 l 1
 226 78 l 1
 223 80 l 2
 216 85 204 99 199 106 c 0
 189 120 182 135 178 152 c 0
 176 159 176 163 176 176 c 0
 176 189 176 193 178 200 c 0
 181 216 188 231 197 245 c 0
 201 252 217 267 224 273 c 2
313 274 m 1
 305 275 286 274 278 273 c 0
 264 270 249 264 237 255 c 0
 189 219 184 148 227 106 c 0
 240 93 254 85 271 80 c 0
 279 78 281 78 297 78 c 0
 313 78 314 78 322 80 c 0
 339 85 354 94 366 106 c 0
 382 122 392 140 395 161 c 1
 403 214 366 266 313 274 c 1
EndSplineSet
EndChar
StartChar: uni028E
Encoding: 654 654 85
Width: 384
VWidth: 0
Flags: W
HStem: 322 27<61 127 255 308> 419 20G<308 334> 659 26<137.961 243.642>
VStem: 177 27<235 246> 308 26<69 322 349 439>
LayerCount: 2
Fore
SplineSet
100 781 m 0
 100 782 123 774 124 773 c 0
 125 773 122 765 119 755 c 0
 111 732 109 722 109 712 c 0
 109 702 112 694 123 682 c 2
 131 673 l 1
 135 675 l 2
 142 678 149 681 159 683 c 0
 168 685 171 685 191 685 c 0
 211 685 213 685 222 683 c 0
 232 681 240 678 247 675 c 2
 250 673 l 1
 258 682 l 2
 269 694 272 702 272 712 c 0
 272 722 270 732 262 755 c 0
 259 765 257 773 258 773 c 0
 259 774 281 782 281 781 c 0
 282 779 294 742 296 733 c 0
 302 706 298 689 280 668 c 2
 274 660 l 1
 279 656 l 2
 287 649 302 633 308 624 c 0
 319 608 327 589 331 570 c 0
 333 557 333 530 331 517 c 0
 325 489 312 464 293 444 c 0
 276 426 260 416 235 407 c 1
 232 406 l 1
 236 401 l 1
 244 391 252 370 254 355 c 2
 255 349 l 1
 281 349 l 1
 308 349 l 1
 308 394 l 1
 308 439 l 1
 321 439 l 1
 334 439 l 1
 334 231 l 1
 334 23 l 1
 327 23 l 2
 321 23 320 23 316 20 c 0
 313 18 310 17 310 17 c 0
 310 17 283 60 250 112 c 0
 217 164 191 206 191 206 c 0
 191 206 164 164 131 112 c 0
 98 60 71 17 71 17 c 0
 70 17 52 29 50 30 c 0
 50 30 78 76 113 132 c 2
 177 234 l 1
 177 240 l 1
 177 246 l 1
 173 248 l 1
 165 251 155 258 149 266 c 0
 139 278 129 299 127 316 c 2
 127 322 l 1
 94 322 l 1
 61 322 l 1
 61 335 l 1
 61 348 l 1
 94 349 l 1
 127 349 l 1
 127 355 l 2
 129 369 137 390 145 400 c 0
 147 403 149 405 149 406 c 0
 149 406 144 408 139 410 c 0
 95 427 61 467 51 515 c 0
 48 530 48 557 51 572 c 0
 55 591 62 608 73 624 c 0
 79 633 93 649 102 656 c 2
 108 660 l 1
 102 668 l 2
 80 694 78 712 94 762 c 0
 97 772 100 781 100 781 c 0
220 657 m 0
 214 659 208 659 194 659 c 0
 175 659 170 660 158 656 c 0
 146 652 140 649 135 643 c 1
 130 638 130 639 128 640 c 0
 126 641 125 641 118 635 c 0
 63 591 58 510 108 461 c 0
 123 446 141 436 161 430 c 0
 171 427 173 427 191 427 c 0
 209 427 211 427 221 430 c 0
 241 436 257 445 272 460 c 0
 282 470 289 479 295 491 c 0
 320 541 307 600 263 635 c 0
 256 641 256 641 254 640 c 0
 252 639 251 639 246 644 c 0
 240 650 235 653 220 657 c 0
201 398 m 0
 195 401 186 401 180 398 c 0
 170 393 160 377 155 360 c 0
 152 348 152 323 155 311 c 1
 158 299 163 288 170 281 c 0
 177 273 183 271 191 271 c 0
 199 271 204 273 211 281 c 1
 218 288 224 299 227 311 c 1
 230 323 230 348 227 360 c 1
 222 377 211 393 201 398 c 0
308 195 m 1
 308 322 l 1
 281 322 l 1
 255 322 l 1
 254 316 l 2
 250 286 232 257 210 248 c 1
 204 246 l 1
 204 241 l 1
 204 235 l 1
 256 152 l 1
 308 69 l 1
 308 195 l 1
EndSplineSet
EndChar
StartChar: uni028F
Encoding: 655 655 93
Width: 657
VWidth: 0
Flags: W
HStem: 51 20<413.623 499.161> 150 20<182 244.99 266 287 307 347>
VStem: 227 20<283.068 319.999> 287 20<60 150 170 260> 507 100<85 235> 507 20<20 60.997 258 300>
LayerCount: 2
Fore
SplineSet
234 320 m 0xf4
 240 321 247 321 247 321 c 0
 247 320 252 283 252 283 c 0
 252 283 259 284 268 286 c 0
 277 288 284 289 284 289 c 0
 285 289 290 272 289 271 c 0
 289 271 281 268 272 266 c 0
 263 264 255 262 255 262 c 0
 255 262 257 241 260 216 c 2
 266 170 l 1
 276 170 l 1
 287 170 l 1
 287 215 l 1
 287 260 l 1
 297 260 l 1
 307 260 l 1
 307 215 l 1
 307 170 l 1
 327 170 l 1
 347 170 l 1
 349 179 l 2
 355 213 377 243 408 258 c 0
 426 267 440 270 461 269 c 0
 473 269 476 269 484 267 c 1
 489 266 496 263 500 261 c 0
 504 259 507 258 507 258 c 0
 507 258 507 268 507 279 c 2
 507 300 l 1
 517 300 l 1
 527 300 l 1
 527 275 l 1
 527 250 l 1xf4
 567 250 l 1
 607 250 l 1
 607 160 l 1
 607 70 l 1xf8
 567 70 l 1
 527 70 l 1
 527 45 l 1
 527 20 l 1
 517 20 l 1
 507 20 l 1
 507 41 l 2
 507 57 507 61 506 61 c 0
 496 57 489 55 482 53 c 0
 474 51 473 51 457 51 c 0
 438 51 432 52 417 58 c 0
 402 64 389 72 377 85 c 0
 362 101 353 120 349 141 c 1
 347 150 l 1
 327 150 l 1
 307 150 l 1
 307 105 l 1
 307 60 l 1
 297 60 l 1
 287 60 l 1
 287 105 l 1
 287 150 l 1
 234 150 l 1
 182 150 l 1
 123 92 l 1
 64 33 l 1
 57 40 l 1
 50 47 l 1
 106 104 l 1
 163 160 l 1
 106 216 l 1
 50 273 l 1
 57 280 l 1
 64 287 l 1
 123 229 l 1
 181 170 l 1
 213 170 l 2
 231 170 245 171 245 171 c 0
 245 171 243 191 240 215 c 0
 235 252 234 258 233 258 c 0
 232 258 225 256 216 254 c 0
 207 252 199 251 199 251 c 0
 199 252 195 270 195 270 c 0
 195 270 204 272 214 274 c 0
 230 278 232 279 232 280 c 0
 232 281 230 290 229 300 c 0
 228 310 227 318 227 318 c 0
 227 318 231 320 234 320 c 0xf4
479 247 m 0
 471 249 449 250 440 248 c 0
 410 242 385 222 374 194 c 0
 360 160 368 122 394 96 c 0
 406 84 418 77 434 73 c 0
 441 71 443 71 457 71 c 0
 471 71 473 71 480 73 c 0
 488 75 496 79 503 83 c 2
 507 85 l 1
 507 160 l 1
 507 235 l 1xf8
 502 238 l 2
 495 242 487 245 479 247 c 0
EndSplineSet
EndChar
StartChar: uni0290
Encoding: 656 656 81
Width: 542
VWidth: 0
Flags: W
HStem: 344 46<345 358> 359 31<62 196 225 345> 387 32<390.018 453.755> 449 29<151.003 196 225 268.707>
VStem: 196 29<260 359 390 449> 463 29<18 362>
LayerCount: 2
Fore
SplineSet
182 772 m 0x5c
 194 774 225 774 237 772 c 0
 272 766 303 751 328 724 c 0
 350 701 363 674 370 642 c 0
 372 627 372 596 370 581 c 0
 357 512 301 459 231 449 c 1
 225 449 l 1
 225 420 l 1
 225 390 l 1
 292 390 l 1x5c
 358 390 l 1x9c
 367 398 l 2
 382 411 397 419 418 419 c 0
 424 419 431 417 436 416 c 0
 459 410 480 392 488 368 c 1
 491 358 l 1
 492 188 l 1
 492 18 l 1
 477 18 l 1
 463 18 l 1
 463 187 l 1
 461 354 l 1
 459 362 l 2
 455 372 448 379 438 384 c 0
 431 388 430 387 418 387 c 0x3c
 406 387 404 388 397 384 c 0
 385 377 376 364 374 351 c 2
 373 344 l 1
 357 344 l 1
 343 344 l 1x9c
 344 352 l 1
 345 359 l 1
 284 359 l 1
 225 359 l 1
 225 310 l 1
 225 260 l 1
 298 143 l 1
 338 79 370 27 370 27 c 0
 370 26 348 12 346 11 c 0
 345 11 316 60 278 119 c 0
 240 178 210 227 210 227 c 0
 210 227 180 178 142 119 c 0
 104 60 74 11 73 11 c 0
 71 12 50 26 50 27 c 0
 50 27 83 79 123 143 c 1
 196 260 l 1
 196 310 l 1
 196 359 l 1
 128 359 l 1
 62 359 l 1
 62 374 l 1
 62 388 l 1
 128 390 l 1
 196 390 l 1
 196 420 l 1
 196 449 l 1
 190 449 l 1
 179 450 162 454 151 459 c 0
 100 478 62 524 51 579 c 0
 47 596 47 627 51 644 c 0
 61 693 93 735 138 757 c 0
 153 764 166 770 182 772 c 0x5c
232 743 m 1
 222 744 196 744 186 742 c 0
 167 738 145 730 129 718 c 0
 64 669 58 574 116 517 c 0
 133 500 153 489 176 482 c 0
 187 478 189 478 210 478 c 0
 231 478 233 478 244 482 c 0
 267 489 286 499 303 516 c 0
 325 537 336 563 341 591 c 1
 352 663 302 732 232 743 c 1
EndSplineSet
EndChar
StartChar: uni0292
Encoding: 658 658 80
Width: 531
VWidth: 0
Flags: W
HStem: 293 29<377.03 442.72> 350 30<62 192 221 339> 438 29<146.665 192 221 266.981>
VStem: 192 29<253 350 380 438>
LayerCount: 2
Fore
SplineSet
179 754 m 0
 191 756 221 756 233 754 c 0
 268 748 297 733 322 707 c 0
 343 685 358 657 364 626 c 0
 367 612 367 581 364 567 c 0
 350 499 296 448 227 438 c 1
 221 438 l 1
 221 409 l 1
 221 380 l 1
 280 380 l 1
 339 380 l 1
 342 389 l 2
 344 394 347 400 349 404 c 0
 359 419 376 431 392 435 c 0
 401 437 419 437 428 435 c 0
 451 430 470 410 478 387 c 0
 481 379 481 376 481 365 c 0
 481 353 481 350 478 341 c 0
 471 322 458 308 441 300 c 0
 430 295 423 293 410 293 c 0
 397 293 389 295 378 300 c 0
 361 308 347 324 342 341 c 2
 339 350 l 1
 280 350 l 1
 221 350 l 1
 221 301 l 1
 221 253 l 1
 292 139 l 1
 331 76 364 25 364 25 c 0
 364 24 342 11 340 10 c 0
 339 10 309 57 273 115 c 0
 237 173 207 221 207 221 c 0
 207 221 176 173 140 115 c 0
 104 57 74 10 73 10 c 0
 71 11 50 24 50 25 c 0
 50 25 82 76 121 139 c 1
 192 253 l 1
 192 301 l 1
 192 350 l 1
 127 350 l 1
 62 350 l 1
 62 365 l 1
 62 379 l 1
 127 380 l 1
 192 380 l 1
 192 409 l 1
 192 438 l 1
 187 438 l 1
 176 440 160 444 149 448 c 0
 99 467 61 512 50 565 c 0
 46 582 46 612 50 629 c 0
 60 677 92 718 136 739 c 0
 150 746 164 751 179 754 c 0
228 725 m 1
 218 727 192 727 182 725 c 0
 164 722 144 713 128 701 c 0
 65 653 59 560 115 504 c 0
 132 487 150 477 173 471 c 0
 184 468 186 467 207 467 c 0
 228 467 229 468 240 471 c 0
 263 477 282 488 298 504 c 0
 319 525 331 549 335 577 c 1
 346 647 297 714 228 725 c 1
430 403 m 0
 423 407 421 407 411 407 c 0
 399 407 396 406 387 401 c 0
 371 392 363 372 368 354 c 0
 372 341 379 331 391 325 c 0
 397 322 398 322 410 322 c 0
 422 322 422 322 428 325 c 0
 436 329 442 334 446 341 c 0
 460 363 453 391 430 403 c 0
EndSplineSet
EndChar
StartChar: uni0294
Encoding: 660 660 70
Width: 626
VWidth: 0
Flags: W
HStem: 215 26<76 156.127 175.873 255> 241 26<175.873 205.566> 420 26<76 153.129 178.872 255> 625 129<282 288 324 470 507 512> 625 26<218 282 512 577>
VStem: 50 26<241 319.128 339.967 420> 76 26<291.497 319.128 339.967 369.247> 230 25<292.623 321 341 367.139> 255 27<254.966 321 340.967 406> 384 26<231 303 358 396>
LayerCount: 2
Fore
SplineSet
282 703 m 1x2cc0
 282 754 l 1
 397 754 l 1
 512 754 l 1x34c0
 512 703 l 1
 512 651 l 1
 544 651 l 1
 577 651 l 1
 577 639 l 1
 577 625 l 1
 542 625 l 2x2cc0
 523 625 507 625 507 625 c 0
 507 625 508 623 510 620 c 0
 524 602 532 582 536 558 c 0
 538 546 538 526 536 514 c 0
 531 484 519 461 499 439 c 0
 477 416 446 400 415 396 c 2
 410 396 l 1
 410 313 l 1
 410 231 l 1
 473 130 l 1
 536 30 l 1
 526 23 l 2
 521 19 517 18 516 17 c 1
 514 16 513 19 456 110 c 0
 424 161 397 203 397 203 c 0
 397 203 370 161 338 110 c 0
 297 43 280 16 279 16 c 0
 271 20 258 30 258 30 c 0
 258 30 287 76 321 131 c 2
 384 231 l 1
 384 267 l 1x74c0
 384 303 l 1
 333 263 l 1
 282 222 l 1
 282 218 l 1
 282 215 l 1
 166 215 l 1
 50 215 l 1
 50 331 l 1
 50 446 l 1
 166 446 l 1
 282 446 l 1
 282 443 l 1
 282 439 l 1
 333 398 l 2
 361 376 384 358 384 358 c 0
 384 358 384 367 384 377 c 2
 384 396 l 1
 380 396 l 2
 360 398 337 406 319 418 c 1
 286 440 263 476 257 516 c 0
 255 526 255 546 257 556 c 0
 259 565 262 579 265 586 c 0
 269 598 278 612 285 622 c 1
 288 625 l 1xb4c0
 253 625 l 1
 218 625 l 1
 218 639 l 1
 218 651 l 1
 249 651 l 1
 282 651 l 1
 282 703 l 1x2cc0
476 621 m 1
 470 625 l 1
 397 625 l 1
 324 625 l 1
 317 618 l 2
 303 604 292 589 287 571 c 0
 278 542 279 512 293 485 c 0
 309 451 343 426 381 421 c 0
 388 420 406 420 413 421 c 0
 464 428 504 470 511 521 c 0
 516 558 504 595 476 621 c 1
153 419 m 0
 156 419 143 420 117 420 c 2
 76 420 l 1
 76 379 l 1
 76 357 76 339 76 340 c 0
 80 380 113 413 153 419 c 0
255 380 m 2
 255 420 l 1x20c0
 216 420 l 2
 190 420 176 419 179 419 c 0
 213 414 241 390 252 357 c 0
 253 353 254 349 255 346 c 0
 255 343 255 342 255 341 c 0x2140
 255 340 255 358 255 380 c 2
329 368 m 0
 303 389 282 406 282 406 c 0
 282 406 282 371 282 330 c 0
 282 270 281 254 282 255 c 0
 286 259 374 329 375 330 c 1
 376 331 368 336 329 368 c 0
179 393 m 0
 169 395 158 395 148 392 c 0
 126 386 109 368 103 345 c 0
 102 341 102 339 102 330 c 1
 102 319 102 318 104 313 c 0
 110 291 128 274 150 268 c 0
 154 267 157 267 166 267 c 0
 178 267 183 268 192 272 c 0
 206 277 218 290 224 304 c 0
 228 314 231 325 230 336 c 0x6340
 226 364 207 388 179 393 c 0
79 308 m 0
 78 312 77 316 77 319 c 0
 77 322 76 308 76 282 c 2
 76 241 l 1
 118 241 l 2
 143 241 159 241 156 241 c 0xa440
 137 244 119 252 105 265 c 0
 92 277 83 291 79 308 c 0
255 281 m 2xa0c0
 255 303 255 321 255 321 c 0
 255 321 255 319 255 316 c 0xa140
 253 303 246 289 239 278 c 1
 231 267 218 256 206 250 c 0
 198 246 186 242 176 241 c 0
 173 241 189 241 214 241 c 2
 255 241 l 1
 255 281 l 2xa0c0
EndSplineSet
EndChar
StartChar: uni0295
Encoding: 661 661 83
Width: 630
VWidth: 0
Flags: W
HStem: 23 21G<72 73.5 329.5 331> 239 57<439.719 467.969> 239 29<356 439 468 552> 436 28<143.759 188 216 259.77> 463 29<356 439 468 552>
VStem: 188 37<350.406 379.887> 188 28<257 336 394 436> 328 28<282 312 419 448> 523 28<324.292 355 377.922 406.615> 552 28<268 355 377.922 463>
LayerCount: 2
Fore
SplineSet
175 741 m 0xb3c0
 187 743 215 743 227 741 c 0
 260 735 289 721 313 696 c 0
 334 674 347 648 353 618 c 0
 356 604 356 575 353 561 c 0
 340 495 288 445 221 436 c 1
 216 436 l 1xb3c0
 216 415 l 1
 216 394 l 1
 272 439 l 2
 327 483 328 484 328 488 c 2
 328 492 l 1
 454 492 l 1
 580 492 l 1
 580 365 l 1
 580 239 l 1xabc0
 454 239 l 1xc3c0
 328 239 l 1
 328 243 l 2
 328 247 327 247 272 291 c 2
 216 336 l 1
 216 297 l 1
 216 257 l 1
 284 148 l 1
 322 88 353 37 353 37 c 0
 353 36 332 24 330 23 c 0
 329 23 301 68 266 124 c 0
 231 180 202 226 202 226 c 0
 202 226 173 180 138 124 c 0
 103 68 74 23 73 23 c 0
 71 24 50 36 50 37 c 0
 50 37 81 88 119 148 c 1
 188 257 l 1
 188 346 l 1
 188 436 l 1
 182 436 l 1
 171 438 157 442 146 446 c 0
 98 465 62 507 51 558 c 0
 48 574 48 604 51 620 c 0
 61 667 91 706 133 727 c 0
 147 734 160 738 175 741 c 0xb3c0
222 714 m 1
 212 715 188 715 178 713 c 0
 160 710 141 701 126 690 c 0
 65 644 58 554 113 500 c 0
 129 484 147 474 169 468 c 0
 179 465 182 464 202 464 c 0
 222 464 224 465 234 468 c 0
 256 474 274 484 290 500 c 0
 310 520 322 543 326 570 c 1
 336 638 289 703 222 714 c 1
430 460 m 1
 439 463 l 1
 397 463 l 1
 356 463 l 1x89c0
 356 419 l 2
 356 377 356 376 357 384 c 0
 364 421 393 451 430 460 c 1
552 419 m 2
 552 463 l 1
 510 463 l 1
 468 463 l 1
 479 460 l 2
 506 453 529 433 541 408 c 0
 545 400 550 386 551 378 c 0
 551 376 552 395 552 419 c 2
328 365 m 2
 328 411 327 448 327 448 c 0
 326 448 225 366 225 365 c 0x85c0
 225 365 248 346 276 323 c 2
 328 282 l 1
 328 365 l 2
471 433 m 0
 463 435 444 435 436 433 c 0
 418 428 399 412 391 396 c 0
 378 368 382 338 404 316 c 0
 418 302 434 296 454 296 c 0xc1c0
 474 296 488 302 502 316 c 0
 517 331 523 344 523 365 c 0
 523 386 517 400 502 415 c 0
 493 424 483 430 471 433 c 0
362 330 m 0
 360 335 358 342 357 347 c 0
 356 355 356 353 356 312 c 2
 356 268 l 1
 397 268 l 1
 439 268 l 1xa1c0
 430 270 l 2
 412 274 391 287 379 301 c 0
 372 309 366 320 362 330 c 0
552 311 m 2
 552 335 551 355 551 355 c 0
 551 355 551 354 551 352 c 0
 551 350 549 345 548 340 c 0
 539 306 511 278 477 270 c 1
 468 268 l 1
 510 268 l 1
 552 268 l 1
 552 311 l 2
EndSplineSet
EndChar
StartChar: uni0298
Encoding: 664 664 88
Width: 456
VWidth: 0
Flags: W
HStem: 23 21G<165 178.644 373.356 387> 304 25<176.045 264 288 396> 493 20G<69 80.2439 175 203>
VStem: 50 20<494.214 507.04> 264 24<224 304 329 377>
LayerCount: 2
Fore
SplineSet
269 760 m 0
 273 766 277 771 277 771 c 0
 277 771 301 730 329 682 c 0
 366 618 380 594 379 593 c 0
 378 592 378 592 380 590 c 0
 390 578 402 553 406 533 c 0
 408 521 408 496 406 484 c 0
 395 427 350 386 293 378 c 1
 288 377 l 1
 288 353 l 1
 288 329 l 1
 342 329 l 1
 396 329 l 1
 396 317 l 1
 396 305 l 1
 342 304 l 1
 288 304 l 1
 288 264 l 1
 288 224 l 1
 347 130 l 1
 379 78 406 35 406 35 c 0
 406 34 388 24 386 23 c 0
 386 23 361 62 331 110 c 0
 301 158 276 198 276 198 c 0
 276 198 251 158 221 110 c 0
 191 62 166 23 166 23 c 0
 164 24 146 34 146 35 c 0
 146 35 173 78 205 130 c 2
 264 224 l 1
 264 264 l 1
 264 304 l 1
 220 304 l 1
 176 304 l 1
 183 290 l 2
 187 282 190 275 190 275 c 0
 190 274 170 263 169 264 c 0
 169 264 163 276 156 290 c 2
 144 314 l 1
 118 299 l 2
 104 290 91 283 91 283 c 0
 91 283 88 287 85 291 c 0
 82 295 80 300 79 301 c 0
 78 303 79 304 105 319 c 0
 120 328 132 336 132 336 c 0
 132 336 114 374 91 419 c 1
 68 465 50 502 50 503 c 0
 50 504 68 513 70 513 c 0
 70 513 89 476 112 431 c 2
 154 348 l 1
 175 361 l 2
 187 368 197 374 197 374 c 0
 197 374 200 370 203 366 c 0
 206 362 208 357 209 356 c 0
 210 354 209 354 191 343 c 0
 181 337 171 331 170 330 c 0
 168 329 176 329 216 329 c 2
 264 329 l 1
 264 353 l 1
 264 377 l 1
 260 378 l 1
 250 379 237 382 228 386 c 0
 187 402 157 438 147 482 c 0
 145 490 145 495 145 509 c 0
 145 527 146 538 151 552 c 0
 156 565 166 583 172 590 c 0
 174 592 174 592 173 593 c 0
 172 594 210 659 269 760 c 0
344 592 m 0
 342 593 331 593 276 593 c 0
 200 593 208 595 197 583 c 0
 157 540 158 473 200 432 c 0
 214 418 229 409 248 404 c 0
 257 402 259 402 276 402 c 0
 293 402 295 402 304 404 c 0
 323 409 337 419 351 432 c 0
 360 441 367 449 372 460 c 0
 393 501 385 550 353 584 c 0
 350 588 345 591 344 592 c 0
EndSplineSet
EndChar
